{"glyphs":{"a":{"x_min":0,"x_max":356,"ha":356,"o":"m 192 144 q 187 137 173 122 q 159 107 140 90 q 122 72 100 54 q 79 36 60 22 q 40 8 24 0 q 8 -7 0 -3 q -20 6 -34 18 q -48 31 -43 50 q -33 82 -3 130 q 27 178 74 229 q 90 246 112 268 q 134 291 160 311 q 187 331 217 345 q 247 359 279 359 q 317 360 336 340 q 355 321 353 301 q 352 292 347 284 q 342 276 332 276 q 332 280 332 286 q 331 293 328 299 q 325 305 318 310 q 310 314 295 314 q 280 314 260 301 q 240 288 220 270 q 199 251 181 232 q 163 212 152 200 q 152 200 140 186 q 128 172 112 153 q 96 134 80 115 q 64 96 56 84 q 50 76 54 74 q 58 71 70 76 q 85 84 111 106 q 137 127 166 152 q 194 178 218 202 q 243 227 255 241 l 288 286 q 289 287 298 280 q 306 274 316 264 q 325 254 333 242 q 341 229 341 218 q 340 208 330 196 q 320 184 303 164 q 303 164 295 154 q 287 143 276 128 q 264 113 253 97 q 242 81 236 70 q 230 57 233 55 q 236 53 242 56 q 249 59 256 65 q 264 71 267 74 q 290 93 320 121 q 349 149 378 176 l 466 262 q 464 257 461 249 q 458 241 452 228 q 445 216 433 200 q 421 183 400 162 l 394 157 l 370 132 q 349 111 327 89 q 305 67 284 48 q 260 28 238 14 q 217 1 201 0 q 177 -1 164 21 q 152 43 163 75 q 166 84 170 94 q 175 105 180 115 q 184 125 188 133 q 191 141 192 144 z"},"L":{"x_min":0,"x_max":1067,"ha":1067,"o":"m 636 173 q 603 133 574 98 q 544 63 512 29 q 514 26 516 22 q 517 19 520 17 q 536 -8 552 -32 q 569 -57 590 -76 q 611 -95 638 -106 q 664 -117 699 -116 q 732 -115 764 -97 q 795 -79 823 -52 q 851 -24 872 8 q 894 41 907 70 q 912 83 913 97 q 914 111 910 122 q 906 133 896 140 q 887 147 871 147 q 848 147 793 121 q 828 170 867 194 q 906 218 937 218 q 967 218 986 203 q 1006 188 1008 156 q 1008 146 1008 136 q 1007 126 1004 115 q 996 64 966 16 q 935 -33 890 -72 q 846 -111 792 -136 q 738 -160 683 -163 q 641 -165 609 -154 q 577 -143 552 -124 q 527 -106 506 -82 q 486 -58 467 -34 l 459 -23 q 379 -96 293 -131 q 207 -166 120 -164 q 87 -163 66 -154 q 45 -146 32 -132 q 20 -118 15 -100 q 10 -81 11 -60 q 14 -12 40 31 q 67 74 108 107 q 148 140 198 160 q 247 179 297 179 q 330 180 356 173 q 383 166 404 155 q 425 144 440 130 q 456 116 467 103 q 488 129 508 154 q 528 178 550 209 q 508 213 466 228 q 424 244 394 274 q 363 305 348 352 q 332 400 343 469 q 354 518 381 568 q 408 619 446 666 q 485 712 532 753 q 578 794 627 825 q 676 856 724 875 q 773 894 816 897 q 865 896 886 870 q 908 845 900 804 q 895 773 878 738 q 860 704 831 669 q 807 639 776 607 q 746 575 716 549 q 686 523 658 506 q 631 489 612 489 q 591 489 580 498 q 568 508 571 525 q 574 538 587 559 q 603 551 617 551 q 636 551 658 562 q 680 573 703 591 q 726 609 750 633 q 773 657 794 683 q 822 717 840 750 q 859 782 864 808 q 868 831 855 845 q 842 859 808 858 q 769 857 728 838 q 686 818 646 786 q 606 755 570 715 q 533 675 504 632 q 474 590 454 549 q 434 508 427 475 q 416 425 418 387 q 421 349 438 322 q 456 295 491 278 q 526 262 580 256 l 651 358 q 696 425 742 492 q 789 559 838 621 q 886 683 937 736 q 988 790 1042 830 q 1095 870 1151 892 q 1207 915 1267 916 q 1345 917 1370 882 q 1396 847 1385 778 q 1383 770 1382 760 q 1380 751 1378 741 q 1362 676 1326 613 q 1289 550 1236 492 q 1183 435 1117 385 q 1051 335 977 298 q 903 260 824 236 q 744 213 664 209 q 656 200 650 190 q 644 181 636 173 z m 1261 870 q 1202 869 1146 832 q 1089 794 1033 732 q 977 669 922 589 q 866 509 808 422 q 779 376 752 336 q 725 297 693 252 q 799 258 894 303 q 990 348 1068 418 q 1146 488 1204 575 q 1261 662 1291 751 q 1298 768 1303 793 q 1305 807 1305 820 q 1305 834 1300 845 q 1296 856 1286 863 q 1277 870 1261 870 z m 129 -125 q 203 -129 270 -89 q 337 -49 410 32 q 384 57 350 70 q 317 84 272 82 q 246 79 216 69 q 187 59 161 42 q 135 25 116 2 q 96 -21 89 -50 q 81 -79 90 -102 q 100 -124 129 -125 z"},"3":{"x_min":0,"x_max":1219,"ha":1219,"o":"m 876 781 l 739 657 l 775 471 l 615 565 l 450 471 l 489 652 l 351 781 l 537 801 l 615 972 l 690 802 z m 682 576 l 639 834 l 586 834 l 541 576 l 564 562 l 583 576 l 592 634 l 631 634 l 642 576 l 663 562 z m 628 672 l 598 672 l 612 774 z m 610 21 l 631 21 l 624 39 q 622 42 622 44 q 622 46 619 49 q 619 45 616 39 z m 352 -5 l 352 3 l 363 3 l 363 -5 z m 844 -5 l 844 58 l 852 58 l 852 1 l 883 1 l 883 -5 z m 787 -5 l 787 58 l 832 58 l 832 49 l 795 49 l 795 30 l 829 30 l 829 22 l 795 22 l 795 1 l 832 1 l 832 -5 z m 565 -5 l 565 21 l 541 58 l 552 58 l 564 39 q 567 30 570 28 q 571 30 572 33 q 574 36 577 39 l 589 58 l 598 58 l 573 21 l 573 -5 z m 376 -5 l 376 58 l 400 58 q 403 58 406 56 q 408 55 409 55 q 415 54 417 49 q 420 46 420 40 q 420 36 417 34 q 415 28 411 28 q 415 27 420 22 q 423 16 423 13 q 423 10 422 8 q 421 7 421 6 q 420 0 415 0 q 414 -3 412 -3 q 411 -3 409 -5 l 400 -5 z m 205 -5 l 187 58 l 196 58 l 205 16 q 207 12 207 9 q 207 6 208 3 q 210 10 210 15 l 222 58 l 232 58 l 241 25 q 243 18 244 14 q 246 9 246 3 q 247 6 247 9 q 247 12 249 16 l 259 58 l 267 58 l 249 -5 l 241 -5 l 229 42 q 228 46 228 49 q 226 46 226 42 l 213 -5 z m 123 -5 l 105 58 l 115 58 l 123 16 q 123 9 127 3 q 129 10 129 15 l 141 58 l 150 58 l 160 25 q 162 18 162 14 q 163 9 163 3 q 166 6 166 9 q 166 12 168 16 l 177 58 l 186 58 l 168 -5 l 160 -5 l 148 42 q 147 46 147 49 q 144 46 144 42 l 130 -5 z m 384 30 l 397 30 q 403 30 405 33 q 409 33 409 34 q 411 36 411 40 q 411 45 409 46 l 408 46 q 406 46 406 47 q 406 48 405 48 q 403 49 396 49 l 384 49 z m 285 -5 l 268 58 l 277 58 l 286 16 q 288 12 288 9 q 288 6 291 3 q 291 9 292 11 q 292 13 292 15 l 304 58 l 313 58 l 324 25 q 325 18 326 14 q 327 9 327 3 q 330 6 330 9 q 330 12 331 16 l 342 58 l 349 58 l 331 -5 l 324 -5 l 312 42 q 310 46 310 49 q 307 46 307 42 l 294 -5 z m 664 28 l 682 28 q 685 28 688 29 q 690 30 693 30 q 696 30 696 34 q 697 36 697 40 q 697 45 694 48 q 693 49 684 49 l 664 49 z m 384 1 l 400 1 q 403 1 405 3 l 409 3 q 411 6 414 7 l 414 13 q 414 16 411 19 q 411 22 408 22 l 397 22 l 384 22 z m 435 -5 l 435 58 l 442 58 l 442 -5 z m 985 25 q 985 12 990 7 q 996 1 1006 1 q 1017 1 1021 7 q 1027 12 1027 27 q 1027 34 1026 39 q 1023 46 1018 48 q 1014 49 1006 49 q 997 49 993 45 q 985 39 985 25 z m 976 25 q 976 42 985 49 q 991 58 1006 58 q 1011 58 1014 56 q 1018 55 1021 54 q 1026 52 1028 49 q 1030 46 1033 42 q 1035 39 1035 27 q 1035 13 1032 9 q 1027 1 1021 -3 q 1015 -6 1006 -6 q 1002 -6 998 -6 q 994 -5 990 -3 q 987 0 984 3 q 982 6 981 9 q 979 13 978 17 q 976 21 976 25 z m 592 -5 l 616 58 l 625 58 l 651 -5 l 642 -5 l 634 13 l 609 13 l 600 -5 z m 459 -5 l 459 58 l 466 58 l 466 1 l 495 1 l 495 -5 z m 892 -5 l 892 3 l 903 3 l 903 -5 z m 748 19 l 748 27 l 774 27 l 774 3 q 768 -3 762 -5 q 759 -5 755 -6 q 751 -6 748 -6 q 739 -6 733 -3 q 729 0 726 2 q 723 4 721 9 q 720 13 718 17 q 717 21 717 25 q 717 31 718 34 q 720 37 721 42 q 724 51 732 54 q 735 55 740 56 q 744 58 748 58 q 756 58 760 55 q 766 54 768 49 q 772 45 774 40 l 766 39 q 766 40 762 45 q 762 48 756 49 l 748 49 l 739 49 q 735 48 732 45 q 732 43 727 39 q 727 36 726 33 q 726 30 726 27 q 726 16 729 13 q 735 4 736 3 q 741 1 748 1 q 754 1 759 3 q 762 6 764 6 q 765 6 766 7 l 766 19 z m 657 -5 l 657 58 l 684 58 q 688 58 691 56 q 694 55 697 55 q 702 54 703 49 q 706 46 706 40 q 706 33 702 28 q 700 27 696 26 q 693 25 688 22 q 691 22 692 22 q 693 21 694 21 q 696 18 696 16 q 697 13 700 10 l 712 -5 l 702 -5 l 693 7 q 690 10 689 12 q 688 15 687 16 q 687 19 686 19 q 684 19 682 21 l 681 21 q 679 21 679 22 q 679 22 678 22 l 675 22 l 664 22 l 664 -5 z m 505 -5 l 505 58 l 514 58 l 514 1 l 544 1 l 544 -5 z m 961 16 l 969 15 q 966 3 960 0 q 954 -6 943 -6 q 934 -6 928 -3 q 924 0 922 3 q 921 6 918 9 q 915 21 915 27 q 915 33 918 45 q 925 52 928 54 q 933 55 936 56 q 939 58 943 58 q 948 58 952 56 q 957 55 960 54 q 963 51 965 48 q 967 45 969 40 l 960 39 q 960 45 954 48 q 951 49 943 49 q 934 49 931 48 q 928 46 928 44 q 927 42 924 39 q 924 36 923 33 q 922 30 922 27 q 922 18 927 13 q 927 10 928 8 q 930 6 931 3 q 936 1 943 1 q 951 1 955 6 q 960 10 961 16 z m 1047 -5 l 1047 58 l 1059 58 l 1074 13 q 1074 10 1076 8 q 1077 6 1077 3 q 1077 4 1080 13 l 1093 58 l 1105 58 l 1105 -5 l 1098 -5 l 1098 46 l 1080 -5 l 1072 -5 l 1054 48 l 1054 -5 z m 610 21 l 631 21 l 624 39 q 622 42 622 44 q 622 46 619 49 q 619 45 616 39 z m 352 -5 l 352 3 l 363 3 l 363 -5 z m 844 -5 l 844 58 l 852 58 l 852 1 l 883 1 l 883 -5 z m 787 -5 l 787 58 l 832 58 l 832 49 l 795 49 l 795 30 l 829 30 l 829 22 l 795 22 l 795 1 l 832 1 l 832 -5 z m 565 -5 l 565 21 l 541 58 l 552 58 l 564 39 q 567 30 570 28 q 571 30 572 33 q 574 36 577 39 l 589 58 l 598 58 l 573 21 l 573 -5 z m 376 -5 l 376 58 l 400 58 q 403 58 406 56 q 408 55 409 55 q 415 54 417 49 q 420 46 420 40 q 420 36 417 34 q 415 28 411 28 q 415 27 420 22 q 423 16 423 13 q 423 10 422 8 q 421 7 421 6 q 420 0 415 0 q 414 -3 412 -3 q 411 -3 409 -5 l 400 -5 z m 205 -5 l 187 58 l 196 58 l 205 16 q 207 12 207 9 q 207 6 208 3 q 210 10 210 15 l 222 58 l 232 58 l 241 25 q 243 18 244 14 q 246 9 246 3 q 247 6 247 9 q 247 12 249 16 l 259 58 l 267 58 l 249 -5 l 241 -5 l 229 42 q 228 46 228 49 q 226 46 226 42 l 213 -5 z m 123 -5 l 105 58 l 115 58 l 123 16 q 123 9 127 3 q 129 10 129 15 l 141 58 l 150 58 l 160 25 q 162 18 162 14 q 163 9 163 3 q 166 6 166 9 q 166 12 168 16 l 177 58 l 186 58 l 168 -5 l 160 -5 l 148 42 q 147 46 147 49 q 144 46 144 42 l 130 -5 z m 384 30 l 397 30 q 403 30 405 33 q 409 33 409 34 q 411 36 411 40 q 411 45 409 46 l 408 46 q 406 46 406 47 q 406 48 405 48 q 403 49 396 49 l 384 49 z m 285 -5 l 268 58 l 277 58 l 286 16 q 288 12 288 9 q 288 6 291 3 q 291 9 292 11 q 292 13 292 15 l 304 58 l 313 58 l 324 25 q 325 18 326 14 q 327 9 327 3 q 330 6 330 9 q 330 12 331 16 l 342 58 l 349 58 l 331 -5 l 324 -5 l 312 42 q 310 46 310 49 q 307 46 307 42 l 294 -5 z m 664 28 l 682 28 q 685 28 688 29 q 690 30 693 30 q 696 30 696 34 q 697 36 697 40 q 697 45 694 48 q 693 49 684 49 l 664 49 z m 384 1 l 400 1 q 403 1 405 3 l 409 3 q 411 6 414 7 l 414 13 q 414 16 411 19 q 411 22 408 22 l 397 22 l 384 22 z m 435 -5 l 435 58 l 442 58 l 442 -5 z m 985 25 q 985 12 990 7 q 996 1 1006 1 q 1017 1 1021 7 q 1027 12 1027 27 q 1027 34 1026 39 q 1023 46 1018 48 q 1014 49 1006 49 q 997 49 993 45 q 985 39 985 25 z m 976 25 q 976 42 985 49 q 991 58 1006 58 q 1011 58 1014 56 q 1018 55 1021 54 q 1026 52 1028 49 q 1030 46 1033 42 q 1035 39 1035 27 q 1035 13 1032 9 q 1027 1 1021 -3 q 1015 -6 1006 -6 q 1002 -6 998 -6 q 994 -5 990 -3 q 987 0 984 3 q 982 6 981 9 q 979 13 978 17 q 976 21 976 25 z m 592 -5 l 616 58 l 625 58 l 651 -5 l 642 -5 l 634 13 l 609 13 l 600 -5 z m 459 -5 l 459 58 l 466 58 l 466 1 l 495 1 l 495 -5 z m 892 -5 l 892 3 l 903 3 l 903 -5 z m 748 19 l 748 27 l 774 27 l 774 3 q 768 -3 762 -5 q 759 -5 755 -6 q 751 -6 748 -6 q 739 -6 733 -3 q 729 0 726 2 q 723 4 721 9 q 720 13 718 17 q 717 21 717 25 q 717 31 718 34 q 720 37 721 42 q 724 51 732 54 q 735 55 740 56 q 744 58 748 58 q 756 58 760 55 q 766 54 768 49 q 772 45 774 40 l 766 39 q 766 40 762 45 q 762 48 756 49 l 748 49 l 739 49 q 735 48 732 45 q 732 43 727 39 q 727 36 726 33 q 726 30 726 27 q 726 16 729 13 q 735 4 736 3 q 741 1 748 1 q 754 1 759 3 q 762 6 764 6 q 765 6 766 7 l 766 19 z m 657 -5 l 657 58 l 684 58 q 688 58 691 56 q 694 55 697 55 q 702 54 703 49 q 706 46 706 40 q 706 33 702 28 q 700 27 696 26 q 693 25 688 22 q 691 22 692 22 q 693 21 694 21 q 696 18 696 16 q 697 13 700 10 l 712 -5 l 702 -5 l 693 7 q 690 10 689 12 q 688 15 687 16 q 687 19 686 19 q 684 19 682 21 l 681 21 q 679 21 679 22 q 679 22 678 22 l 675 22 l 664 22 l 664 -5 z m 505 -5 l 505 58 l 514 58 l 514 1 l 544 1 l 544 -5 z m 961 16 l 969 15 q 966 3 960 0 q 954 -6 943 -6 q 934 -6 928 -3 q 924 0 922 3 q 921 6 918 9 q 915 21 915 27 q 915 33 918 45 q 925 52 928 54 q 933 55 936 56 q 939 58 943 58 q 948 58 952 56 q 957 55 960 54 q 963 51 965 48 q 967 45 969 40 l 960 39 q 960 45 954 48 q 951 49 943 49 q 934 49 931 48 q 928 46 928 44 q 927 42 924 39 q 924 36 923 33 q 922 30 922 27 q 922 18 927 13 q 927 10 928 8 q 930 6 931 3 q 936 1 943 1 q 951 1 955 6 q 960 10 961 16 z m 1047 -5 l 1047 58 l 1059 58 l 1074 13 q 1074 10 1076 8 q 1077 6 1077 3 q 1077 4 1080 13 l 1093 58 l 1105 58 l 1105 -5 l 1098 -5 l 1098 46 l 1080 -5 l 1072 -5 l 1054 48 l 1054 -5 z m 610 21 l 631 21 l 624 39 q 622 42 622 44 q 622 46 619 49 q 619 45 616 39 z m 352 -5 l 352 3 l 363 3 l 363 -5 z m 844 -5 l 844 58 l 852 58 l 852 1 l 883 1 l 883 -5 z m 787 -5 l 787 58 l 832 58 l 832 49 l 795 49 l 795 30 l 829 30 l 829 22 l 795 22 l 795 1 l 832 1 l 832 -5 z m 565 -5 l 565 21 l 541 58 l 552 58 l 564 39 q 567 30 570 28 q 571 30 572 33 q 574 36 577 39 l 589 58 l 598 58 l 573 21 l 573 -5 z m 376 -5 l 376 58 l 400 58 q 403 58 406 56 q 408 55 409 55 q 415 54 417 49 q 420 46 420 40 q 420 36 417 34 q 415 28 411 28 q 415 27 420 22 q 423 16 423 13 q 423 10 422 8 q 421 7 421 6 q 420 0 415 0 q 414 -3 412 -3 q 411 -3 409 -5 l 400 -5 z m 205 -5 l 187 58 l 196 58 l 205 16 q 207 12 207 9 q 207 6 208 3 q 210 10 210 15 l 222 58 l 232 58 l 241 25 q 243 18 244 14 q 246 9 246 3 q 247 6 247 9 q 247 12 249 16 l 259 58 l 267 58 l 249 -5 l 241 -5 l 229 42 q 228 46 228 49 q 226 46 226 42 l 213 -5 z m 123 -5 l 105 58 l 115 58 l 123 16 q 123 9 127 3 q 129 10 129 15 l 141 58 l 150 58 l 160 25 q 162 18 162 14 q 163 9 163 3 q 166 6 166 9 q 166 12 168 16 l 177 58 l 186 58 l 168 -5 l 160 -5 l 148 42 q 147 46 147 49 q 144 46 144 42 l 130 -5 z m 384 30 l 397 30 q 403 30 405 33 q 409 33 409 34 q 411 36 411 40 q 411 45 409 46 l 408 46 q 406 46 406 47 q 406 48 405 48 q 403 49 396 49 l 384 49 z m 285 -5 l 268 58 l 277 58 l 286 16 q 288 12 288 9 q 288 6 291 3 q 291 9 292 11 q 292 13 292 15 l 304 58 l 313 58 l 324 25 q 325 18 326 14 q 327 9 327 3 q 330 6 330 9 q 330 12 331 16 l 342 58 l 349 58 l 331 -5 l 324 -5 l 312 42 q 310 46 310 49 q 307 46 307 42 l 294 -5 z m 664 28 l 682 28 q 685 28 688 29 q 690 30 693 30 q 696 30 696 34 q 697 36 697 40 q 697 45 694 48 q 693 49 684 49 l 664 49 z m 384 1 l 400 1 q 403 1 405 3 l 409 3 q 411 6 414 7 l 414 13 q 414 16 411 19 q 411 22 408 22 l 397 22 l 384 22 z m 435 -5 l 435 58 l 442 58 l 442 -5 z m 985 25 q 985 12 990 7 q 996 1 1006 1 q 1017 1 1021 7 q 1027 12 1027 27 q 1027 34 1026 39 q 1023 46 1018 48 q 1014 49 1006 49 q 997 49 993 45 q 985 39 985 25 z m 976 25 q 976 42 985 49 q 991 58 1006 58 q 1011 58 1014 56 q 1018 55 1021 54 q 1026 52 1028 49 q 1030 46 1033 42 q 1035 39 1035 27 q 1035 13 1032 9 q 1027 1 1021 -3 q 1015 -6 1006 -6 q 1002 -6 998 -6 q 994 -5 990 -3 q 987 0 984 3 q 982 6 981 9 q 979 13 978 17 q 976 21 976 25 z m 592 -5 l 616 58 l 625 58 l 651 -5 l 642 -5 l 634 13 l 609 13 l 600 -5 z m 459 -5 l 459 58 l 466 58 l 466 1 l 495 1 l 495 -5 z m 892 -5 l 892 3 l 903 3 l 903 -5 z m 748 19 l 748 27 l 774 27 l 774 3 q 768 -3 762 -5 q 759 -5 755 -6 q 751 -6 748 -6 q 739 -6 733 -3 q 729 0 726 2 q 723 4 721 9 q 720 13 718 17 q 717 21 717 25 q 717 31 718 34 q 720 37 721 42 q 724 51 732 54 q 735 55 740 56 q 744 58 748 58 q 756 58 760 55 q 766 54 768 49 q 772 45 774 40 l 766 39 q 766 40 762 45 q 762 48 756 49 l 748 49 l 739 49 q 735 48 732 45 q 732 43 727 39 q 727 36 726 33 q 726 30 726 27 q 726 16 729 13 q 735 4 736 3 q 741 1 748 1 q 754 1 759 3 q 762 6 764 6 q 765 6 766 7 l 766 19 z m 657 -5 l 657 58 l 684 58 q 688 58 691 56 q 694 55 697 55 q 702 54 703 49 q 706 46 706 40 q 706 33 702 28 q 700 27 696 26 q 693 25 688 22 q 691 22 692 22 q 693 21 694 21 q 696 18 696 16 q 697 13 700 10 l 712 -5 l 702 -5 l 693 7 q 690 10 689 12 q 688 15 687 16 q 687 19 686 19 q 684 19 682 21 l 681 21 q 679 21 679 22 q 679 22 678 22 l 675 22 l 664 22 l 664 -5 z m 505 -5 l 505 58 l 514 58 l 514 1 l 544 1 l 544 -5 z m 961 16 l 969 15 q 966 3 960 0 q 954 -6 943 -6 q 934 -6 928 -3 q 924 0 922 3 q 921 6 918 9 q 915 21 915 27 q 915 33 918 45 q 925 52 928 54 q 933 55 936 56 q 939 58 943 58 q 948 58 952 56 q 957 55 960 54 q 963 51 965 48 q 967 45 969 40 l 960 39 q 960 45 954 48 q 951 49 943 49 q 934 49 931 48 q 928 46 928 44 q 927 42 924 39 q 924 36 923 33 q 922 30 922 27 q 922 18 927 13 q 927 10 928 8 q 930 6 931 3 q 936 1 943 1 q 951 1 955 6 q 960 10 961 16 z m 1047 -5 l 1047 58 l 1059 58 l 1074 13 q 1074 10 1076 8 q 1077 6 1077 3 q 1077 4 1080 13 l 1093 58 l 1105 58 l 1105 -5 l 1098 -5 l 1098 46 l 1080 -5 l 1072 -5 l 1054 48 l 1054 -5 z m 175 111 l 187 106 q 184 93 174 84 q 162 75 148 75 q 135 75 123 81 q 111 90 109 99 q 103 109 103 124 q 103 141 109 151 q 114 162 124 166 q 135 172 148 172 q 165 172 171 165 q 181 162 186 145 l 174 144 q 168 156 163 157 q 157 163 148 163 q 136 163 130 157 q 121 151 118 144 q 117 138 117 124 q 117 111 121 105 q 124 94 130 91 q 138 85 147 85 q 159 85 166 93 q 169 96 172 100 q 174 105 175 111 z m 199 123 q 199 135 202 144 q 205 153 213 159 q 219 166 227 169 q 235 172 244 172 q 258 172 268 166 q 277 162 285 150 q 291 135 291 124 q 291 117 290 111 q 288 105 285 99 q 277 87 267 81 q 255 75 244 75 q 237 75 232 76 q 226 78 220 81 q 210 87 205 99 q 199 109 199 123 z m 213 123 q 213 105 220 94 q 231 85 244 85 q 259 85 267 97 q 277 108 277 124 q 277 130 276 134 q 274 139 273 144 q 270 154 261 157 q 256 163 244 163 q 232 163 222 153 q 213 145 213 123 z m 306 78 l 306 171 l 324 171 l 346 105 q 351 96 351 91 q 354 94 357 106 l 381 171 l 396 171 l 396 78 l 384 78 l 384 156 l 357 78 l 345 78 l 318 157 l 318 78 z m 417 78 l 417 171 l 453 171 l 466 171 q 474 171 478 166 q 480 165 486 157 q 487 154 488 151 q 489 148 489 144 q 489 135 481 124 q 474 117 453 117 l 429 117 l 429 78 z m 429 126 l 454 126 q 468 126 469 132 q 475 133 475 144 q 475 151 474 153 q 468 159 463 159 q 462 162 453 162 l 429 162 z m 505 78 l 505 171 l 517 171 l 517 87 l 564 87 l 564 78 z m 579 78 l 579 171 l 648 171 l 648 162 l 591 162 l 591 132 l 643 132 l 643 120 l 591 120 l 591 87 l 649 87 l 649 78 z m 690 78 l 690 162 l 658 162 l 658 171 l 735 171 l 735 162 l 703 162 l 703 78 z m 748 78 l 748 171 l 817 171 l 817 162 l 760 162 l 760 132 l 813 132 l 813 120 l 760 120 l 760 87 l 819 87 l 819 78 z m 870 106 l 882 108 q 882 100 885 97 q 888 91 895 88 q 898 87 909 87 q 912 87 916 87 q 919 87 922 88 q 927 88 930 94 q 931 97 931 103 q 931 108 930 111 q 928 112 926 113 q 924 114 921 117 q 919 117 904 120 q 897 123 892 124 q 888 124 885 126 q 879 129 876 136 q 873 138 872 141 q 871 144 871 147 q 871 156 877 162 q 879 165 882 166 q 885 168 889 171 q 892 172 907 172 q 918 172 924 169 q 928 166 931 164 q 934 163 936 159 q 942 154 942 145 l 930 144 q 927 156 922 157 q 918 162 907 162 q 892 162 889 157 q 885 153 885 147 q 885 142 889 139 q 889 139 907 132 q 915 130 920 128 q 925 127 928 126 q 933 124 935 122 q 937 120 940 117 q 943 112 943 103 q 943 93 940 88 q 934 82 928 79 q 924 78 920 76 q 915 75 909 75 q 903 75 897 76 q 891 78 888 79 q 880 81 873 91 q 870 97 870 106 z m 961 78 l 961 171 l 1029 171 l 1029 162 l 975 162 l 975 132 l 1027 132 l 1027 120 l 975 120 l 975 87 l 1032 87 l 1032 78 z m 1074 78 l 1074 162 l 1044 162 l 1044 171 l 1117 171 l 1117 162 l 1086 162 l 1086 78 z m 112 190 l 112 283 l 150 283 l 163 283 q 166 283 175 280 q 177 279 179 276 q 181 273 183 270 q 186 267 186 259 q 186 246 177 237 q 172 229 150 229 l 127 229 l 127 190 z m 127 241 l 150 241 q 163 241 168 244 q 174 250 174 256 q 174 259 172 262 q 171 265 169 268 q 165 273 162 273 q 160 274 150 274 l 127 274 z m 201 190 l 201 283 l 268 283 l 268 274 l 214 274 l 214 244 l 265 244 l 265 234 l 214 234 l 214 202 l 271 202 l 271 190 z m 288 190 l 288 283 l 331 283 q 345 283 351 282 q 358 279 361 274 q 364 262 364 259 q 364 249 358 243 q 352 237 337 234 q 340 231 342 231 q 343 231 345 229 q 352 222 355 216 l 372 190 l 357 190 l 343 210 q 342 214 340 217 q 337 220 336 223 q 333 225 332 227 q 331 229 330 229 q 327 231 324 231 q 322 234 316 234 l 303 234 l 303 190 z m 303 243 l 327 243 q 339 243 342 244 q 346 249 349 250 q 351 253 351 259 q 351 265 346 270 q 342 274 331 274 l 303 274 z m 381 222 l 391 222 q 391 219 392 216 q 394 213 396 210 q 397 208 400 206 q 402 204 405 204 q 414 201 420 201 q 423 201 426 201 q 429 201 430 202 q 439 205 441 208 q 441 210 442 212 q 442 214 442 216 q 442 222 441 223 q 436 226 430 229 q 429 231 425 231 q 421 231 415 234 q 402 235 396 240 q 388 246 385 249 q 384 253 384 261 q 384 264 384 268 q 385 271 388 274 q 390 280 400 283 q 403 286 417 286 q 429 286 435 283 q 444 279 447 273 q 453 264 453 259 l 441 256 q 438 267 433 270 q 427 276 417 276 q 405 276 400 270 q 396 267 396 261 q 396 255 400 253 q 402 250 417 247 q 430 241 439 241 q 442 238 445 236 q 448 234 450 231 q 454 226 454 217 q 454 210 450 204 q 447 199 444 197 q 442 195 439 192 q 427 189 420 189 q 409 189 397 192 q 393 195 390 197 q 387 199 384 204 q 382 208 382 212 q 381 216 381 222 z m 468 237 q 468 258 480 273 q 493 286 513 286 q 519 286 524 284 q 529 283 537 280 q 543 277 546 272 q 549 268 552 262 q 558 252 558 237 q 558 223 552 211 q 546 201 537 195 q 525 189 513 189 q 499 189 489 196 q 475 204 474 214 q 468 222 468 237 z m 480 237 q 480 219 489 210 q 498 201 513 201 q 528 201 537 210 q 544 220 544 237 q 544 243 544 249 q 543 255 540 259 q 535 267 531 270 q 523 276 513 276 q 505 276 500 274 q 496 271 489 267 q 480 258 480 237 z m 573 190 l 573 283 l 586 283 l 636 211 l 636 283 l 648 283 l 648 190 l 636 190 l 585 264 l 585 190 z m 658 190 l 694 283 l 708 283 l 747 190 l 732 190 l 721 220 l 682 220 l 670 190 z m 684 229 l 717 229 l 708 255 q 705 261 704 266 q 702 271 700 274 q 700 270 698 266 q 697 261 696 256 z m 754 190 l 754 283 l 768 283 l 768 202 l 814 202 l 814 190 z m 922 283 l 934 283 l 934 231 q 934 214 931 208 q 928 199 921 195 q 913 189 898 189 q 883 189 877 195 q 873 196 870 200 q 867 204 864 208 q 862 211 862 231 l 862 283 l 873 283 l 873 231 q 873 216 876 211 q 879 205 883 204 q 886 202 889 202 q 892 201 897 201 q 909 201 916 205 q 922 211 922 231 z m 951 222 l 963 222 q 963 219 964 216 q 966 213 967 210 q 969 208 971 206 q 973 204 976 204 q 985 201 990 201 q 1000 201 1005 202 q 1008 204 1012 208 q 1014 210 1014 216 q 1014 222 1012 223 q 1009 225 1008 226 q 1008 228 1005 229 q 1002 231 998 231 q 993 231 987 234 q 981 235 976 236 q 970 237 969 240 q 961 243 960 249 q 955 253 955 261 q 955 267 960 274 q 961 280 970 283 q 976 286 988 286 q 993 286 998 286 q 1003 286 1006 283 q 1015 279 1020 273 q 1021 270 1022 266 q 1024 262 1024 259 l 1012 256 q 1009 261 1008 264 q 1008 268 1005 270 q 1000 276 988 276 q 975 276 973 270 q 967 268 967 261 q 967 256 970 253 q 973 250 988 247 q 1005 241 1009 241 q 1014 238 1017 236 q 1020 234 1021 231 q 1026 228 1026 217 q 1026 208 1021 204 q 1018 199 1016 197 q 1014 195 1009 192 q 1000 189 993 189 q 985 189 980 190 q 975 190 970 192 q 967 195 964 197 q 960 199 957 204 q 954 208 952 212 q 951 216 951 222 z m 1044 190 l 1044 283 l 1111 283 l 1111 274 l 1057 274 l 1057 244 l 1107 244 l 1107 234 l 1057 234 l 1057 202 l 1113 202 l 1113 190 z m 307 388 q 307 403 285 406 q 282 406 278 407 q 273 408 267 408 l 258 397 l 234 372 q 228 364 222 358 q 217 352 210 348 q 219 345 232 343 q 235 343 240 343 q 246 343 250 345 q 273 346 285 357 q 307 375 307 388 z m 324 433 q 324 439 316 439 q 313 439 291 432 l 274 417 q 271 414 268 408 l 294 412 q 300 412 310 420 q 324 429 324 433 z m 343 460 q 343 457 339 457 q 336 457 335 458 q 334 459 331 459 q 316 456 297 436 q 300 439 304 440 q 307 442 310 444 q 321 445 330 444 q 336 444 336 436 l 336 430 q 328 417 294 409 q 321 406 321 391 q 321 373 292 354 q 282 348 270 344 q 259 340 247 339 q 228 334 217 336 q 208 336 198 340 q 189 334 181 334 l 178 334 q 169 337 163 339 l 168 339 q 180 339 187 345 l 187 346 q 177 340 165 340 q 148 340 139 349 q 124 360 124 381 q 124 387 126 392 q 127 397 130 405 q 141 427 166 444 q 174 451 182 454 q 190 456 198 457 q 214 457 220 451 q 213 456 205 456 q 196 456 186 450 q 171 444 169 441 q 154 433 139 415 q 126 394 126 379 q 126 372 128 368 q 129 363 132 358 q 138 349 148 346 q 153 345 156 344 q 159 343 162 343 q 168 343 172 344 q 177 346 183 349 q 166 361 166 382 q 169 402 190 417 l 187 412 q 184 412 181 406 q 172 397 172 387 q 172 367 195 354 q 207 361 207 363 q 210 367 213 370 q 216 373 219 376 q 222 379 222 384 q 223 388 226 393 l 226 391 q 226 384 225 379 l 243 400 q 289 453 319 462 q 306 466 298 466 q 279 465 256 453 q 229 439 229 420 q 229 414 234 409 q 235 408 235 406 q 226 412 226 421 q 226 438 246 454 q 270 472 297 469 q 306 469 324 463 l 330 463 q 337 463 342 460 z m 346 363 q 345 357 334 346 q 324 340 316 340 q 309 340 309 349 q 309 357 318 369 l 316 369 q 315 367 310 367 q 310 367 309 369 q 313 369 324 379 l 325 379 l 330 385 q 334 390 334 393 l 339 393 q 343 393 343 391 q 343 385 334 375 l 324 364 q 315 351 315 346 q 315 342 321 342 q 328 342 339 357 q 340 358 342 359 q 343 360 346 363 z m 354 405 q 348 396 339 396 q 334 396 328 400 l 333 400 q 343 400 346 411 l 346 414 l 354 411 q 355 409 354 405 z m 406 433 q 406 426 360 370 l 358 370 q 345 354 345 345 q 345 340 349 340 q 358 340 369 355 q 370 357 372 358 q 373 358 375 361 q 375 354 363 345 q 355 339 346 339 q 337 340 337 348 q 336 355 367 394 l 385 417 l 394 426 q 399 432 402 441 q 406 438 406 433 z m 432 433 q 432 427 384 370 q 369 352 369 345 q 369 340 375 340 q 381 340 394 355 l 400 361 q 399 354 387 345 q 379 339 370 339 q 361 340 361 348 q 361 357 391 394 l 409 417 l 418 426 q 426 435 427 441 q 432 438 432 433 z m 403 333 q 379 328 366 315 q 355 301 355 298 q 355 292 361 292 q 363 291 372 294 q 375 297 378 300 q 382 304 387 309 z m 447 430 q 444 409 427 393 q 427 391 426 391 q 426 391 426 390 q 421 384 416 378 q 411 373 406 366 q 403 363 403 360 q 402 363 405 369 q 396 355 396 348 q 396 343 400 343 q 402 343 408 346 q 430 364 439 397 l 439 393 l 439 388 q 442 385 442 381 q 442 378 435 366 l 423 346 l 409 328 q 414 331 426 337 l 424 336 q 421 333 416 329 q 411 325 406 318 l 394 303 l 388 295 q 379 286 369 283 q 360 283 355 289 q 346 292 352 303 q 354 304 356 307 q 357 310 360 313 l 361 315 l 351 313 q 376 331 393 333 q 394 333 396 334 q 397 334 399 334 l 400 334 l 403 334 l 412 348 q 406 342 402 341 q 397 340 394 340 q 387 340 387 348 q 387 366 418 394 l 421 396 l 436 411 q 439 417 442 422 q 445 426 447 430 z m 618 453 q 609 456 603 456 q 588 456 575 452 q 562 448 549 441 q 543 438 539 434 q 535 430 531 427 q 549 426 579 408 q 612 441 636 450 z m 649 447 q 643 445 636 443 q 630 441 622 433 q 618 430 600 412 l 589 402 l 604 393 q 607 397 613 404 q 619 411 627 420 z m 663 472 q 663 471 661 469 q 661 459 657 448 l 658 447 l 657 447 q 649 429 637 417 l 613 388 q 616 387 618 387 q 619 387 622 385 q 622 382 621 382 q 618 382 616 383 q 615 384 612 385 q 594 366 592 349 q 589 343 589 340 q 589 334 595 334 q 607 334 621 354 l 627 363 q 642 384 646 400 l 646 405 q 646 403 648 402 l 648 400 q 645 379 633 361 l 613 322 q 613 328 618 342 q 600 328 591 328 q 577 328 580 346 q 580 355 586 366 q 592 378 601 391 l 586 399 l 573 385 q 568 379 560 370 q 552 361 540 346 q 516 322 498 322 l 493 322 q 489 322 480 327 q 480 327 483 327 q 496 324 510 337 q 498 331 481 331 q 465 331 454 339 l 456 339 q 441 349 441 370 q 441 385 447 393 q 456 417 481 433 q 490 441 498 443 q 507 445 516 447 q 531 447 537 441 l 535 441 q 532 444 522 444 q 507 444 484 430 q 468 418 456 405 q 442 384 442 367 q 442 343 465 336 q 474 333 478 333 q 510 334 547 375 l 576 405 q 553 418 525 418 l 523 418 q 520 412 520 405 q 522 405 528 396 q 517 402 517 411 q 517 415 519 418 q 504 415 499 412 q 472 402 475 381 q 475 367 484 357 l 487 354 q 469 372 469 385 q 469 405 487 418 q 502 429 525 429 q 546 453 577 457 q 585 459 601 459 q 609 459 624 456 l 642 451 l 651 451 l 652 450 q 658 460 661 475 l 663 475 z m 682 375 q 682 370 681 367 q 673 360 668 354 q 663 348 658 340 l 660 340 l 661 340 q 660 339 658 339 q 657 339 657 337 q 649 337 649 340 q 649 346 663 360 q 673 373 673 376 q 675 381 669 385 q 651 360 637 354 l 631 351 l 628 352 q 634 352 648 367 q 661 379 666 387 q 666 388 665 388 q 664 388 664 390 q 664 391 675 400 q 675 402 676 402 l 678 400 q 678 399 670 388 q 682 384 682 375 z m 726 379 q 726 388 720 385 q 714 385 711 382 q 706 379 697 367 q 688 355 688 348 q 687 345 691 345 q 700 348 706 355 q 712 367 712 372 q 712 375 711 375 q 717 375 717 367 l 715 364 q 718 367 720 371 q 723 375 726 378 z m 754 393 q 748 393 741 385 q 735 378 729 369 q 723 360 715 348 q 708 333 702 324 q 696 316 694 313 q 675 289 664 289 q 655 288 651 295 q 651 303 651 303 q 651 310 657 316 q 654 315 649 315 q 664 330 682 334 q 684 334 684 335 q 685 336 688 336 l 690 334 q 661 325 655 307 q 654 304 654 300 q 654 298 655 297 q 655 295 657 295 q 669 294 685 318 l 696 333 l 702 342 q 697 340 694 340 q 682 340 682 352 q 682 366 702 384 q 711 393 718 393 q 729 393 729 381 l 730 381 l 738 390 q 745 397 751 397 q 756 397 759 393 z m 781 382 q 781 373 765 364 q 763 363 762 363 l 760 363 q 756 363 751 370 q 754 367 759 367 q 769 373 772 384 l 772 387 l 772 388 l 772 390 q 766 390 753 376 l 753 375 q 748 369 748 365 q 747 361 747 358 q 745 360 745 367 q 742 361 741 357 q 738 351 738 346 q 738 345 739 343 q 739 340 745 340 q 760 346 771 355 q 774 358 778 361 q 775 357 772 353 q 769 349 762 345 q 750 337 741 340 q 741 339 739 340 q 730 340 730 349 q 730 364 747 379 q 756 393 771 393 q 774 393 775 391 q 781 387 781 382 z m 841 433 q 841 427 793 370 q 780 354 780 345 q 780 340 784 340 q 793 340 804 355 q 805 357 806 358 q 808 358 810 361 q 810 354 798 345 q 790 339 780 339 q 772 342 772 348 q 772 360 801 394 l 819 417 l 828 426 q 837 435 837 441 q 841 438 841 433 z m 922 387 q 897 396 895 415 q 888 411 880 407 q 873 403 868 399 q 840 372 840 349 q 840 340 844 339 l 847 339 l 850 339 q 873 339 892 354 q 898 360 906 368 q 915 375 922 387 z m 952 430 l 940 430 q 922 429 897 417 q 900 396 925 391 l 936 405 z m 979 457 q 960 457 944 454 q 928 451 916 444 q 924 451 935 456 q 946 460 960 463 q 930 465 907 445 q 903 442 897 430 q 907 433 917 434 q 927 436 939 435 q 942 435 946 435 q 951 435 958 433 q 961 438 966 444 q 972 450 979 457 z m 1074 459 q 1071 454 1067 450 q 1063 447 1056 444 q 1044 436 1033 436 l 1030 436 q 1029 436 1027 438 q 1029 439 1029 440 q 1029 442 1032 445 q 1018 456 994 456 l 988 448 l 973 430 q 985 429 996 428 q 1006 426 1015 426 q 1036 426 1044 430 q 1038 424 1021 421 q 1008 418 994 423 l 970 427 q 964 420 959 414 q 954 409 951 403 l 940 388 l 948 388 q 985 391 991 406 l 993 406 q 988 397 973 390 q 966 387 959 386 q 952 384 946 384 l 939 384 q 928 372 922 363 q 915 354 909 348 q 889 327 873 327 q 865 328 856 328 q 871 328 888 343 q 867 334 855 334 l 846 336 l 858 324 q 846 330 838 337 q 837 337 831 340 q 813 354 811 375 q 811 382 811 388 q 811 394 814 400 q 819 414 826 424 q 834 433 844 444 q 870 466 889 466 q 900 466 907 460 l 906 459 q 901 463 892 463 q 873 460 852 444 q 834 429 825 414 q 813 393 813 375 q 816 348 837 340 q 834 349 835 358 q 838 381 852 397 q 868 418 897 430 q 900 433 900 439 l 913 453 q 933 469 964 469 q 972 469 977 469 q 982 469 990 468 l 991 468 q 1002 475 1010 479 q 1018 483 1027 481 q 1033 481 1036 478 q 1020 475 1020 475 q 1017 474 1013 472 q 1009 471 1005 468 q 1011 466 1017 466 q 1023 465 1030 462 q 1045 457 1054 457 q 1068 457 1074 459 z m 982 354 q 978 358 978 364 q 978 367 978 370 q 979 372 979 375 q 964 355 966 346 q 966 343 969 343 q 972 343 982 354 z m 1002 385 q 1002 388 999 388 q 996 388 993 387 q 991 385 988 379 q 981 364 981 360 q 981 355 982 354 l 987 358 l 987 360 l 987 358 q 988 360 988 360 q 988 361 990 363 q 993 372 993 375 q 993 376 991 378 q 994 372 994 370 q 999 375 1002 385 z m 1008 381 q 1008 373 997 358 q 984 345 978 340 l 966 340 q 957 340 957 348 q 957 360 973 379 q 984 393 997 393 q 1008 393 1008 381 z m 1057 384 q 1059 381 1051 367 q 1042 355 1039 352 l 1021 336 q 1011 325 1008 313 q 1009 331 1021 345 q 1027 351 1030 356 q 1033 360 1036 366 q 1038 367 1039 372 l 1039 367 q 1039 367 1038 364 q 1041 367 1047 379 q 1047 381 1048 382 q 1048 382 1048 384 q 1048 391 1041 388 q 1041 388 1029 379 q 1026 372 1020 366 q 1015 361 1009 354 q 1002 345 1000 340 q 999 339 993 327 q 993 330 992 334 q 991 337 993 340 q 996 351 1006 361 l 1015 372 q 1023 382 1023 388 q 1023 390 1022 392 q 1021 393 1021 394 q 1030 391 1030 385 q 1039 393 1050 393 q 1056 390 1057 384 z m 1116 405 l 1093 405 q 1092 402 1084 393 q 1075 384 1063 367 q 1060 367 1057 360 q 1051 352 1051 345 q 1051 340 1054 340 q 1062 340 1075 355 l 1077 357 q 1078 358 1078 359 q 1078 360 1080 361 q 1080 354 1069 345 q 1062 339 1051 339 q 1044 342 1042 348 q 1042 351 1048 363 l 1066 384 l 1083 405 l 1057 408 q 1051 409 1042 409 l 1029 409 q 1011 409 993 402 l 991 402 q 1006 417 1038 417 q 1039 417 1050 414 q 1062 412 1083 409 l 1087 408 q 1092 415 1096 420 q 1099 426 1102 430 q 1105 429 1105 423 q 1105 418 1102 415 l 1096 406 l 1108 405 l 1117 405 l 1119 405 l 1123 405 z m 1126 385 q 1126 381 1116 376 l 1114 375 q 1119 379 1119 387 l 1119 393 l 1114 393 q 1107 393 1105 387 q 1105 384 1110 361 q 1111 340 1086 340 q 1072 340 1069 349 q 1068 351 1068 354 q 1068 366 1086 369 l 1092 367 l 1089 367 q 1083 367 1080 364 q 1075 357 1075 354 q 1075 342 1087 342 q 1099 342 1099 358 q 1099 366 1098 370 q 1096 375 1096 381 q 1096 396 1110 396 q 1113 396 1114 395 q 1116 394 1119 394 q 1125 391 1125 390 q 1126 388 1126 385 z"},"J":{"x_min":0,"x_max":768,"ha":768,"o":"m 1271 913 q 1265 880 1253 857 q 1241 834 1224 818 q 1208 803 1188 794 q 1168 784 1146 779 q 1086 722 1030 643 q 973 564 907 466 l 891 444 q 848 379 798 310 q 747 240 690 174 q 633 108 570 48 q 508 -11 442 -57 q 375 -103 305 -130 q 235 -158 162 -161 q 118 -161 86 -144 q 54 -126 34 -96 q 14 -65 7 -22 q 0 20 6 71 q 17 132 48 202 q 79 273 134 346 q 192 422 278 487 q 363 552 454 598 q 472 627 498 658 q 524 688 553 712 q 604 752 654 780 q 703 809 758 828 q 813 847 876 857 q 938 867 1013 870 l 1056 871 q 1115 874 1166 880 q 1217 886 1271 913 z m 533 634 q 594 658 647 670 q 700 682 740 680 q 784 682 800 659 q 816 636 809 597 q 805 570 791 537 q 777 504 756 466 q 734 429 706 390 q 677 350 643 310 q 616 278 582 242 q 547 207 508 176 q 468 146 425 124 q 382 101 338 95 q 306 92 285 97 q 264 102 252 114 q 240 125 236 141 q 233 157 236 176 q 241 207 262 242 q 283 276 314 305 q 344 334 381 354 q 418 373 454 373 q 463 373 472 366 q 482 360 490 350 q 497 339 501 324 q 505 309 503 293 q 487 304 474 309 q 461 314 450 314 q 423 314 394 300 q 364 285 338 264 q 313 242 296 217 q 278 192 275 171 q 272 152 288 140 q 304 129 342 133 q 366 137 400 155 q 433 173 470 200 q 507 226 544 260 q 582 293 612 328 q 678 407 719 478 q 760 549 768 593 q 773 619 764 632 q 754 646 728 644 q 687 643 619 613 q 551 583 473 531 q 462 487 480 462 q 499 437 535 437 q 541 437 547 438 q 553 438 558 439 q 570 442 584 450 q 599 459 613 475 q 627 491 640 516 q 654 540 665 575 q 686 557 693 538 q 700 518 697 498 q 694 475 680 451 q 667 427 648 408 q 628 388 606 375 q 583 362 561 360 q 553 359 546 358 q 540 358 533 358 q 498 358 474 368 q 451 379 437 398 q 423 416 418 441 q 414 466 418 494 q 363 456 311 410 q 259 364 213 313 q 184 280 158 242 q 132 205 111 166 q 90 128 76 90 q 61 53 55 19 q 46 -40 70 -78 q 94 -116 165 -117 q 214 -118 262 -99 q 310 -80 358 -46 q 405 -12 451 35 q 497 82 543 137 q 589 192 634 252 q 680 312 725 373 q 767 431 810 488 q 853 545 896 596 q 938 648 981 692 q 1024 736 1067 768 q 1050 766 1034 766 q 1019 766 1002 766 q 985 766 968 766 q 952 767 935 768 l 866 768 q 829 768 794 765 q 758 762 723 753 q 688 744 653 727 q 618 710 584 682 l 584 683 q 570 671 557 658 q 544 646 533 634 z"},"V":{"x_min":0,"x_max":1008,"ha":1008,"o":"m 1634 889 q 1550 875 1470 820 q 1391 766 1316 687 q 1240 608 1168 512 q 1095 417 1025 320 q 957 228 890 142 q 824 56 757 -12 q 690 -79 624 -120 q 557 -162 491 -165 q 465 -164 442 -158 q 420 -151 404 -138 q 388 -124 380 -104 q 372 -83 375 -55 q 380 -19 402 26 q 424 70 458 120 q 491 169 532 222 q 573 276 616 331 q 655 380 694 430 q 732 479 765 526 q 798 574 822 618 q 847 662 858 700 q 863 716 865 734 q 869 774 850 799 q 830 824 779 823 q 733 822 686 808 q 640 793 594 768 q 549 742 506 709 q 462 676 422 640 q 383 603 348 565 q 313 527 285 492 q 209 387 166 301 q 122 215 115 156 q 111 115 127 92 q 143 68 181 66 q 216 64 264 90 q 312 117 364 161 q 417 205 468 260 q 520 316 562 373 q 604 430 632 482 q 659 534 663 570 q 665 593 656 606 q 647 620 622 621 q 586 623 548 604 q 509 585 476 555 q 443 525 420 490 q 398 454 395 424 q 395 405 402 383 q 359 383 342 398 q 324 414 326 439 q 330 467 357 504 q 384 541 426 574 q 469 608 522 632 q 575 657 630 661 q 675 660 694 638 q 714 616 709 581 q 705 546 685 503 q 665 460 638 417 q 612 374 584 336 q 556 299 535 276 q 491 228 446 184 q 401 139 356 104 q 311 70 266 49 q 220 28 177 27 q 133 26 105 38 q 77 49 61 70 q 45 91 40 120 q 36 149 39 182 q 43 221 58 265 q 73 309 94 352 q 114 394 138 434 q 163 473 187 503 q 249 580 318 646 q 387 711 462 759 q 537 807 618 835 q 698 863 783 865 q 833 866 867 854 q 901 842 920 819 q 939 796 944 764 q 950 732 943 694 q 935 646 909 591 q 883 536 845 478 q 807 419 762 359 q 717 299 672 241 q 637 196 604 152 q 572 109 546 70 q 519 30 500 -4 q 482 -39 475 -66 q 474 -75 474 -86 q 474 -96 476 -104 q 478 -113 483 -118 q 488 -123 496 -123 q 530 -122 571 -90 q 612 -59 659 -6 q 706 48 758 118 q 811 189 868 267 q 919 338 973 412 q 1027 486 1084 556 q 1141 625 1200 687 q 1258 749 1319 796 q 1380 844 1442 874 q 1504 903 1567 908 q 1585 910 1601 905 q 1617 900 1634 889 z"},"7":{"x_min":0,"x_max":1219,"ha":1219,"o":"m 876 781 l 739 657 l 775 471 l 615 565 l 450 471 l 489 652 l 351 781 l 537 801 l 615 972 l 690 802 z m 682 576 l 639 834 l 586 834 l 541 576 l 564 562 l 583 576 l 592 634 l 631 634 l 642 576 l 663 562 z m 628 672 l 598 672 l 612 774 z m 610 21 l 631 21 l 624 39 q 622 42 622 44 q 622 46 619 49 q 619 45 616 39 z m 352 -5 l 352 3 l 363 3 l 363 -5 z m 844 -5 l 844 58 l 852 58 l 852 1 l 883 1 l 883 -5 z m 787 -5 l 787 58 l 832 58 l 832 49 l 795 49 l 795 30 l 829 30 l 829 22 l 795 22 l 795 1 l 832 1 l 832 -5 z m 565 -5 l 565 21 l 541 58 l 552 58 l 564 39 q 567 30 570 28 q 571 30 572 33 q 574 36 577 39 l 589 58 l 598 58 l 573 21 l 573 -5 z m 376 -5 l 376 58 l 400 58 q 403 58 406 56 q 408 55 409 55 q 415 54 417 49 q 420 46 420 40 q 420 36 417 34 q 415 28 411 28 q 415 27 420 22 q 423 16 423 13 q 423 10 422 8 q 421 7 421 6 q 420 0 415 0 q 414 -3 412 -3 q 411 -3 409 -5 l 400 -5 z m 205 -5 l 187 58 l 196 58 l 205 16 q 207 12 207 9 q 207 6 208 3 q 210 10 210 15 l 222 58 l 232 58 l 241 25 q 243 18 244 14 q 246 9 246 3 q 247 6 247 9 q 247 12 249 16 l 259 58 l 267 58 l 249 -5 l 241 -5 l 229 42 q 228 46 228 49 q 226 46 226 42 l 213 -5 z m 123 -5 l 105 58 l 115 58 l 123 16 q 123 9 127 3 q 129 10 129 15 l 141 58 l 150 58 l 160 25 q 162 18 162 14 q 163 9 163 3 q 166 6 166 9 q 166 12 168 16 l 177 58 l 186 58 l 168 -5 l 160 -5 l 148 42 q 147 46 147 49 q 144 46 144 42 l 130 -5 z m 384 30 l 397 30 q 403 30 405 33 q 409 33 409 34 q 411 36 411 40 q 411 45 409 46 l 408 46 q 406 46 406 47 q 406 48 405 48 q 403 49 396 49 l 384 49 z m 285 -5 l 268 58 l 277 58 l 286 16 q 288 12 288 9 q 288 6 291 3 q 291 9 292 11 q 292 13 292 15 l 304 58 l 313 58 l 324 25 q 325 18 326 14 q 327 9 327 3 q 330 6 330 9 q 330 12 331 16 l 342 58 l 349 58 l 331 -5 l 324 -5 l 312 42 q 310 46 310 49 q 307 46 307 42 l 294 -5 z m 664 28 l 682 28 q 685 28 688 29 q 690 30 693 30 q 696 30 696 34 q 697 36 697 40 q 697 45 694 48 q 693 49 684 49 l 664 49 z m 384 1 l 400 1 q 403 1 405 3 l 409 3 q 411 6 414 7 l 414 13 q 414 16 411 19 q 411 22 408 22 l 397 22 l 384 22 z m 435 -5 l 435 58 l 442 58 l 442 -5 z m 985 25 q 985 12 990 7 q 996 1 1006 1 q 1017 1 1021 7 q 1027 12 1027 27 q 1027 34 1026 39 q 1023 46 1018 48 q 1014 49 1006 49 q 997 49 993 45 q 985 39 985 25 z m 976 25 q 976 42 985 49 q 991 58 1006 58 q 1011 58 1014 56 q 1018 55 1021 54 q 1026 52 1028 49 q 1030 46 1033 42 q 1035 39 1035 27 q 1035 13 1032 9 q 1027 1 1021 -3 q 1015 -6 1006 -6 q 1002 -6 998 -6 q 994 -5 990 -3 q 987 0 984 3 q 982 6 981 9 q 979 13 978 17 q 976 21 976 25 z m 592 -5 l 616 58 l 625 58 l 651 -5 l 642 -5 l 634 13 l 609 13 l 600 -5 z m 459 -5 l 459 58 l 466 58 l 466 1 l 495 1 l 495 -5 z m 892 -5 l 892 3 l 903 3 l 903 -5 z m 748 19 l 748 27 l 774 27 l 774 3 q 768 -3 762 -5 q 759 -5 755 -6 q 751 -6 748 -6 q 739 -6 733 -3 q 729 0 726 2 q 723 4 721 9 q 720 13 718 17 q 717 21 717 25 q 717 31 718 34 q 720 37 721 42 q 724 51 732 54 q 735 55 740 56 q 744 58 748 58 q 756 58 760 55 q 766 54 768 49 q 772 45 774 40 l 766 39 q 766 40 762 45 q 762 48 756 49 l 748 49 l 739 49 q 735 48 732 45 q 732 43 727 39 q 727 36 726 33 q 726 30 726 27 q 726 16 729 13 q 735 4 736 3 q 741 1 748 1 q 754 1 759 3 q 762 6 764 6 q 765 6 766 7 l 766 19 z m 657 -5 l 657 58 l 684 58 q 688 58 691 56 q 694 55 697 55 q 702 54 703 49 q 706 46 706 40 q 706 33 702 28 q 700 27 696 26 q 693 25 688 22 q 691 22 692 22 q 693 21 694 21 q 696 18 696 16 q 697 13 700 10 l 712 -5 l 702 -5 l 693 7 q 690 10 689 12 q 688 15 687 16 q 687 19 686 19 q 684 19 682 21 l 681 21 q 679 21 679 22 q 679 22 678 22 l 675 22 l 664 22 l 664 -5 z m 505 -5 l 505 58 l 514 58 l 514 1 l 544 1 l 544 -5 z m 961 16 l 969 15 q 966 3 960 0 q 954 -6 943 -6 q 934 -6 928 -3 q 924 0 922 3 q 921 6 918 9 q 915 21 915 27 q 915 33 918 45 q 925 52 928 54 q 933 55 936 56 q 939 58 943 58 q 948 58 952 56 q 957 55 960 54 q 963 51 965 48 q 967 45 969 40 l 960 39 q 960 45 954 48 q 951 49 943 49 q 934 49 931 48 q 928 46 928 44 q 927 42 924 39 q 924 36 923 33 q 922 30 922 27 q 922 18 927 13 q 927 10 928 8 q 930 6 931 3 q 936 1 943 1 q 951 1 955 6 q 960 10 961 16 z m 1047 -5 l 1047 58 l 1059 58 l 1074 13 q 1074 10 1076 8 q 1077 6 1077 3 q 1077 4 1080 13 l 1093 58 l 1105 58 l 1105 -5 l 1098 -5 l 1098 46 l 1080 -5 l 1072 -5 l 1054 48 l 1054 -5 z m 610 21 l 631 21 l 624 39 q 622 42 622 44 q 622 46 619 49 q 619 45 616 39 z m 352 -5 l 352 3 l 363 3 l 363 -5 z m 844 -5 l 844 58 l 852 58 l 852 1 l 883 1 l 883 -5 z m 787 -5 l 787 58 l 832 58 l 832 49 l 795 49 l 795 30 l 829 30 l 829 22 l 795 22 l 795 1 l 832 1 l 832 -5 z m 565 -5 l 565 21 l 541 58 l 552 58 l 564 39 q 567 30 570 28 q 571 30 572 33 q 574 36 577 39 l 589 58 l 598 58 l 573 21 l 573 -5 z m 376 -5 l 376 58 l 400 58 q 403 58 406 56 q 408 55 409 55 q 415 54 417 49 q 420 46 420 40 q 420 36 417 34 q 415 28 411 28 q 415 27 420 22 q 423 16 423 13 q 423 10 422 8 q 421 7 421 6 q 420 0 415 0 q 414 -3 412 -3 q 411 -3 409 -5 l 400 -5 z m 205 -5 l 187 58 l 196 58 l 205 16 q 207 12 207 9 q 207 6 208 3 q 210 10 210 15 l 222 58 l 232 58 l 241 25 q 243 18 244 14 q 246 9 246 3 q 247 6 247 9 q 247 12 249 16 l 259 58 l 267 58 l 249 -5 l 241 -5 l 229 42 q 228 46 228 49 q 226 46 226 42 l 213 -5 z m 123 -5 l 105 58 l 115 58 l 123 16 q 123 9 127 3 q 129 10 129 15 l 141 58 l 150 58 l 160 25 q 162 18 162 14 q 163 9 163 3 q 166 6 166 9 q 166 12 168 16 l 177 58 l 186 58 l 168 -5 l 160 -5 l 148 42 q 147 46 147 49 q 144 46 144 42 l 130 -5 z m 384 30 l 397 30 q 403 30 405 33 q 409 33 409 34 q 411 36 411 40 q 411 45 409 46 l 408 46 q 406 46 406 47 q 406 48 405 48 q 403 49 396 49 l 384 49 z m 285 -5 l 268 58 l 277 58 l 286 16 q 288 12 288 9 q 288 6 291 3 q 291 9 292 11 q 292 13 292 15 l 304 58 l 313 58 l 324 25 q 325 18 326 14 q 327 9 327 3 q 330 6 330 9 q 330 12 331 16 l 342 58 l 349 58 l 331 -5 l 324 -5 l 312 42 q 310 46 310 49 q 307 46 307 42 l 294 -5 z m 664 28 l 682 28 q 685 28 688 29 q 690 30 693 30 q 696 30 696 34 q 697 36 697 40 q 697 45 694 48 q 693 49 684 49 l 664 49 z m 384 1 l 400 1 q 403 1 405 3 l 409 3 q 411 6 414 7 l 414 13 q 414 16 411 19 q 411 22 408 22 l 397 22 l 384 22 z m 435 -5 l 435 58 l 442 58 l 442 -5 z m 985 25 q 985 12 990 7 q 996 1 1006 1 q 1017 1 1021 7 q 1027 12 1027 27 q 1027 34 1026 39 q 1023 46 1018 48 q 1014 49 1006 49 q 997 49 993 45 q 985 39 985 25 z m 976 25 q 976 42 985 49 q 991 58 1006 58 q 1011 58 1014 56 q 1018 55 1021 54 q 1026 52 1028 49 q 1030 46 1033 42 q 1035 39 1035 27 q 1035 13 1032 9 q 1027 1 1021 -3 q 1015 -6 1006 -6 q 1002 -6 998 -6 q 994 -5 990 -3 q 987 0 984 3 q 982 6 981 9 q 979 13 978 17 q 976 21 976 25 z m 592 -5 l 616 58 l 625 58 l 651 -5 l 642 -5 l 634 13 l 609 13 l 600 -5 z m 459 -5 l 459 58 l 466 58 l 466 1 l 495 1 l 495 -5 z m 892 -5 l 892 3 l 903 3 l 903 -5 z m 748 19 l 748 27 l 774 27 l 774 3 q 768 -3 762 -5 q 759 -5 755 -6 q 751 -6 748 -6 q 739 -6 733 -3 q 729 0 726 2 q 723 4 721 9 q 720 13 718 17 q 717 21 717 25 q 717 31 718 34 q 720 37 721 42 q 724 51 732 54 q 735 55 740 56 q 744 58 748 58 q 756 58 760 55 q 766 54 768 49 q 772 45 774 40 l 766 39 q 766 40 762 45 q 762 48 756 49 l 748 49 l 739 49 q 735 48 732 45 q 732 43 727 39 q 727 36 726 33 q 726 30 726 27 q 726 16 729 13 q 735 4 736 3 q 741 1 748 1 q 754 1 759 3 q 762 6 764 6 q 765 6 766 7 l 766 19 z m 657 -5 l 657 58 l 684 58 q 688 58 691 56 q 694 55 697 55 q 702 54 703 49 q 706 46 706 40 q 706 33 702 28 q 700 27 696 26 q 693 25 688 22 q 691 22 692 22 q 693 21 694 21 q 696 18 696 16 q 697 13 700 10 l 712 -5 l 702 -5 l 693 7 q 690 10 689 12 q 688 15 687 16 q 687 19 686 19 q 684 19 682 21 l 681 21 q 679 21 679 22 q 679 22 678 22 l 675 22 l 664 22 l 664 -5 z m 505 -5 l 505 58 l 514 58 l 514 1 l 544 1 l 544 -5 z m 961 16 l 969 15 q 966 3 960 0 q 954 -6 943 -6 q 934 -6 928 -3 q 924 0 922 3 q 921 6 918 9 q 915 21 915 27 q 915 33 918 45 q 925 52 928 54 q 933 55 936 56 q 939 58 943 58 q 948 58 952 56 q 957 55 960 54 q 963 51 965 48 q 967 45 969 40 l 960 39 q 960 45 954 48 q 951 49 943 49 q 934 49 931 48 q 928 46 928 44 q 927 42 924 39 q 924 36 923 33 q 922 30 922 27 q 922 18 927 13 q 927 10 928 8 q 930 6 931 3 q 936 1 943 1 q 951 1 955 6 q 960 10 961 16 z m 1047 -5 l 1047 58 l 1059 58 l 1074 13 q 1074 10 1076 8 q 1077 6 1077 3 q 1077 4 1080 13 l 1093 58 l 1105 58 l 1105 -5 l 1098 -5 l 1098 46 l 1080 -5 l 1072 -5 l 1054 48 l 1054 -5 z m 610 21 l 631 21 l 624 39 q 622 42 622 44 q 622 46 619 49 q 619 45 616 39 z m 352 -5 l 352 3 l 363 3 l 363 -5 z m 844 -5 l 844 58 l 852 58 l 852 1 l 883 1 l 883 -5 z m 787 -5 l 787 58 l 832 58 l 832 49 l 795 49 l 795 30 l 829 30 l 829 22 l 795 22 l 795 1 l 832 1 l 832 -5 z m 565 -5 l 565 21 l 541 58 l 552 58 l 564 39 q 567 30 570 28 q 571 30 572 33 q 574 36 577 39 l 589 58 l 598 58 l 573 21 l 573 -5 z m 376 -5 l 376 58 l 400 58 q 403 58 406 56 q 408 55 409 55 q 415 54 417 49 q 420 46 420 40 q 420 36 417 34 q 415 28 411 28 q 415 27 420 22 q 423 16 423 13 q 423 10 422 8 q 421 7 421 6 q 420 0 415 0 q 414 -3 412 -3 q 411 -3 409 -5 l 400 -5 z m 205 -5 l 187 58 l 196 58 l 205 16 q 207 12 207 9 q 207 6 208 3 q 210 10 210 15 l 222 58 l 232 58 l 241 25 q 243 18 244 14 q 246 9 246 3 q 247 6 247 9 q 247 12 249 16 l 259 58 l 267 58 l 249 -5 l 241 -5 l 229 42 q 228 46 228 49 q 226 46 226 42 l 213 -5 z m 123 -5 l 105 58 l 115 58 l 123 16 q 123 9 127 3 q 129 10 129 15 l 141 58 l 150 58 l 160 25 q 162 18 162 14 q 163 9 163 3 q 166 6 166 9 q 166 12 168 16 l 177 58 l 186 58 l 168 -5 l 160 -5 l 148 42 q 147 46 147 49 q 144 46 144 42 l 130 -5 z m 384 30 l 397 30 q 403 30 405 33 q 409 33 409 34 q 411 36 411 40 q 411 45 409 46 l 408 46 q 406 46 406 47 q 406 48 405 48 q 403 49 396 49 l 384 49 z m 285 -5 l 268 58 l 277 58 l 286 16 q 288 12 288 9 q 288 6 291 3 q 291 9 292 11 q 292 13 292 15 l 304 58 l 313 58 l 324 25 q 325 18 326 14 q 327 9 327 3 q 330 6 330 9 q 330 12 331 16 l 342 58 l 349 58 l 331 -5 l 324 -5 l 312 42 q 310 46 310 49 q 307 46 307 42 l 294 -5 z m 664 28 l 682 28 q 685 28 688 29 q 690 30 693 30 q 696 30 696 34 q 697 36 697 40 q 697 45 694 48 q 693 49 684 49 l 664 49 z m 384 1 l 400 1 q 403 1 405 3 l 409 3 q 411 6 414 7 l 414 13 q 414 16 411 19 q 411 22 408 22 l 397 22 l 384 22 z m 435 -5 l 435 58 l 442 58 l 442 -5 z m 985 25 q 985 12 990 7 q 996 1 1006 1 q 1017 1 1021 7 q 1027 12 1027 27 q 1027 34 1026 39 q 1023 46 1018 48 q 1014 49 1006 49 q 997 49 993 45 q 985 39 985 25 z m 976 25 q 976 42 985 49 q 991 58 1006 58 q 1011 58 1014 56 q 1018 55 1021 54 q 1026 52 1028 49 q 1030 46 1033 42 q 1035 39 1035 27 q 1035 13 1032 9 q 1027 1 1021 -3 q 1015 -6 1006 -6 q 1002 -6 998 -6 q 994 -5 990 -3 q 987 0 984 3 q 982 6 981 9 q 979 13 978 17 q 976 21 976 25 z m 592 -5 l 616 58 l 625 58 l 651 -5 l 642 -5 l 634 13 l 609 13 l 600 -5 z m 459 -5 l 459 58 l 466 58 l 466 1 l 495 1 l 495 -5 z m 892 -5 l 892 3 l 903 3 l 903 -5 z m 748 19 l 748 27 l 774 27 l 774 3 q 768 -3 762 -5 q 759 -5 755 -6 q 751 -6 748 -6 q 739 -6 733 -3 q 729 0 726 2 q 723 4 721 9 q 720 13 718 17 q 717 21 717 25 q 717 31 718 34 q 720 37 721 42 q 724 51 732 54 q 735 55 740 56 q 744 58 748 58 q 756 58 760 55 q 766 54 768 49 q 772 45 774 40 l 766 39 q 766 40 762 45 q 762 48 756 49 l 748 49 l 739 49 q 735 48 732 45 q 732 43 727 39 q 727 36 726 33 q 726 30 726 27 q 726 16 729 13 q 735 4 736 3 q 741 1 748 1 q 754 1 759 3 q 762 6 764 6 q 765 6 766 7 l 766 19 z m 657 -5 l 657 58 l 684 58 q 688 58 691 56 q 694 55 697 55 q 702 54 703 49 q 706 46 706 40 q 706 33 702 28 q 700 27 696 26 q 693 25 688 22 q 691 22 692 22 q 693 21 694 21 q 696 18 696 16 q 697 13 700 10 l 712 -5 l 702 -5 l 693 7 q 690 10 689 12 q 688 15 687 16 q 687 19 686 19 q 684 19 682 21 l 681 21 q 679 21 679 22 q 679 22 678 22 l 675 22 l 664 22 l 664 -5 z m 505 -5 l 505 58 l 514 58 l 514 1 l 544 1 l 544 -5 z m 961 16 l 969 15 q 966 3 960 0 q 954 -6 943 -6 q 934 -6 928 -3 q 924 0 922 3 q 921 6 918 9 q 915 21 915 27 q 915 33 918 45 q 925 52 928 54 q 933 55 936 56 q 939 58 943 58 q 948 58 952 56 q 957 55 960 54 q 963 51 965 48 q 967 45 969 40 l 960 39 q 960 45 954 48 q 951 49 943 49 q 934 49 931 48 q 928 46 928 44 q 927 42 924 39 q 924 36 923 33 q 922 30 922 27 q 922 18 927 13 q 927 10 928 8 q 930 6 931 3 q 936 1 943 1 q 951 1 955 6 q 960 10 961 16 z m 1047 -5 l 1047 58 l 1059 58 l 1074 13 q 1074 10 1076 8 q 1077 6 1077 3 q 1077 4 1080 13 l 1093 58 l 1105 58 l 1105 -5 l 1098 -5 l 1098 46 l 1080 -5 l 1072 -5 l 1054 48 l 1054 -5 z m 175 111 l 187 106 q 184 93 174 84 q 162 75 148 75 q 135 75 123 81 q 111 90 109 99 q 103 109 103 124 q 103 141 109 151 q 114 162 124 166 q 135 172 148 172 q 165 172 171 165 q 181 162 186 145 l 174 144 q 168 156 163 157 q 157 163 148 163 q 136 163 130 157 q 121 151 118 144 q 117 138 117 124 q 117 111 121 105 q 124 94 130 91 q 138 85 147 85 q 159 85 166 93 q 169 96 172 100 q 174 105 175 111 z m 199 123 q 199 135 202 144 q 205 153 213 159 q 219 166 227 169 q 235 172 244 172 q 258 172 268 166 q 277 162 285 150 q 291 135 291 124 q 291 117 290 111 q 288 105 285 99 q 277 87 267 81 q 255 75 244 75 q 237 75 232 76 q 226 78 220 81 q 210 87 205 99 q 199 109 199 123 z m 213 123 q 213 105 220 94 q 231 85 244 85 q 259 85 267 97 q 277 108 277 124 q 277 130 276 134 q 274 139 273 144 q 270 154 261 157 q 256 163 244 163 q 232 163 222 153 q 213 145 213 123 z m 306 78 l 306 171 l 324 171 l 346 105 q 351 96 351 91 q 354 94 357 106 l 381 171 l 396 171 l 396 78 l 384 78 l 384 156 l 357 78 l 345 78 l 318 157 l 318 78 z m 417 78 l 417 171 l 453 171 l 466 171 q 474 171 478 166 q 480 165 486 157 q 487 154 488 151 q 489 148 489 144 q 489 135 481 124 q 474 117 453 117 l 429 117 l 429 78 z m 429 126 l 454 126 q 468 126 469 132 q 475 133 475 144 q 475 151 474 153 q 468 159 463 159 q 462 162 453 162 l 429 162 z m 505 78 l 505 171 l 517 171 l 517 87 l 564 87 l 564 78 z m 579 78 l 579 171 l 648 171 l 648 162 l 591 162 l 591 132 l 643 132 l 643 120 l 591 120 l 591 87 l 649 87 l 649 78 z m 690 78 l 690 162 l 658 162 l 658 171 l 735 171 l 735 162 l 703 162 l 703 78 z m 748 78 l 748 171 l 817 171 l 817 162 l 760 162 l 760 132 l 813 132 l 813 120 l 760 120 l 760 87 l 819 87 l 819 78 z m 870 106 l 882 108 q 882 100 885 97 q 888 91 895 88 q 898 87 909 87 q 912 87 916 87 q 919 87 922 88 q 927 88 930 94 q 931 97 931 103 q 931 108 930 111 q 928 112 926 113 q 924 114 921 117 q 919 117 904 120 q 897 123 892 124 q 888 124 885 126 q 879 129 876 136 q 873 138 872 141 q 871 144 871 147 q 871 156 877 162 q 879 165 882 166 q 885 168 889 171 q 892 172 907 172 q 918 172 924 169 q 928 166 931 164 q 934 163 936 159 q 942 154 942 145 l 930 144 q 927 156 922 157 q 918 162 907 162 q 892 162 889 157 q 885 153 885 147 q 885 142 889 139 q 889 139 907 132 q 915 130 920 128 q 925 127 928 126 q 933 124 935 122 q 937 120 940 117 q 943 112 943 103 q 943 93 940 88 q 934 82 928 79 q 924 78 920 76 q 915 75 909 75 q 903 75 897 76 q 891 78 888 79 q 880 81 873 91 q 870 97 870 106 z m 961 78 l 961 171 l 1029 171 l 1029 162 l 975 162 l 975 132 l 1027 132 l 1027 120 l 975 120 l 975 87 l 1032 87 l 1032 78 z m 1074 78 l 1074 162 l 1044 162 l 1044 171 l 1117 171 l 1117 162 l 1086 162 l 1086 78 z m 112 190 l 112 283 l 150 283 l 163 283 q 166 283 175 280 q 177 279 179 276 q 181 273 183 270 q 186 267 186 259 q 186 246 177 237 q 172 229 150 229 l 127 229 l 127 190 z m 127 241 l 150 241 q 163 241 168 244 q 174 250 174 256 q 174 259 172 262 q 171 265 169 268 q 165 273 162 273 q 160 274 150 274 l 127 274 z m 201 190 l 201 283 l 268 283 l 268 274 l 214 274 l 214 244 l 265 244 l 265 234 l 214 234 l 214 202 l 271 202 l 271 190 z m 288 190 l 288 283 l 331 283 q 345 283 351 282 q 358 279 361 274 q 364 262 364 259 q 364 249 358 243 q 352 237 337 234 q 340 231 342 231 q 343 231 345 229 q 352 222 355 216 l 372 190 l 357 190 l 343 210 q 342 214 340 217 q 337 220 336 223 q 333 225 332 227 q 331 229 330 229 q 327 231 324 231 q 322 234 316 234 l 303 234 l 303 190 z m 303 243 l 327 243 q 339 243 342 244 q 346 249 349 250 q 351 253 351 259 q 351 265 346 270 q 342 274 331 274 l 303 274 z m 381 222 l 391 222 q 391 219 392 216 q 394 213 396 210 q 397 208 400 206 q 402 204 405 204 q 414 201 420 201 q 423 201 426 201 q 429 201 430 202 q 439 205 441 208 q 441 210 442 212 q 442 214 442 216 q 442 222 441 223 q 436 226 430 229 q 429 231 425 231 q 421 231 415 234 q 402 235 396 240 q 388 246 385 249 q 384 253 384 261 q 384 264 384 268 q 385 271 388 274 q 390 280 400 283 q 403 286 417 286 q 429 286 435 283 q 444 279 447 273 q 453 264 453 259 l 441 256 q 438 267 433 270 q 427 276 417 276 q 405 276 400 270 q 396 267 396 261 q 396 255 400 253 q 402 250 417 247 q 430 241 439 241 q 442 238 445 236 q 448 234 450 231 q 454 226 454 217 q 454 210 450 204 q 447 199 444 197 q 442 195 439 192 q 427 189 420 189 q 409 189 397 192 q 393 195 390 197 q 387 199 384 204 q 382 208 382 212 q 381 216 381 222 z m 468 237 q 468 258 480 273 q 493 286 513 286 q 519 286 524 284 q 529 283 537 280 q 543 277 546 272 q 549 268 552 262 q 558 252 558 237 q 558 223 552 211 q 546 201 537 195 q 525 189 513 189 q 499 189 489 196 q 475 204 474 214 q 468 222 468 237 z m 480 237 q 480 219 489 210 q 498 201 513 201 q 528 201 537 210 q 544 220 544 237 q 544 243 544 249 q 543 255 540 259 q 535 267 531 270 q 523 276 513 276 q 505 276 500 274 q 496 271 489 267 q 480 258 480 237 z m 573 190 l 573 283 l 586 283 l 636 211 l 636 283 l 648 283 l 648 190 l 636 190 l 585 264 l 585 190 z m 658 190 l 694 283 l 708 283 l 747 190 l 732 190 l 721 220 l 682 220 l 670 190 z m 684 229 l 717 229 l 708 255 q 705 261 704 266 q 702 271 700 274 q 700 270 698 266 q 697 261 696 256 z m 754 190 l 754 283 l 768 283 l 768 202 l 814 202 l 814 190 z m 922 283 l 934 283 l 934 231 q 934 214 931 208 q 928 199 921 195 q 913 189 898 189 q 883 189 877 195 q 873 196 870 200 q 867 204 864 208 q 862 211 862 231 l 862 283 l 873 283 l 873 231 q 873 216 876 211 q 879 205 883 204 q 886 202 889 202 q 892 201 897 201 q 909 201 916 205 q 922 211 922 231 z m 951 222 l 963 222 q 963 219 964 216 q 966 213 967 210 q 969 208 971 206 q 973 204 976 204 q 985 201 990 201 q 1000 201 1005 202 q 1008 204 1012 208 q 1014 210 1014 216 q 1014 222 1012 223 q 1009 225 1008 226 q 1008 228 1005 229 q 1002 231 998 231 q 993 231 987 234 q 981 235 976 236 q 970 237 969 240 q 961 243 960 249 q 955 253 955 261 q 955 267 960 274 q 961 280 970 283 q 976 286 988 286 q 993 286 998 286 q 1003 286 1006 283 q 1015 279 1020 273 q 1021 270 1022 266 q 1024 262 1024 259 l 1012 256 q 1009 261 1008 264 q 1008 268 1005 270 q 1000 276 988 276 q 975 276 973 270 q 967 268 967 261 q 967 256 970 253 q 973 250 988 247 q 1005 241 1009 241 q 1014 238 1017 236 q 1020 234 1021 231 q 1026 228 1026 217 q 1026 208 1021 204 q 1018 199 1016 197 q 1014 195 1009 192 q 1000 189 993 189 q 985 189 980 190 q 975 190 970 192 q 967 195 964 197 q 960 199 957 204 q 954 208 952 212 q 951 216 951 222 z m 1044 190 l 1044 283 l 1111 283 l 1111 274 l 1057 274 l 1057 244 l 1107 244 l 1107 234 l 1057 234 l 1057 202 l 1113 202 l 1113 190 z m 307 388 q 307 403 285 406 q 282 406 278 407 q 273 408 267 408 l 258 397 l 234 372 q 228 364 222 358 q 217 352 210 348 q 219 345 232 343 q 235 343 240 343 q 246 343 250 345 q 273 346 285 357 q 307 375 307 388 z m 324 433 q 324 439 316 439 q 313 439 291 432 l 274 417 q 271 414 268 408 l 294 412 q 300 412 310 420 q 324 429 324 433 z m 343 460 q 343 457 339 457 q 336 457 335 458 q 334 459 331 459 q 316 456 297 436 q 300 439 304 440 q 307 442 310 444 q 321 445 330 444 q 336 444 336 436 l 336 430 q 328 417 294 409 q 321 406 321 391 q 321 373 292 354 q 282 348 270 344 q 259 340 247 339 q 228 334 217 336 q 208 336 198 340 q 189 334 181 334 l 178 334 q 169 337 163 339 l 168 339 q 180 339 187 345 l 187 346 q 177 340 165 340 q 148 340 139 349 q 124 360 124 381 q 124 387 126 392 q 127 397 130 405 q 141 427 166 444 q 174 451 182 454 q 190 456 198 457 q 214 457 220 451 q 213 456 205 456 q 196 456 186 450 q 171 444 169 441 q 154 433 139 415 q 126 394 126 379 q 126 372 128 368 q 129 363 132 358 q 138 349 148 346 q 153 345 156 344 q 159 343 162 343 q 168 343 172 344 q 177 346 183 349 q 166 361 166 382 q 169 402 190 417 l 187 412 q 184 412 181 406 q 172 397 172 387 q 172 367 195 354 q 207 361 207 363 q 210 367 213 370 q 216 373 219 376 q 222 379 222 384 q 223 388 226 393 l 226 391 q 226 384 225 379 l 243 400 q 289 453 319 462 q 306 466 298 466 q 279 465 256 453 q 229 439 229 420 q 229 414 234 409 q 235 408 235 406 q 226 412 226 421 q 226 438 246 454 q 270 472 297 469 q 306 469 324 463 l 330 463 q 337 463 342 460 z m 346 363 q 345 357 334 346 q 324 340 316 340 q 309 340 309 349 q 309 357 318 369 l 316 369 q 315 367 310 367 q 310 367 309 369 q 313 369 324 379 l 325 379 l 330 385 q 334 390 334 393 l 339 393 q 343 393 343 391 q 343 385 334 375 l 324 364 q 315 351 315 346 q 315 342 321 342 q 328 342 339 357 q 340 358 342 359 q 343 360 346 363 z m 354 405 q 348 396 339 396 q 334 396 328 400 l 333 400 q 343 400 346 411 l 346 414 l 354 411 q 355 409 354 405 z m 406 433 q 406 426 360 370 l 358 370 q 345 354 345 345 q 345 340 349 340 q 358 340 369 355 q 370 357 372 358 q 373 358 375 361 q 375 354 363 345 q 355 339 346 339 q 337 340 337 348 q 336 355 367 394 l 385 417 l 394 426 q 399 432 402 441 q 406 438 406 433 z m 432 433 q 432 427 384 370 q 369 352 369 345 q 369 340 375 340 q 381 340 394 355 l 400 361 q 399 354 387 345 q 379 339 370 339 q 361 340 361 348 q 361 357 391 394 l 409 417 l 418 426 q 426 435 427 441 q 432 438 432 433 z m 403 333 q 379 328 366 315 q 355 301 355 298 q 355 292 361 292 q 363 291 372 294 q 375 297 378 300 q 382 304 387 309 z m 447 430 q 444 409 427 393 q 427 391 426 391 q 426 391 426 390 q 421 384 416 378 q 411 373 406 366 q 403 363 403 360 q 402 363 405 369 q 396 355 396 348 q 396 343 400 343 q 402 343 408 346 q 430 364 439 397 l 439 393 l 439 388 q 442 385 442 381 q 442 378 435 366 l 423 346 l 409 328 q 414 331 426 337 l 424 336 q 421 333 416 329 q 411 325 406 318 l 394 303 l 388 295 q 379 286 369 283 q 360 283 355 289 q 346 292 352 303 q 354 304 356 307 q 357 310 360 313 l 361 315 l 351 313 q 376 331 393 333 q 394 333 396 334 q 397 334 399 334 l 400 334 l 403 334 l 412 348 q 406 342 402 341 q 397 340 394 340 q 387 340 387 348 q 387 366 418 394 l 421 396 l 436 411 q 439 417 442 422 q 445 426 447 430 z m 618 453 q 609 456 603 456 q 588 456 575 452 q 562 448 549 441 q 543 438 539 434 q 535 430 531 427 q 549 426 579 408 q 612 441 636 450 z m 649 447 q 643 445 636 443 q 630 441 622 433 q 618 430 600 412 l 589 402 l 604 393 q 607 397 613 404 q 619 411 627 420 z m 663 472 q 663 471 661 469 q 661 459 657 448 l 658 447 l 657 447 q 649 429 637 417 l 613 388 q 616 387 618 387 q 619 387 622 385 q 622 382 621 382 q 618 382 616 383 q 615 384 612 385 q 594 366 592 349 q 589 343 589 340 q 589 334 595 334 q 607 334 621 354 l 627 363 q 642 384 646 400 l 646 405 q 646 403 648 402 l 648 400 q 645 379 633 361 l 613 322 q 613 328 618 342 q 600 328 591 328 q 577 328 580 346 q 580 355 586 366 q 592 378 601 391 l 586 399 l 573 385 q 568 379 560 370 q 552 361 540 346 q 516 322 498 322 l 493 322 q 489 322 480 327 q 480 327 483 327 q 496 324 510 337 q 498 331 481 331 q 465 331 454 339 l 456 339 q 441 349 441 370 q 441 385 447 393 q 456 417 481 433 q 490 441 498 443 q 507 445 516 447 q 531 447 537 441 l 535 441 q 532 444 522 444 q 507 444 484 430 q 468 418 456 405 q 442 384 442 367 q 442 343 465 336 q 474 333 478 333 q 510 334 547 375 l 576 405 q 553 418 525 418 l 523 418 q 520 412 520 405 q 522 405 528 396 q 517 402 517 411 q 517 415 519 418 q 504 415 499 412 q 472 402 475 381 q 475 367 484 357 l 487 354 q 469 372 469 385 q 469 405 487 418 q 502 429 525 429 q 546 453 577 457 q 585 459 601 459 q 609 459 624 456 l 642 451 l 651 451 l 652 450 q 658 460 661 475 l 663 475 z m 682 375 q 682 370 681 367 q 673 360 668 354 q 663 348 658 340 l 660 340 l 661 340 q 660 339 658 339 q 657 339 657 337 q 649 337 649 340 q 649 346 663 360 q 673 373 673 376 q 675 381 669 385 q 651 360 637 354 l 631 351 l 628 352 q 634 352 648 367 q 661 379 666 387 q 666 388 665 388 q 664 388 664 390 q 664 391 675 400 q 675 402 676 402 l 678 400 q 678 399 670 388 q 682 384 682 375 z m 726 379 q 726 388 720 385 q 714 385 711 382 q 706 379 697 367 q 688 355 688 348 q 687 345 691 345 q 700 348 706 355 q 712 367 712 372 q 712 375 711 375 q 717 375 717 367 l 715 364 q 718 367 720 371 q 723 375 726 378 z m 754 393 q 748 393 741 385 q 735 378 729 369 q 723 360 715 348 q 708 333 702 324 q 696 316 694 313 q 675 289 664 289 q 655 288 651 295 q 651 303 651 303 q 651 310 657 316 q 654 315 649 315 q 664 330 682 334 q 684 334 684 335 q 685 336 688 336 l 690 334 q 661 325 655 307 q 654 304 654 300 q 654 298 655 297 q 655 295 657 295 q 669 294 685 318 l 696 333 l 702 342 q 697 340 694 340 q 682 340 682 352 q 682 366 702 384 q 711 393 718 393 q 729 393 729 381 l 730 381 l 738 390 q 745 397 751 397 q 756 397 759 393 z m 781 382 q 781 373 765 364 q 763 363 762 363 l 760 363 q 756 363 751 370 q 754 367 759 367 q 769 373 772 384 l 772 387 l 772 388 l 772 390 q 766 390 753 376 l 753 375 q 748 369 748 365 q 747 361 747 358 q 745 360 745 367 q 742 361 741 357 q 738 351 738 346 q 738 345 739 343 q 739 340 745 340 q 760 346 771 355 q 774 358 778 361 q 775 357 772 353 q 769 349 762 345 q 750 337 741 340 q 741 339 739 340 q 730 340 730 349 q 730 364 747 379 q 756 393 771 393 q 774 393 775 391 q 781 387 781 382 z m 841 433 q 841 427 793 370 q 780 354 780 345 q 780 340 784 340 q 793 340 804 355 q 805 357 806 358 q 808 358 810 361 q 810 354 798 345 q 790 339 780 339 q 772 342 772 348 q 772 360 801 394 l 819 417 l 828 426 q 837 435 837 441 q 841 438 841 433 z m 922 387 q 897 396 895 415 q 888 411 880 407 q 873 403 868 399 q 840 372 840 349 q 840 340 844 339 l 847 339 l 850 339 q 873 339 892 354 q 898 360 906 368 q 915 375 922 387 z m 952 430 l 940 430 q 922 429 897 417 q 900 396 925 391 l 936 405 z m 979 457 q 960 457 944 454 q 928 451 916 444 q 924 451 935 456 q 946 460 960 463 q 930 465 907 445 q 903 442 897 430 q 907 433 917 434 q 927 436 939 435 q 942 435 946 435 q 951 435 958 433 q 961 438 966 444 q 972 450 979 457 z m 1074 459 q 1071 454 1067 450 q 1063 447 1056 444 q 1044 436 1033 436 l 1030 436 q 1029 436 1027 438 q 1029 439 1029 440 q 1029 442 1032 445 q 1018 456 994 456 l 988 448 l 973 430 q 985 429 996 428 q 1006 426 1015 426 q 1036 426 1044 430 q 1038 424 1021 421 q 1008 418 994 423 l 970 427 q 964 420 959 414 q 954 409 951 403 l 940 388 l 948 388 q 985 391 991 406 l 993 406 q 988 397 973 390 q 966 387 959 386 q 952 384 946 384 l 939 384 q 928 372 922 363 q 915 354 909 348 q 889 327 873 327 q 865 328 856 328 q 871 328 888 343 q 867 334 855 334 l 846 336 l 858 324 q 846 330 838 337 q 837 337 831 340 q 813 354 811 375 q 811 382 811 388 q 811 394 814 400 q 819 414 826 424 q 834 433 844 444 q 870 466 889 466 q 900 466 907 460 l 906 459 q 901 463 892 463 q 873 460 852 444 q 834 429 825 414 q 813 393 813 375 q 816 348 837 340 q 834 349 835 358 q 838 381 852 397 q 868 418 897 430 q 900 433 900 439 l 913 453 q 933 469 964 469 q 972 469 977 469 q 982 469 990 468 l 991 468 q 1002 475 1010 479 q 1018 483 1027 481 q 1033 481 1036 478 q 1020 475 1020 475 q 1017 474 1013 472 q 1009 471 1005 468 q 1011 466 1017 466 q 1023 465 1030 462 q 1045 457 1054 457 q 1068 457 1074 459 z m 982 354 q 978 358 978 364 q 978 367 978 370 q 979 372 979 375 q 964 355 966 346 q 966 343 969 343 q 972 343 982 354 z m 1002 385 q 1002 388 999 388 q 996 388 993 387 q 991 385 988 379 q 981 364 981 360 q 981 355 982 354 l 987 358 l 987 360 l 987 358 q 988 360 988 360 q 988 361 990 363 q 993 372 993 375 q 993 376 991 378 q 994 372 994 370 q 999 375 1002 385 z m 1008 381 q 1008 373 997 358 q 984 345 978 340 l 966 340 q 957 340 957 348 q 957 360 973 379 q 984 393 997 393 q 1008 393 1008 381 z m 1057 384 q 1059 381 1051 367 q 1042 355 1039 352 l 1021 336 q 1011 325 1008 313 q 1009 331 1021 345 q 1027 351 1030 356 q 1033 360 1036 366 q 1038 367 1039 372 l 1039 367 q 1039 367 1038 364 q 1041 367 1047 379 q 1047 381 1048 382 q 1048 382 1048 384 q 1048 391 1041 388 q 1041 388 1029 379 q 1026 372 1020 366 q 1015 361 1009 354 q 1002 345 1000 340 q 999 339 993 327 q 993 330 992 334 q 991 337 993 340 q 996 351 1006 361 l 1015 372 q 1023 382 1023 388 q 1023 390 1022 392 q 1021 393 1021 394 q 1030 391 1030 385 q 1039 393 1050 393 q 1056 390 1057 384 z m 1116 405 l 1093 405 q 1092 402 1084 393 q 1075 384 1063 367 q 1060 367 1057 360 q 1051 352 1051 345 q 1051 340 1054 340 q 1062 340 1075 355 l 1077 357 q 1078 358 1078 359 q 1078 360 1080 361 q 1080 354 1069 345 q 1062 339 1051 339 q 1044 342 1042 348 q 1042 351 1048 363 l 1066 384 l 1083 405 l 1057 408 q 1051 409 1042 409 l 1029 409 q 1011 409 993 402 l 991 402 q 1006 417 1038 417 q 1039 417 1050 414 q 1062 412 1083 409 l 1087 408 q 1092 415 1096 420 q 1099 426 1102 430 q 1105 429 1105 423 q 1105 418 1102 415 l 1096 406 l 1108 405 l 1117 405 l 1119 405 l 1123 405 z m 1126 385 q 1126 381 1116 376 l 1114 375 q 1119 379 1119 387 l 1119 393 l 1114 393 q 1107 393 1105 387 q 1105 384 1110 361 q 1111 340 1086 340 q 1072 340 1069 349 q 1068 351 1068 354 q 1068 366 1086 369 l 1092 367 l 1089 367 q 1083 367 1080 364 q 1075 357 1075 354 q 1075 342 1087 342 q 1099 342 1099 358 q 1099 366 1098 370 q 1096 375 1096 381 q 1096 396 1110 396 q 1113 396 1114 395 q 1116 394 1119 394 q 1125 391 1125 390 q 1126 388 1126 385 z"},"S":{"x_min":0,"x_max":734,"ha":734,"o":"m 1161 826 q 1166 844 1164 860 q 1162 876 1154 888 q 1145 900 1130 906 q 1116 912 1098 910 q 1065 907 1038 890 q 1011 874 989 848 q 967 823 950 790 q 933 756 918 717 l 875 591 q 848 511 816 425 q 783 339 743 256 q 703 174 654 100 q 604 26 542 -30 q 479 -87 402 -122 q 326 -158 232 -162 q 172 -162 128 -142 q 84 -122 56 -88 q 28 -53 18 -6 q 7 40 15 94 q 24 154 54 218 q 83 282 134 346 q 191 417 264 478 q 336 540 411 586 q 486 631 556 658 q 626 684 679 686 q 724 687 740 658 q 757 630 749 582 q 745 555 733 522 q 721 490 702 454 q 683 419 658 382 q 633 346 603 311 q 576 280 542 246 q 508 211 470 181 q 433 151 394 130 q 355 108 318 104 q 268 99 250 124 q 232 149 239 190 q 245 224 266 264 q 287 305 318 339 q 348 373 385 396 q 422 419 459 419 q 467 419 476 413 q 486 407 494 396 q 502 385 507 370 q 512 356 511 340 q 480 360 462 360 q 433 360 402 341 q 371 322 344 294 q 318 267 299 236 q 280 204 276 179 q 273 162 286 151 q 299 140 320 139 q 342 143 374 162 q 406 181 440 207 q 475 233 508 264 q 540 295 564 323 q 593 359 618 396 q 644 432 664 466 q 683 501 696 532 q 709 562 713 585 q 718 614 706 630 q 694 647 661 644 q 624 644 572 618 q 521 592 462 548 q 402 503 338 442 q 274 382 213 313 q 168 262 138 198 q 107 135 98 72 q 92 33 96 -2 q 101 -36 117 -62 q 133 -89 161 -104 q 189 -120 230 -121 q 302 -116 364 -82 q 425 -47 476 8 q 527 64 570 136 q 613 207 649 286 q 685 365 714 447 q 744 529 770 604 q 781 639 792 672 q 803 704 814 734 q 832 783 858 824 q 885 864 922 893 q 958 922 1006 938 q 1053 954 1113 954 q 1165 954 1200 921 q 1202 933 1202 946 q 1201 958 1199 967 q 1253 941 1272 905 q 1292 869 1280 834 q 1276 821 1260 798 q 1244 775 1218 747 q 1193 719 1160 688 q 1127 657 1088 628 q 1048 599 1004 575 q 961 551 916 536 q 938 551 970 582 q 1003 614 1038 655 q 1073 696 1106 741 q 1139 786 1163 828 z"},"Z":{"x_min":0,"x_max":1131,"ha":1131,"o":"m 733 -163 q 686 -165 650 -154 q 615 -142 588 -124 q 560 -105 538 -80 q 516 -56 496 -31 l 481 -14 q 388 -87 294 -126 q 201 -166 104 -164 q 67 -163 43 -154 q 19 -146 6 -132 q -8 -117 -12 -98 q -16 -80 -13 -59 q -8 -11 23 32 q 54 75 100 108 q 147 140 203 160 q 259 180 314 181 q 352 181 382 175 q 411 169 433 158 q 455 147 471 134 q 487 120 499 105 q 537 147 576 192 q 616 236 656 284 q 719 357 784 430 q 850 503 916 568 q 983 633 1050 685 q 1117 737 1184 768 q 1172 767 1160 767 q 1148 767 1136 767 q 1080 767 1037 773 q 994 779 955 786 q 917 794 880 800 q 843 805 798 805 q 772 805 743 802 q 714 800 680 794 q 656 789 624 776 q 592 763 556 742 q 521 720 486 690 q 452 660 424 623 q 403 595 392 572 q 380 549 376 529 q 367 487 390 466 q 412 445 454 445 q 475 445 501 451 q 555 466 600 493 q 645 520 678 553 q 712 586 734 622 q 755 658 762 691 q 765 702 766 716 q 766 730 764 745 q 809 737 828 714 q 847 692 840 659 q 832 626 802 584 q 771 543 715 498 q 653 449 582 424 q 512 399 452 399 q 419 399 392 407 q 365 415 347 432 q 329 448 322 472 q 315 497 322 531 q 333 579 377 646 q 422 712 480 760 q 538 808 600 840 q 663 872 726 888 q 790 904 848 905 q 899 907 946 901 q 994 895 1040 887 q 1082 881 1122 876 q 1163 870 1204 870 q 1254 870 1306 882 q 1359 894 1419 927 q 1421 906 1413 884 q 1405 863 1388 844 q 1372 825 1348 810 q 1323 794 1292 785 q 1245 768 1196 730 q 1146 692 1094 640 q 1041 588 986 525 q 932 462 875 394 q 797 302 714 208 q 631 115 544 37 l 555 20 q 572 -6 590 -31 q 608 -56 630 -76 q 653 -95 682 -106 q 712 -117 751 -116 q 790 -115 827 -97 q 864 -79 896 -52 q 927 -24 952 8 q 977 41 991 71 q 998 84 1000 98 q 1002 112 998 124 q 994 135 984 142 q 973 149 955 149 q 929 149 867 123 q 907 172 951 196 q 995 220 1030 220 q 1062 220 1084 204 q 1105 188 1107 157 q 1107 139 1102 116 q 1091 65 1055 16 q 1019 -33 968 -72 q 916 -111 855 -136 q 794 -160 733 -163 z m 116 -125 q 196 -129 272 -86 q 348 -43 432 37 q 404 60 368 72 q 331 85 280 83 q 251 78 218 66 q 184 55 153 38 q 122 20 98 -3 q 74 -26 64 -53 q 59 -78 72 -101 q 84 -124 116 -125 z"},"x":{"x_min":0,"x_max":405,"ha":405,"o":"m 473 411 q 485 388 484 369 q 483 350 474 335 q 466 320 453 309 q 440 298 428 291 q 411 280 394 270 q 377 259 358 248 q 340 236 319 224 q 298 211 272 197 q 265 160 262 126 q 260 91 265 71 q 268 60 278 60 q 287 61 298 68 q 310 74 322 82 q 333 91 339 97 q 356 111 378 130 q 399 149 426 176 l 514 262 q 512 257 509 249 q 506 241 500 228 q 493 216 481 200 q 469 183 448 162 q 418 134 395 112 q 372 90 352 73 q 343 65 328 51 q 312 37 294 24 q 275 11 256 2 q 236 -7 220 -7 q 198 -7 186 6 q 175 19 170 40 q 166 60 168 86 q 169 113 173 141 q 142 123 114 105 q 86 87 60 68 q 33 48 7 26 q -19 4 -44 -23 q -50 -4 -45 12 q -40 29 -30 42 q -20 56 -8 66 q 5 77 14 84 q 52 110 94 134 q 137 159 180 184 q 187 218 194 249 q 201 280 209 303 q 215 324 206 316 q 198 308 177 287 l 46 166 l 3 126 q 3 137 2 146 q 2 154 15 171 l 27 184 l 164 316 l 188 340 q 198 351 204 357 q 211 363 218 363 q 231 363 245 356 q 259 348 270 335 q 280 322 285 304 q 290 287 286 267 l 280 241 q 308 259 341 280 q 374 302 402 324 q 431 347 450 369 q 470 391 473 411 z"},"v":{"x_min":0,"x_max":365,"ha":365,"o":"m 27 2 q 11 2 1 9 q -9 16 -14 26 q -18 36 -16 48 q -15 60 -9 71 q 6 101 28 142 q 51 182 74 220 q 96 259 113 288 q 130 317 135 324 q 143 338 147 346 q 151 353 151 362 q 151 363 159 356 q 167 348 177 336 q 187 324 194 310 q 202 297 202 286 q 201 276 198 262 q 194 249 177 229 q 177 229 162 208 q 148 187 128 160 q 109 133 90 107 q 72 81 65 70 q 60 61 56 52 q 51 44 59 45 q 83 47 114 65 q 145 83 178 110 q 165 138 176 181 q 186 224 218 271 q 228 286 244 304 q 260 321 279 336 q 298 350 319 359 q 340 368 360 367 q 386 365 404 348 q 421 330 416 305 q 411 281 398 256 q 386 230 366 204 q 347 179 322 154 q 297 130 269 108 q 278 108 292 112 q 305 115 328 130 q 352 146 389 178 q 426 210 483 268 q 480 264 477 256 q 474 247 468 235 q 461 223 449 206 q 437 190 416 169 l 411 164 q 373 128 333 102 q 293 77 251 75 q 243 75 238 75 q 232 75 226 76 q 174 42 122 21 q 71 0 27 2 z m 256 233 q 243 210 234 188 q 226 167 224 150 q 248 172 270 196 q 291 220 308 242 q 325 265 336 285 q 348 305 351 320 q 356 343 348 343 q 340 343 324 328 q 309 313 290 287 q 272 261 256 233 z"},"O":{"x_min":0,"x_max":1083,"ha":1083,"o":"m 516 770 q 545 773 570 775 q 594 777 617 777 q 664 777 699 772 q 734 766 763 759 q 857 825 952 865 q 1046 905 1134 909 q 1193 911 1226 898 q 1258 885 1269 864 q 1340 850 1362 802 q 1384 753 1368 683 q 1357 634 1331 577 q 1305 520 1268 460 q 1232 401 1186 341 q 1140 281 1091 227 q 1019 148 934 78 q 850 7 762 -46 q 674 -100 587 -132 q 500 -164 423 -164 q 371 -160 334 -138 q 298 -116 278 -82 q 257 -48 252 -5 q 247 38 257 85 q 260 107 268 125 q 293 201 336 280 q 378 359 434 434 q 489 509 554 578 q 620 648 691 705 q 658 713 626 718 q 595 723 564 723 q 556 723 550 723 q 544 723 537 722 q 474 717 424 702 q 375 687 336 664 q 297 642 266 612 q 234 582 207 548 l 207 549 q 190 528 181 510 q 172 491 167 474 q 159 438 178 416 q 197 394 232 394 q 264 394 309 418 q 354 442 408 496 q 403 472 390 444 q 378 416 357 390 q 336 363 306 342 q 277 320 239 309 q 228 305 216 304 q 205 302 194 302 q 143 302 120 338 q 97 374 110 434 q 115 461 129 492 q 143 522 166 556 q 228 650 318 704 q 407 757 516 770 z m 581 326 q 591 356 610 392 q 630 428 653 464 q 676 500 700 532 q 724 565 745 588 l 762 606 q 779 624 790 637 q 801 650 818 667 q 810 669 804 671 q 798 672 792 673 q 785 674 780 676 q 737 639 693 595 q 649 551 608 504 q 559 447 514 384 q 469 322 432 260 q 395 199 370 143 q 344 87 335 42 q 327 6 328 -24 q 330 -53 342 -74 q 355 -94 379 -105 q 403 -116 440 -115 q 499 -114 569 -83 q 639 -52 714 0 q 788 53 864 122 q 940 192 1012 270 q 1061 325 1105 384 q 1149 444 1184 502 q 1219 559 1244 612 q 1268 666 1277 708 q 1284 743 1282 768 q 1280 792 1266 807 q 1259 787 1244 766 q 1228 746 1206 727 q 1185 708 1158 692 q 1131 676 1101 666 q 1068 653 1037 648 q 1006 643 975 643 q 931 643 889 652 q 858 621 828 585 q 798 549 772 511 q 745 473 724 436 q 702 398 688 364 q 675 330 671 304 q 661 259 674 231 q 686 203 729 209 q 716 189 699 176 q 682 164 666 158 q 649 151 635 150 q 621 148 614 150 q 578 163 570 201 q 561 239 569 284 z m 996 741 q 995 741 995 740 q 995 740 994 740 q 1000 741 1006 742 q 1012 742 1017 744 l 1045 747 q 1075 752 1104 762 q 1134 771 1158 783 q 1182 795 1200 808 q 1217 820 1223 831 q 1218 832 1214 832 q 1209 833 1204 833 q 1178 833 1154 827 q 1131 821 1108 810 q 1085 798 1061 783 q 1037 768 1011 751 z"},"C":{"x_min":0,"x_max":877,"ha":877,"o":"m 725 907 q 793 909 836 896 q 880 883 903 862 q 1021 912 1123 912 q 1168 912 1198 902 q 1229 891 1246 872 q 1263 853 1268 827 q 1272 801 1265 770 q 1254 720 1216 659 q 1178 598 1120 536 q 1061 475 985 416 q 909 358 823 312 q 737 266 644 238 q 552 209 459 207 q 417 207 380 209 q 344 211 314 217 q 289 175 266 125 q 243 75 233 25 q 227 -5 228 -32 q 229 -58 241 -78 q 253 -98 277 -110 q 301 -122 341 -122 q 390 -122 448 -99 q 506 -76 560 -38 q 613 -1 654 46 q 695 93 709 140 q 717 168 708 193 q 700 218 669 235 q 695 240 710 242 q 725 244 734 244 q 764 244 781 234 q 798 223 804 206 q 810 190 808 170 q 806 149 799 129 q 785 95 758 60 q 732 25 696 -8 q 660 -40 616 -68 q 572 -97 525 -118 q 478 -140 429 -152 q 380 -164 333 -164 q 274 -164 234 -145 q 194 -126 172 -93 q 151 -60 146 -15 q 142 30 153 82 q 170 161 220 246 q 145 284 121 346 q 97 409 111 479 q 126 537 160 590 q 193 644 240 691 q 286 738 344 776 q 402 815 465 844 q 528 872 594 888 q 661 905 725 907 z m 897 761 q 900 777 895 798 q 820 755 744 694 q 667 634 596 562 q 524 491 459 413 q 394 335 341 257 l 339 255 q 366 248 397 244 q 428 241 464 243 q 551 245 635 275 q 719 305 796 352 q 873 400 939 460 q 1005 519 1056 580 q 1107 641 1140 698 q 1172 755 1181 798 q 1190 836 1176 858 q 1162 880 1120 875 q 1077 873 1028 858 q 980 843 929 816 q 932 802 933 786 q 934 770 932 756 q 928 731 914 700 q 899 670 878 639 q 857 608 830 579 q 804 550 775 528 q 746 505 717 491 q 688 477 661 476 q 638 475 622 486 q 606 497 598 532 q 635 524 682 542 q 730 561 774 596 q 819 630 853 674 q 887 718 897 761 z m 719 874 q 642 869 561 838 q 480 806 408 754 q 337 703 283 635 q 229 567 207 489 q 196 432 206 382 q 217 331 252 299 q 310 387 382 468 q 454 550 533 620 q 612 691 696 748 q 779 804 862 843 q 844 857 816 866 q 788 875 750 875 q 742 875 734 875 q 727 875 719 874 z"},"W":{"x_min":0,"x_max":1320,"ha":1320,"o":"m 1430 792 q 1393 756 1346 707 q 1300 658 1250 600 q 1200 541 1149 476 q 1098 411 1050 343 q 1003 275 962 206 q 920 137 890 71 q 883 57 872 25 q 860 -7 856 -38 q 854 -58 858 -73 q 862 -88 876 -88 q 903 -89 938 -60 q 974 -32 1015 16 q 1056 65 1102 129 q 1149 193 1198 263 q 1248 334 1302 410 q 1357 486 1414 558 q 1472 629 1533 693 q 1594 757 1656 805 q 1719 853 1783 881 q 1847 909 1912 909 q 1926 909 1938 908 q 1950 906 1962 904 q 1874 883 1792 824 q 1711 766 1634 684 q 1557 603 1484 506 q 1411 410 1342 314 q 1280 228 1220 148 q 1160 68 1102 6 q 1043 -55 986 -92 q 928 -129 871 -130 q 839 -131 818 -122 q 797 -112 784 -95 q 771 -78 766 -55 q 762 -32 765 -5 q 767 12 771 30 q 775 47 782 65 q 786 78 787 81 q 788 84 788 85 q 789 86 791 90 q 793 94 800 108 q 756 48 715 -2 q 674 -52 635 -88 q 596 -124 557 -144 q 518 -165 478 -165 q 424 -165 391 -140 q 358 -114 366 -55 q 370 -18 392 27 q 415 72 448 122 q 482 173 524 227 q 565 281 608 337 q 645 385 682 435 q 719 485 751 532 q 783 580 808 624 q 833 668 846 705 q 848 716 850 726 q 852 737 852 745 q 857 784 840 810 q 822 836 772 835 q 726 834 680 819 q 634 804 588 779 q 543 754 500 720 q 457 687 418 650 q 378 613 343 575 q 308 537 279 502 l 280 502 q 204 396 160 308 q 115 220 108 160 q 104 119 120 96 q 135 73 171 71 q 197 69 234 86 q 271 104 313 133 q 355 162 398 201 q 441 240 479 282 q 512 319 540 359 q 568 399 590 438 q 612 476 626 510 q 640 544 643 569 q 645 592 636 606 q 628 620 606 620 q 555 619 516 599 q 477 579 450 550 q 423 520 408 486 q 392 452 389 422 q 389 414 390 404 q 390 395 391 383 q 348 383 331 399 q 314 415 317 441 q 320 470 346 508 q 372 546 414 580 q 455 613 507 636 q 559 658 614 658 q 665 657 683 633 q 701 609 696 571 q 693 539 676 500 q 660 462 636 422 q 612 381 582 342 q 553 302 524 269 q 482 222 436 179 q 391 136 345 103 q 299 70 254 50 q 209 31 169 30 q 125 28 97 40 q 69 51 53 72 q 37 92 32 120 q 28 149 31 183 q 35 223 50 268 q 65 313 86 358 q 108 402 134 442 q 159 483 183 513 q 244 589 312 654 q 381 718 455 766 q 529 813 608 840 q 688 868 771 871 q 862 870 903 822 q 944 775 932 702 q 924 655 897 598 q 870 542 832 482 q 794 422 750 361 q 705 300 662 244 q 629 200 596 156 q 564 111 537 70 q 510 30 491 -6 q 472 -41 466 -66 q 464 -85 468 -104 q 471 -123 487 -123 q 517 -123 552 -98 q 588 -72 628 -28 q 668 15 713 74 q 758 132 808 198 q 850 255 898 316 q 945 376 996 436 l 995 436 q 1043 500 1096 559 q 1149 618 1204 665 q 1260 712 1317 746 q 1374 779 1430 792 z"},"A":{"x_min":0,"x_max":1088,"ha":1088,"o":"m 685 641 q 727 641 743 616 q 759 592 752 550 q 744 504 712 443 q 680 382 628 313 q 603 280 571 244 q 539 208 502 178 q 466 147 424 124 q 383 102 338 95 q 310 91 292 96 q 274 100 264 110 q 253 121 250 137 q 247 153 250 173 q 256 207 280 249 q 303 291 336 328 q 368 364 405 388 q 442 413 474 413 q 482 413 492 407 q 501 401 508 390 q 516 379 520 364 q 524 350 523 332 q 498 354 481 354 q 455 354 424 335 q 394 316 367 288 q 340 260 320 228 q 300 197 296 172 q 294 154 304 142 q 313 131 340 133 q 364 134 397 153 q 430 172 466 200 q 501 228 535 262 q 569 296 594 328 q 645 392 673 448 q 701 503 707 541 q 712 570 704 586 q 696 601 676 602 q 640 602 585 581 q 530 560 467 522 q 404 485 340 433 q 275 381 221 320 q 196 290 171 254 q 146 217 126 178 q 105 139 90 100 q 75 61 69 27 q 64 -2 68 -26 q 72 -51 86 -70 q 99 -88 122 -98 q 144 -109 177 -110 q 208 -107 246 -89 q 285 -71 328 -41 q 372 -11 420 28 q 467 67 518 113 q 568 159 620 209 q 671 259 722 310 q 766 355 810 398 q 855 442 900 486 q 895 536 882 578 q 868 620 846 651 q 823 682 792 699 q 762 716 723 716 q 706 716 689 712 q 672 709 653 703 l 654 703 q 652 702 652 702 q 651 703 650 702 q 647 701 640 698 q 633 694 616 686 q 642 722 678 738 q 714 753 746 755 q 790 755 824 738 q 859 722 884 692 q 909 663 925 622 q 941 581 948 532 q 1023 603 1100 668 q 1177 732 1253 782 q 1329 832 1402 864 q 1475 896 1543 901 q 1556 902 1574 901 q 1592 900 1608 895 q 1624 890 1636 880 q 1649 870 1652 855 q 1634 861 1623 861 q 1603 861 1584 852 q 1564 844 1547 835 q 1482 798 1420 736 q 1358 675 1298 600 q 1239 525 1184 443 q 1129 361 1078 283 q 1029 207 980 136 q 930 65 882 9 q 834 -47 788 -82 q 743 -118 701 -122 q 686 -121 671 -115 q 656 -109 645 -98 q 634 -87 627 -72 q 620 -57 621 -38 q 635 -43 643 -45 q 651 -47 656 -47 q 664 -47 670 -46 q 677 -44 683 -42 q 702 -34 724 -18 q 747 -1 771 23 q 819 92 850 170 q 882 249 893 326 q 894 334 895 339 q 896 344 896 348 q 897 352 898 356 q 899 360 900 368 q 813 271 725 178 q 637 85 549 12 q 461 -62 374 -109 q 286 -156 199 -160 q 148 -160 109 -140 q 70 -121 46 -86 q 22 -52 12 -6 q 3 41 11 95 q 20 156 54 224 q 88 293 141 356 q 196 417 269 470 q 342 522 418 560 q 494 599 564 620 q 635 642 685 641 z m 943 348 q 935 303 922 257 q 910 211 891 166 q 920 205 950 247 q 979 289 1011 334 q 1059 403 1109 474 q 1159 544 1211 609 q 1263 674 1316 730 q 1368 787 1421 828 q 1361 800 1302 758 q 1242 715 1183 662 q 1124 609 1066 548 q 1008 488 951 424 q 950 405 948 386 q 946 368 943 348 z m 87 198 q 86 197 87 197 z"},"f":{"x_min":0,"x_max":199,"ha":199,"o":"m 122 88 q 144 107 168 130 q 193 154 216 176 l 304 262 q 302 257 299 249 q 296 241 290 228 q 283 216 271 200 q 259 183 238 162 l 233 157 q 156 76 86 12 q 17 -53 -52 -85 q -101 -160 -140 -221 q -178 -282 -200 -323 q -204 -319 -212 -311 q -220 -303 -226 -291 q -232 -279 -232 -262 q -233 -246 -221 -224 q -210 -203 -194 -175 q -178 -147 -158 -114 q -162 -115 -170 -115 q -184 -115 -195 -111 q -206 -107 -212 -100 q -218 -93 -217 -83 q -216 -73 -205 -60 q -173 -79 -133 -74 q -97 -19 -54 48 q -11 115 36 186 q 82 257 131 329 q 180 401 227 466 q 274 531 318 585 q 361 639 398 676 q 410 688 433 691 q 456 694 478 692 q 500 689 514 683 q 529 677 524 671 q 512 667 482 634 q 453 602 411 550 q 369 498 318 430 q 266 362 212 287 q 157 212 102 134 q 46 57 -3 -14 q 56 28 122 88 z"},"Q":{"x_min":0,"x_max":1140,"ha":1140,"o":"m 556 770 q 585 773 610 775 q 634 777 657 777 q 704 777 739 772 q 774 766 803 759 q 897 825 992 865 q 1086 905 1174 909 q 1233 911 1266 898 q 1298 885 1309 864 q 1380 850 1402 801 q 1423 752 1408 683 q 1397 634 1372 577 q 1346 520 1309 460 q 1272 401 1226 341 q 1181 281 1131 227 q 1081 172 1026 120 q 971 69 914 24 q 856 -20 796 -56 q 737 -92 679 -116 l 692 -125 q 712 -139 732 -152 q 752 -164 772 -172 q 793 -181 814 -183 q 835 -185 858 -179 q 852 -192 836 -204 q 821 -217 802 -227 q 783 -237 762 -244 q 742 -250 725 -250 q 705 -250 687 -243 q 669 -236 652 -225 q 635 -214 619 -200 q 603 -185 588 -171 l 571 -154 q 543 -161 516 -163 q 489 -165 463 -164 q 407 -162 370 -140 q 334 -119 314 -85 q 294 -51 290 -7 q 286 37 297 85 q 300 107 308 125 q 333 201 376 280 q 419 359 474 434 q 530 509 595 578 q 660 648 731 705 q 698 713 667 718 q 636 723 603 723 q 596 723 590 723 q 584 723 577 722 q 514 717 464 702 q 415 687 376 664 q 337 642 306 612 q 274 582 246 548 l 246 549 q 214 507 207 474 q 199 438 218 416 q 237 394 272 394 q 304 394 349 418 q 394 442 448 496 q 443 472 431 444 q 419 416 398 390 q 377 363 348 342 q 318 320 280 309 q 258 302 235 302 q 184 302 160 338 q 137 375 150 435 q 156 462 170 492 q 183 523 206 556 q 268 650 358 704 q 447 757 556 770 z m 621 326 q 631 356 650 392 q 670 428 693 464 q 716 500 740 532 q 764 565 785 588 l 802 606 q 819 624 830 637 q 841 650 858 667 q 856 669 852 669 l 823 677 q 778 639 734 596 q 690 552 648 504 q 599 447 554 384 q 509 322 472 260 q 435 199 410 143 q 384 87 375 42 q 367 6 368 -24 q 370 -53 382 -74 q 395 -94 419 -105 q 443 -116 480 -115 q 499 -115 518 -111 q 481 -92 441 -99 q 461 -73 483 -64 q 505 -55 526 -55 q 550 -55 572 -62 q 594 -69 616 -81 q 665 -59 720 -22 q 775 15 832 61 q 888 107 944 160 q 1000 214 1052 270 q 1100 325 1144 384 q 1188 444 1224 502 q 1259 559 1284 612 q 1308 666 1317 708 q 1323 740 1321 765 q 1319 790 1306 807 q 1298 787 1282 766 q 1266 746 1244 728 q 1222 709 1196 692 q 1170 676 1142 666 q 1107 653 1076 648 q 1045 643 1015 643 q 971 643 929 652 q 898 621 868 585 q 838 549 812 511 q 785 473 764 436 q 742 398 728 364 q 715 330 711 304 q 706 281 706 262 q 707 244 714 230 q 720 217 734 211 q 747 205 769 208 q 757 188 740 176 q 723 163 706 156 q 689 150 675 148 q 661 147 654 150 q 618 163 610 201 q 601 239 609 284 z m 1033 739 q 1039 740 1045 741 q 1051 742 1057 744 l 1085 747 q 1115 752 1144 762 q 1174 771 1198 782 q 1223 794 1240 807 q 1257 820 1263 831 q 1258 832 1254 832 q 1249 833 1244 833 q 1219 833 1196 827 q 1173 821 1150 810 q 1127 800 1104 786 q 1080 771 1054 754 l 1034 740 z m 1171 865 q 1118 863 1048 830 q 979 797 902 740 l 936 737 q 996 788 1062 821 q 1127 854 1210 865 q 1193 866 1171 865 z"},"w":{"x_min":0,"x_max":561,"ha":561,"o":"m -9 71 q 7 101 30 142 q 53 182 75 220 q 97 258 114 288 q 131 317 136 324 q 144 338 148 346 q 151 353 152 362 q 152 363 162 355 q 171 347 182 335 q 193 323 202 309 q 211 295 211 285 q 211 274 205 260 q 199 246 183 226 q 183 226 176 216 q 169 207 158 192 q 146 178 132 160 q 118 141 105 124 q 92 106 82 92 q 71 77 66 70 q 58 58 61 56 q 64 54 70 57 q 77 60 86 66 q 94 71 97 74 q 120 93 150 121 q 179 149 208 176 l 296 262 q 294 257 291 249 q 288 241 282 228 q 275 216 263 200 q 251 183 230 162 l 224 157 l 200 132 q 179 111 157 89 q 135 67 114 48 q 90 28 68 15 q 47 2 31 0 q 20 -1 9 4 q -2 8 -8 18 q -15 27 -16 40 q -17 54 -9 71 z m 224 2 q 207 2 196 9 q 186 16 182 26 q 177 36 178 48 q 180 60 187 71 q 202 101 225 142 q 248 182 270 220 q 292 259 310 288 q 327 317 331 324 q 339 338 344 346 q 348 353 348 362 q 348 363 356 356 q 364 348 374 336 q 383 324 391 310 q 399 297 399 286 q 398 276 394 262 q 390 249 373 229 q 373 229 358 208 q 344 187 324 160 q 305 133 287 107 q 269 81 262 70 q 257 61 252 52 q 248 44 256 45 q 279 47 310 65 q 342 83 375 110 q 361 138 372 181 q 382 224 414 271 q 424 286 440 304 q 456 321 475 336 q 494 350 515 359 q 536 368 557 367 q 583 365 600 348 q 617 330 612 305 q 603 257 562 205 q 522 153 465 108 q 474 108 488 112 q 501 115 524 130 q 548 146 585 178 q 622 210 679 268 q 676 264 673 256 q 670 247 664 235 q 657 223 645 206 q 633 190 612 169 l 607 164 q 569 128 529 102 q 489 77 447 75 q 440 75 434 75 q 428 75 422 76 q 371 42 319 21 q 267 0 224 2 z m 452 233 q 439 210 431 188 q 423 167 421 150 q 445 172 466 196 q 487 220 504 242 q 521 265 532 285 q 544 305 547 320 q 553 343 544 343 q 536 343 521 328 q 506 313 487 287 q 468 261 452 233 z"},"E":{"x_min":0,"x_max":776,"ha":776,"o":"m 281 649 q 270 620 274 590 q 277 561 301 537 q 325 513 372 498 q 418 482 492 482 q 502 482 507 482 q 512 481 523 482 q 520 498 521 517 q 522 536 527 556 q 532 579 542 604 q 552 628 568 651 q 607 706 657 752 q 707 797 763 830 q 819 864 880 884 q 941 903 1002 906 l 1001 906 q 1037 908 1068 902 q 1098 895 1118 880 q 1139 865 1148 842 q 1157 820 1151 790 q 1146 772 1138 753 q 1109 694 1050 644 q 992 594 918 556 q 845 517 765 490 q 685 464 615 452 l 615 450 q 632 452 648 453 q 665 454 682 455 q 708 456 720 448 q 732 439 729 428 q 727 415 707 404 q 687 393 651 391 q 634 391 616 394 q 599 396 583 403 q 524 387 456 358 q 389 330 327 292 q 265 254 214 206 q 164 159 139 105 q 125 74 118 43 q 112 13 114 -16 q 115 -46 130 -70 q 144 -94 172 -110 q 200 -125 247 -127 q 287 -129 334 -117 q 380 -105 426 -82 q 472 -59 516 -27 q 560 5 596 42 q 631 80 656 121 q 680 162 688 204 q 694 235 680 251 q 666 267 637 284 q 685 296 709 296 q 736 296 754 286 q 772 276 782 260 q 792 244 794 224 q 796 204 792 185 q 769 119 713 56 q 657 -8 581 -57 q 505 -106 416 -136 q 326 -165 238 -164 q 165 -163 117 -146 q 69 -128 42 -99 q 15 -70 8 -31 q 0 8 8 52 q 12 68 17 84 q 22 100 30 116 q 60 183 115 236 q 170 289 239 328 q 308 368 385 396 q 462 423 536 439 l 534 444 q 518 442 504 442 q 490 442 475 442 q 389 442 330 458 q 271 475 236 502 q 202 530 190 568 q 179 605 188 647 q 190 655 192 664 q 195 673 198 681 q 218 732 264 779 q 309 826 378 864 q 396 873 419 882 q 442 892 468 899 q 494 906 521 910 q 548 915 572 915 q 607 915 633 904 q 659 893 667 865 q 673 848 666 827 q 659 793 631 758 q 603 722 568 692 q 532 663 496 644 q 459 626 435 626 q 412 626 406 648 q 399 671 420 725 q 425 707 431 700 q 437 692 445 692 q 459 692 480 700 q 500 708 522 720 q 543 733 564 750 q 585 766 600 784 q 616 802 624 819 q 633 836 629 851 q 626 860 616 864 q 607 869 593 869 q 575 869 552 863 q 529 857 506 848 q 482 838 460 827 q 439 816 424 806 q 367 767 332 727 q 296 687 281 649 z m 997 873 q 952 870 904 847 q 856 824 812 790 q 767 755 729 714 q 691 672 665 632 q 650 605 637 572 q 624 538 618 512 q 617 507 616 502 q 615 497 615 492 q 689 504 758 532 q 826 560 883 598 q 940 635 984 678 q 1028 721 1053 762 q 1066 786 1071 806 q 1079 842 1056 858 q 1034 875 997 873 z"},"s":{"x_min":0,"x_max":271,"ha":271,"o":"m 269 122 q 246 100 214 76 q 181 52 146 33 q 110 14 75 3 q 40 -8 12 -4 q -20 1 -38 20 q -55 38 -45 74 q -21 59 -6 58 q 8 56 24 59 q 48 63 66 83 q 84 103 98 132 q 111 160 122 194 q 132 227 142 258 l 46 166 l 3 126 q 3 137 3 146 q 3 154 15 171 l 28 184 l 180 334 q 210 364 236 380 q 261 397 295 402 q 304 403 317 396 q 330 389 340 379 q 351 369 356 358 q 362 348 357 344 q 345 347 330 342 q 316 338 301 330 q 286 322 274 312 q 261 302 254 295 q 232 271 220 240 q 207 208 197 177 q 187 146 177 118 q 167 90 151 74 q 180 88 208 110 q 236 131 251 144 l 289 176 l 377 262 q 375 257 372 249 q 369 241 362 228 q 356 216 344 200 q 332 183 311 162 z"},"l":{"x_min":0,"x_max":221,"ha":221,"o":"m 65 70 q 57 58 60 54 q 63 50 72 51 q 81 52 93 58 q 105 63 116 70 q 129 78 145 90 q 161 103 178 118 q 195 132 212 147 q 228 162 243 176 l 331 262 q 329 257 326 249 q 323 241 316 228 q 308 215 295 198 q 282 180 259 157 l 235 132 q 221 118 197 96 q 173 73 144 52 q 115 31 84 16 q 54 0 28 0 q 7 0 -2 10 q -12 21 -14 38 q -15 54 -10 74 q -6 93 2 110 q 33 177 70 241 q 106 305 142 362 q 179 418 212 466 q 245 513 271 548 q 284 565 304 589 q 325 613 347 633 q 369 653 389 664 q 409 675 422 666 q 436 657 444 642 q 451 628 454 612 q 456 596 455 580 q 454 565 450 553 q 440 529 418 498 q 395 466 366 430 q 336 395 302 358 q 267 320 234 286 q 201 251 172 221 q 142 191 122 170 q 105 142 90 116 q 76 91 65 70 z m 380 548 q 369 535 348 506 q 328 478 302 440 q 275 403 244 358 q 214 314 184 268 q 213 301 245 335 q 277 369 308 404 q 338 438 365 474 q 392 509 413 546 q 419 558 424 570 q 428 582 426 586 q 424 591 414 584 q 403 576 380 548 z"},"8":{"x_min":0,"x_max":1219,"ha":1219,"o":"m 876 781 l 739 657 l 775 471 l 615 565 l 450 471 l 489 652 l 351 781 l 537 801 l 615 972 l 690 802 z m 682 576 l 639 834 l 586 834 l 541 576 l 564 562 l 583 576 l 592 634 l 631 634 l 642 576 l 663 562 z m 628 672 l 598 672 l 612 774 z m 610 21 l 631 21 l 624 39 q 622 42 622 44 q 622 46 619 49 q 619 45 616 39 z m 352 -5 l 352 3 l 363 3 l 363 -5 z m 844 -5 l 844 58 l 852 58 l 852 1 l 883 1 l 883 -5 z m 787 -5 l 787 58 l 832 58 l 832 49 l 795 49 l 795 30 l 829 30 l 829 22 l 795 22 l 795 1 l 832 1 l 832 -5 z m 565 -5 l 565 21 l 541 58 l 552 58 l 564 39 q 567 30 570 28 q 571 30 572 33 q 574 36 577 39 l 589 58 l 598 58 l 573 21 l 573 -5 z m 376 -5 l 376 58 l 400 58 q 403 58 406 56 q 408 55 409 55 q 415 54 417 49 q 420 46 420 40 q 420 36 417 34 q 415 28 411 28 q 415 27 420 22 q 423 16 423 13 q 423 10 422 8 q 421 7 421 6 q 420 0 415 0 q 414 -3 412 -3 q 411 -3 409 -5 l 400 -5 z m 205 -5 l 187 58 l 196 58 l 205 16 q 207 12 207 9 q 207 6 208 3 q 210 10 210 15 l 222 58 l 232 58 l 241 25 q 243 18 244 14 q 246 9 246 3 q 247 6 247 9 q 247 12 249 16 l 259 58 l 267 58 l 249 -5 l 241 -5 l 229 42 q 228 46 228 49 q 226 46 226 42 l 213 -5 z m 123 -5 l 105 58 l 115 58 l 123 16 q 123 9 127 3 q 129 10 129 15 l 141 58 l 150 58 l 160 25 q 162 18 162 14 q 163 9 163 3 q 166 6 166 9 q 166 12 168 16 l 177 58 l 186 58 l 168 -5 l 160 -5 l 148 42 q 147 46 147 49 q 144 46 144 42 l 130 -5 z m 384 30 l 397 30 q 403 30 405 33 q 409 33 409 34 q 411 36 411 40 q 411 45 409 46 l 408 46 q 406 46 406 47 q 406 48 405 48 q 403 49 396 49 l 384 49 z m 285 -5 l 268 58 l 277 58 l 286 16 q 288 12 288 9 q 288 6 291 3 q 291 9 292 11 q 292 13 292 15 l 304 58 l 313 58 l 324 25 q 325 18 326 14 q 327 9 327 3 q 330 6 330 9 q 330 12 331 16 l 342 58 l 349 58 l 331 -5 l 324 -5 l 312 42 q 310 46 310 49 q 307 46 307 42 l 294 -5 z m 664 28 l 682 28 q 685 28 688 29 q 690 30 693 30 q 696 30 696 34 q 697 36 697 40 q 697 45 694 48 q 693 49 684 49 l 664 49 z m 384 1 l 400 1 q 403 1 405 3 l 409 3 q 411 6 414 7 l 414 13 q 414 16 411 19 q 411 22 408 22 l 397 22 l 384 22 z m 435 -5 l 435 58 l 442 58 l 442 -5 z m 985 25 q 985 12 990 7 q 996 1 1006 1 q 1017 1 1021 7 q 1027 12 1027 27 q 1027 34 1026 39 q 1023 46 1018 48 q 1014 49 1006 49 q 997 49 993 45 q 985 39 985 25 z m 976 25 q 976 42 985 49 q 991 58 1006 58 q 1011 58 1014 56 q 1018 55 1021 54 q 1026 52 1028 49 q 1030 46 1033 42 q 1035 39 1035 27 q 1035 13 1032 9 q 1027 1 1021 -3 q 1015 -6 1006 -6 q 1002 -6 998 -6 q 994 -5 990 -3 q 987 0 984 3 q 982 6 981 9 q 979 13 978 17 q 976 21 976 25 z m 592 -5 l 616 58 l 625 58 l 651 -5 l 642 -5 l 634 13 l 609 13 l 600 -5 z m 459 -5 l 459 58 l 466 58 l 466 1 l 495 1 l 495 -5 z m 892 -5 l 892 3 l 903 3 l 903 -5 z m 748 19 l 748 27 l 774 27 l 774 3 q 768 -3 762 -5 q 759 -5 755 -6 q 751 -6 748 -6 q 739 -6 733 -3 q 729 0 726 2 q 723 4 721 9 q 720 13 718 17 q 717 21 717 25 q 717 31 718 34 q 720 37 721 42 q 724 51 732 54 q 735 55 740 56 q 744 58 748 58 q 756 58 760 55 q 766 54 768 49 q 772 45 774 40 l 766 39 q 766 40 762 45 q 762 48 756 49 l 748 49 l 739 49 q 735 48 732 45 q 732 43 727 39 q 727 36 726 33 q 726 30 726 27 q 726 16 729 13 q 735 4 736 3 q 741 1 748 1 q 754 1 759 3 q 762 6 764 6 q 765 6 766 7 l 766 19 z m 657 -5 l 657 58 l 684 58 q 688 58 691 56 q 694 55 697 55 q 702 54 703 49 q 706 46 706 40 q 706 33 702 28 q 700 27 696 26 q 693 25 688 22 q 691 22 692 22 q 693 21 694 21 q 696 18 696 16 q 697 13 700 10 l 712 -5 l 702 -5 l 693 7 q 690 10 689 12 q 688 15 687 16 q 687 19 686 19 q 684 19 682 21 l 681 21 q 679 21 679 22 q 679 22 678 22 l 675 22 l 664 22 l 664 -5 z m 505 -5 l 505 58 l 514 58 l 514 1 l 544 1 l 544 -5 z m 961 16 l 969 15 q 966 3 960 0 q 954 -6 943 -6 q 934 -6 928 -3 q 924 0 922 3 q 921 6 918 9 q 915 21 915 27 q 915 33 918 45 q 925 52 928 54 q 933 55 936 56 q 939 58 943 58 q 948 58 952 56 q 957 55 960 54 q 963 51 965 48 q 967 45 969 40 l 960 39 q 960 45 954 48 q 951 49 943 49 q 934 49 931 48 q 928 46 928 44 q 927 42 924 39 q 924 36 923 33 q 922 30 922 27 q 922 18 927 13 q 927 10 928 8 q 930 6 931 3 q 936 1 943 1 q 951 1 955 6 q 960 10 961 16 z m 1047 -5 l 1047 58 l 1059 58 l 1074 13 q 1074 10 1076 8 q 1077 6 1077 3 q 1077 4 1080 13 l 1093 58 l 1105 58 l 1105 -5 l 1098 -5 l 1098 46 l 1080 -5 l 1072 -5 l 1054 48 l 1054 -5 z m 610 21 l 631 21 l 624 39 q 622 42 622 44 q 622 46 619 49 q 619 45 616 39 z m 352 -5 l 352 3 l 363 3 l 363 -5 z m 844 -5 l 844 58 l 852 58 l 852 1 l 883 1 l 883 -5 z m 787 -5 l 787 58 l 832 58 l 832 49 l 795 49 l 795 30 l 829 30 l 829 22 l 795 22 l 795 1 l 832 1 l 832 -5 z m 565 -5 l 565 21 l 541 58 l 552 58 l 564 39 q 567 30 570 28 q 571 30 572 33 q 574 36 577 39 l 589 58 l 598 58 l 573 21 l 573 -5 z m 376 -5 l 376 58 l 400 58 q 403 58 406 56 q 408 55 409 55 q 415 54 417 49 q 420 46 420 40 q 420 36 417 34 q 415 28 411 28 q 415 27 420 22 q 423 16 423 13 q 423 10 422 8 q 421 7 421 6 q 420 0 415 0 q 414 -3 412 -3 q 411 -3 409 -5 l 400 -5 z m 205 -5 l 187 58 l 196 58 l 205 16 q 207 12 207 9 q 207 6 208 3 q 210 10 210 15 l 222 58 l 232 58 l 241 25 q 243 18 244 14 q 246 9 246 3 q 247 6 247 9 q 247 12 249 16 l 259 58 l 267 58 l 249 -5 l 241 -5 l 229 42 q 228 46 228 49 q 226 46 226 42 l 213 -5 z m 123 -5 l 105 58 l 115 58 l 123 16 q 123 9 127 3 q 129 10 129 15 l 141 58 l 150 58 l 160 25 q 162 18 162 14 q 163 9 163 3 q 166 6 166 9 q 166 12 168 16 l 177 58 l 186 58 l 168 -5 l 160 -5 l 148 42 q 147 46 147 49 q 144 46 144 42 l 130 -5 z m 384 30 l 397 30 q 403 30 405 33 q 409 33 409 34 q 411 36 411 40 q 411 45 409 46 l 408 46 q 406 46 406 47 q 406 48 405 48 q 403 49 396 49 l 384 49 z m 285 -5 l 268 58 l 277 58 l 286 16 q 288 12 288 9 q 288 6 291 3 q 291 9 292 11 q 292 13 292 15 l 304 58 l 313 58 l 324 25 q 325 18 326 14 q 327 9 327 3 q 330 6 330 9 q 330 12 331 16 l 342 58 l 349 58 l 331 -5 l 324 -5 l 312 42 q 310 46 310 49 q 307 46 307 42 l 294 -5 z m 664 28 l 682 28 q 685 28 688 29 q 690 30 693 30 q 696 30 696 34 q 697 36 697 40 q 697 45 694 48 q 693 49 684 49 l 664 49 z m 384 1 l 400 1 q 403 1 405 3 l 409 3 q 411 6 414 7 l 414 13 q 414 16 411 19 q 411 22 408 22 l 397 22 l 384 22 z m 435 -5 l 435 58 l 442 58 l 442 -5 z m 985 25 q 985 12 990 7 q 996 1 1006 1 q 1017 1 1021 7 q 1027 12 1027 27 q 1027 34 1026 39 q 1023 46 1018 48 q 1014 49 1006 49 q 997 49 993 45 q 985 39 985 25 z m 976 25 q 976 42 985 49 q 991 58 1006 58 q 1011 58 1014 56 q 1018 55 1021 54 q 1026 52 1028 49 q 1030 46 1033 42 q 1035 39 1035 27 q 1035 13 1032 9 q 1027 1 1021 -3 q 1015 -6 1006 -6 q 1002 -6 998 -6 q 994 -5 990 -3 q 987 0 984 3 q 982 6 981 9 q 979 13 978 17 q 976 21 976 25 z m 592 -5 l 616 58 l 625 58 l 651 -5 l 642 -5 l 634 13 l 609 13 l 600 -5 z m 459 -5 l 459 58 l 466 58 l 466 1 l 495 1 l 495 -5 z m 892 -5 l 892 3 l 903 3 l 903 -5 z m 748 19 l 748 27 l 774 27 l 774 3 q 768 -3 762 -5 q 759 -5 755 -6 q 751 -6 748 -6 q 739 -6 733 -3 q 729 0 726 2 q 723 4 721 9 q 720 13 718 17 q 717 21 717 25 q 717 31 718 34 q 720 37 721 42 q 724 51 732 54 q 735 55 740 56 q 744 58 748 58 q 756 58 760 55 q 766 54 768 49 q 772 45 774 40 l 766 39 q 766 40 762 45 q 762 48 756 49 l 748 49 l 739 49 q 735 48 732 45 q 732 43 727 39 q 727 36 726 33 q 726 30 726 27 q 726 16 729 13 q 735 4 736 3 q 741 1 748 1 q 754 1 759 3 q 762 6 764 6 q 765 6 766 7 l 766 19 z m 657 -5 l 657 58 l 684 58 q 688 58 691 56 q 694 55 697 55 q 702 54 703 49 q 706 46 706 40 q 706 33 702 28 q 700 27 696 26 q 693 25 688 22 q 691 22 692 22 q 693 21 694 21 q 696 18 696 16 q 697 13 700 10 l 712 -5 l 702 -5 l 693 7 q 690 10 689 12 q 688 15 687 16 q 687 19 686 19 q 684 19 682 21 l 681 21 q 679 21 679 22 q 679 22 678 22 l 675 22 l 664 22 l 664 -5 z m 505 -5 l 505 58 l 514 58 l 514 1 l 544 1 l 544 -5 z m 961 16 l 969 15 q 966 3 960 0 q 954 -6 943 -6 q 934 -6 928 -3 q 924 0 922 3 q 921 6 918 9 q 915 21 915 27 q 915 33 918 45 q 925 52 928 54 q 933 55 936 56 q 939 58 943 58 q 948 58 952 56 q 957 55 960 54 q 963 51 965 48 q 967 45 969 40 l 960 39 q 960 45 954 48 q 951 49 943 49 q 934 49 931 48 q 928 46 928 44 q 927 42 924 39 q 924 36 923 33 q 922 30 922 27 q 922 18 927 13 q 927 10 928 8 q 930 6 931 3 q 936 1 943 1 q 951 1 955 6 q 960 10 961 16 z m 1047 -5 l 1047 58 l 1059 58 l 1074 13 q 1074 10 1076 8 q 1077 6 1077 3 q 1077 4 1080 13 l 1093 58 l 1105 58 l 1105 -5 l 1098 -5 l 1098 46 l 1080 -5 l 1072 -5 l 1054 48 l 1054 -5 z m 610 21 l 631 21 l 624 39 q 622 42 622 44 q 622 46 619 49 q 619 45 616 39 z m 352 -5 l 352 3 l 363 3 l 363 -5 z m 844 -5 l 844 58 l 852 58 l 852 1 l 883 1 l 883 -5 z m 787 -5 l 787 58 l 832 58 l 832 49 l 795 49 l 795 30 l 829 30 l 829 22 l 795 22 l 795 1 l 832 1 l 832 -5 z m 565 -5 l 565 21 l 541 58 l 552 58 l 564 39 q 567 30 570 28 q 571 30 572 33 q 574 36 577 39 l 589 58 l 598 58 l 573 21 l 573 -5 z m 376 -5 l 376 58 l 400 58 q 403 58 406 56 q 408 55 409 55 q 415 54 417 49 q 420 46 420 40 q 420 36 417 34 q 415 28 411 28 q 415 27 420 22 q 423 16 423 13 q 423 10 422 8 q 421 7 421 6 q 420 0 415 0 q 414 -3 412 -3 q 411 -3 409 -5 l 400 -5 z m 205 -5 l 187 58 l 196 58 l 205 16 q 207 12 207 9 q 207 6 208 3 q 210 10 210 15 l 222 58 l 232 58 l 241 25 q 243 18 244 14 q 246 9 246 3 q 247 6 247 9 q 247 12 249 16 l 259 58 l 267 58 l 249 -5 l 241 -5 l 229 42 q 228 46 228 49 q 226 46 226 42 l 213 -5 z m 123 -5 l 105 58 l 115 58 l 123 16 q 123 9 127 3 q 129 10 129 15 l 141 58 l 150 58 l 160 25 q 162 18 162 14 q 163 9 163 3 q 166 6 166 9 q 166 12 168 16 l 177 58 l 186 58 l 168 -5 l 160 -5 l 148 42 q 147 46 147 49 q 144 46 144 42 l 130 -5 z m 384 30 l 397 30 q 403 30 405 33 q 409 33 409 34 q 411 36 411 40 q 411 45 409 46 l 408 46 q 406 46 406 47 q 406 48 405 48 q 403 49 396 49 l 384 49 z m 285 -5 l 268 58 l 277 58 l 286 16 q 288 12 288 9 q 288 6 291 3 q 291 9 292 11 q 292 13 292 15 l 304 58 l 313 58 l 324 25 q 325 18 326 14 q 327 9 327 3 q 330 6 330 9 q 330 12 331 16 l 342 58 l 349 58 l 331 -5 l 324 -5 l 312 42 q 310 46 310 49 q 307 46 307 42 l 294 -5 z m 664 28 l 682 28 q 685 28 688 29 q 690 30 693 30 q 696 30 696 34 q 697 36 697 40 q 697 45 694 48 q 693 49 684 49 l 664 49 z m 384 1 l 400 1 q 403 1 405 3 l 409 3 q 411 6 414 7 l 414 13 q 414 16 411 19 q 411 22 408 22 l 397 22 l 384 22 z m 435 -5 l 435 58 l 442 58 l 442 -5 z m 985 25 q 985 12 990 7 q 996 1 1006 1 q 1017 1 1021 7 q 1027 12 1027 27 q 1027 34 1026 39 q 1023 46 1018 48 q 1014 49 1006 49 q 997 49 993 45 q 985 39 985 25 z m 976 25 q 976 42 985 49 q 991 58 1006 58 q 1011 58 1014 56 q 1018 55 1021 54 q 1026 52 1028 49 q 1030 46 1033 42 q 1035 39 1035 27 q 1035 13 1032 9 q 1027 1 1021 -3 q 1015 -6 1006 -6 q 1002 -6 998 -6 q 994 -5 990 -3 q 987 0 984 3 q 982 6 981 9 q 979 13 978 17 q 976 21 976 25 z m 592 -5 l 616 58 l 625 58 l 651 -5 l 642 -5 l 634 13 l 609 13 l 600 -5 z m 459 -5 l 459 58 l 466 58 l 466 1 l 495 1 l 495 -5 z m 892 -5 l 892 3 l 903 3 l 903 -5 z m 748 19 l 748 27 l 774 27 l 774 3 q 768 -3 762 -5 q 759 -5 755 -6 q 751 -6 748 -6 q 739 -6 733 -3 q 729 0 726 2 q 723 4 721 9 q 720 13 718 17 q 717 21 717 25 q 717 31 718 34 q 720 37 721 42 q 724 51 732 54 q 735 55 740 56 q 744 58 748 58 q 756 58 760 55 q 766 54 768 49 q 772 45 774 40 l 766 39 q 766 40 762 45 q 762 48 756 49 l 748 49 l 739 49 q 735 48 732 45 q 732 43 727 39 q 727 36 726 33 q 726 30 726 27 q 726 16 729 13 q 735 4 736 3 q 741 1 748 1 q 754 1 759 3 q 762 6 764 6 q 765 6 766 7 l 766 19 z m 657 -5 l 657 58 l 684 58 q 688 58 691 56 q 694 55 697 55 q 702 54 703 49 q 706 46 706 40 q 706 33 702 28 q 700 27 696 26 q 693 25 688 22 q 691 22 692 22 q 693 21 694 21 q 696 18 696 16 q 697 13 700 10 l 712 -5 l 702 -5 l 693 7 q 690 10 689 12 q 688 15 687 16 q 687 19 686 19 q 684 19 682 21 l 681 21 q 679 21 679 22 q 679 22 678 22 l 675 22 l 664 22 l 664 -5 z m 505 -5 l 505 58 l 514 58 l 514 1 l 544 1 l 544 -5 z m 961 16 l 969 15 q 966 3 960 0 q 954 -6 943 -6 q 934 -6 928 -3 q 924 0 922 3 q 921 6 918 9 q 915 21 915 27 q 915 33 918 45 q 925 52 928 54 q 933 55 936 56 q 939 58 943 58 q 948 58 952 56 q 957 55 960 54 q 963 51 965 48 q 967 45 969 40 l 960 39 q 960 45 954 48 q 951 49 943 49 q 934 49 931 48 q 928 46 928 44 q 927 42 924 39 q 924 36 923 33 q 922 30 922 27 q 922 18 927 13 q 927 10 928 8 q 930 6 931 3 q 936 1 943 1 q 951 1 955 6 q 960 10 961 16 z m 1047 -5 l 1047 58 l 1059 58 l 1074 13 q 1074 10 1076 8 q 1077 6 1077 3 q 1077 4 1080 13 l 1093 58 l 1105 58 l 1105 -5 l 1098 -5 l 1098 46 l 1080 -5 l 1072 -5 l 1054 48 l 1054 -5 z m 175 111 l 187 106 q 184 93 174 84 q 162 75 148 75 q 135 75 123 81 q 111 90 109 99 q 103 109 103 124 q 103 141 109 151 q 114 162 124 166 q 135 172 148 172 q 165 172 171 165 q 181 162 186 145 l 174 144 q 168 156 163 157 q 157 163 148 163 q 136 163 130 157 q 121 151 118 144 q 117 138 117 124 q 117 111 121 105 q 124 94 130 91 q 138 85 147 85 q 159 85 166 93 q 169 96 172 100 q 174 105 175 111 z m 199 123 q 199 135 202 144 q 205 153 213 159 q 219 166 227 169 q 235 172 244 172 q 258 172 268 166 q 277 162 285 150 q 291 135 291 124 q 291 117 290 111 q 288 105 285 99 q 277 87 267 81 q 255 75 244 75 q 237 75 232 76 q 226 78 220 81 q 210 87 205 99 q 199 109 199 123 z m 213 123 q 213 105 220 94 q 231 85 244 85 q 259 85 267 97 q 277 108 277 124 q 277 130 276 134 q 274 139 273 144 q 270 154 261 157 q 256 163 244 163 q 232 163 222 153 q 213 145 213 123 z m 306 78 l 306 171 l 324 171 l 346 105 q 351 96 351 91 q 354 94 357 106 l 381 171 l 396 171 l 396 78 l 384 78 l 384 156 l 357 78 l 345 78 l 318 157 l 318 78 z m 417 78 l 417 171 l 453 171 l 466 171 q 474 171 478 166 q 480 165 486 157 q 487 154 488 151 q 489 148 489 144 q 489 135 481 124 q 474 117 453 117 l 429 117 l 429 78 z m 429 126 l 454 126 q 468 126 469 132 q 475 133 475 144 q 475 151 474 153 q 468 159 463 159 q 462 162 453 162 l 429 162 z m 505 78 l 505 171 l 517 171 l 517 87 l 564 87 l 564 78 z m 579 78 l 579 171 l 648 171 l 648 162 l 591 162 l 591 132 l 643 132 l 643 120 l 591 120 l 591 87 l 649 87 l 649 78 z m 690 78 l 690 162 l 658 162 l 658 171 l 735 171 l 735 162 l 703 162 l 703 78 z m 748 78 l 748 171 l 817 171 l 817 162 l 760 162 l 760 132 l 813 132 l 813 120 l 760 120 l 760 87 l 819 87 l 819 78 z m 870 106 l 882 108 q 882 100 885 97 q 888 91 895 88 q 898 87 909 87 q 912 87 916 87 q 919 87 922 88 q 927 88 930 94 q 931 97 931 103 q 931 108 930 111 q 928 112 926 113 q 924 114 921 117 q 919 117 904 120 q 897 123 892 124 q 888 124 885 126 q 879 129 876 136 q 873 138 872 141 q 871 144 871 147 q 871 156 877 162 q 879 165 882 166 q 885 168 889 171 q 892 172 907 172 q 918 172 924 169 q 928 166 931 164 q 934 163 936 159 q 942 154 942 145 l 930 144 q 927 156 922 157 q 918 162 907 162 q 892 162 889 157 q 885 153 885 147 q 885 142 889 139 q 889 139 907 132 q 915 130 920 128 q 925 127 928 126 q 933 124 935 122 q 937 120 940 117 q 943 112 943 103 q 943 93 940 88 q 934 82 928 79 q 924 78 920 76 q 915 75 909 75 q 903 75 897 76 q 891 78 888 79 q 880 81 873 91 q 870 97 870 106 z m 961 78 l 961 171 l 1029 171 l 1029 162 l 975 162 l 975 132 l 1027 132 l 1027 120 l 975 120 l 975 87 l 1032 87 l 1032 78 z m 1074 78 l 1074 162 l 1044 162 l 1044 171 l 1117 171 l 1117 162 l 1086 162 l 1086 78 z m 112 190 l 112 283 l 150 283 l 163 283 q 166 283 175 280 q 177 279 179 276 q 181 273 183 270 q 186 267 186 259 q 186 246 177 237 q 172 229 150 229 l 127 229 l 127 190 z m 127 241 l 150 241 q 163 241 168 244 q 174 250 174 256 q 174 259 172 262 q 171 265 169 268 q 165 273 162 273 q 160 274 150 274 l 127 274 z m 201 190 l 201 283 l 268 283 l 268 274 l 214 274 l 214 244 l 265 244 l 265 234 l 214 234 l 214 202 l 271 202 l 271 190 z m 288 190 l 288 283 l 331 283 q 345 283 351 282 q 358 279 361 274 q 364 262 364 259 q 364 249 358 243 q 352 237 337 234 q 340 231 342 231 q 343 231 345 229 q 352 222 355 216 l 372 190 l 357 190 l 343 210 q 342 214 340 217 q 337 220 336 223 q 333 225 332 227 q 331 229 330 229 q 327 231 324 231 q 322 234 316 234 l 303 234 l 303 190 z m 303 243 l 327 243 q 339 243 342 244 q 346 249 349 250 q 351 253 351 259 q 351 265 346 270 q 342 274 331 274 l 303 274 z m 381 222 l 391 222 q 391 219 392 216 q 394 213 396 210 q 397 208 400 206 q 402 204 405 204 q 414 201 420 201 q 423 201 426 201 q 429 201 430 202 q 439 205 441 208 q 441 210 442 212 q 442 214 442 216 q 442 222 441 223 q 436 226 430 229 q 429 231 425 231 q 421 231 415 234 q 402 235 396 240 q 388 246 385 249 q 384 253 384 261 q 384 264 384 268 q 385 271 388 274 q 390 280 400 283 q 403 286 417 286 q 429 286 435 283 q 444 279 447 273 q 453 264 453 259 l 441 256 q 438 267 433 270 q 427 276 417 276 q 405 276 400 270 q 396 267 396 261 q 396 255 400 253 q 402 250 417 247 q 430 241 439 241 q 442 238 445 236 q 448 234 450 231 q 454 226 454 217 q 454 210 450 204 q 447 199 444 197 q 442 195 439 192 q 427 189 420 189 q 409 189 397 192 q 393 195 390 197 q 387 199 384 204 q 382 208 382 212 q 381 216 381 222 z m 468 237 q 468 258 480 273 q 493 286 513 286 q 519 286 524 284 q 529 283 537 280 q 543 277 546 272 q 549 268 552 262 q 558 252 558 237 q 558 223 552 211 q 546 201 537 195 q 525 189 513 189 q 499 189 489 196 q 475 204 474 214 q 468 222 468 237 z m 480 237 q 480 219 489 210 q 498 201 513 201 q 528 201 537 210 q 544 220 544 237 q 544 243 544 249 q 543 255 540 259 q 535 267 531 270 q 523 276 513 276 q 505 276 500 274 q 496 271 489 267 q 480 258 480 237 z m 573 190 l 573 283 l 586 283 l 636 211 l 636 283 l 648 283 l 648 190 l 636 190 l 585 264 l 585 190 z m 658 190 l 694 283 l 708 283 l 747 190 l 732 190 l 721 220 l 682 220 l 670 190 z m 684 229 l 717 229 l 708 255 q 705 261 704 266 q 702 271 700 274 q 700 270 698 266 q 697 261 696 256 z m 754 190 l 754 283 l 768 283 l 768 202 l 814 202 l 814 190 z m 922 283 l 934 283 l 934 231 q 934 214 931 208 q 928 199 921 195 q 913 189 898 189 q 883 189 877 195 q 873 196 870 200 q 867 204 864 208 q 862 211 862 231 l 862 283 l 873 283 l 873 231 q 873 216 876 211 q 879 205 883 204 q 886 202 889 202 q 892 201 897 201 q 909 201 916 205 q 922 211 922 231 z m 951 222 l 963 222 q 963 219 964 216 q 966 213 967 210 q 969 208 971 206 q 973 204 976 204 q 985 201 990 201 q 1000 201 1005 202 q 1008 204 1012 208 q 1014 210 1014 216 q 1014 222 1012 223 q 1009 225 1008 226 q 1008 228 1005 229 q 1002 231 998 231 q 993 231 987 234 q 981 235 976 236 q 970 237 969 240 q 961 243 960 249 q 955 253 955 261 q 955 267 960 274 q 961 280 970 283 q 976 286 988 286 q 993 286 998 286 q 1003 286 1006 283 q 1015 279 1020 273 q 1021 270 1022 266 q 1024 262 1024 259 l 1012 256 q 1009 261 1008 264 q 1008 268 1005 270 q 1000 276 988 276 q 975 276 973 270 q 967 268 967 261 q 967 256 970 253 q 973 250 988 247 q 1005 241 1009 241 q 1014 238 1017 236 q 1020 234 1021 231 q 1026 228 1026 217 q 1026 208 1021 204 q 1018 199 1016 197 q 1014 195 1009 192 q 1000 189 993 189 q 985 189 980 190 q 975 190 970 192 q 967 195 964 197 q 960 199 957 204 q 954 208 952 212 q 951 216 951 222 z m 1044 190 l 1044 283 l 1111 283 l 1111 274 l 1057 274 l 1057 244 l 1107 244 l 1107 234 l 1057 234 l 1057 202 l 1113 202 l 1113 190 z m 307 388 q 307 403 285 406 q 282 406 278 407 q 273 408 267 408 l 258 397 l 234 372 q 228 364 222 358 q 217 352 210 348 q 219 345 232 343 q 235 343 240 343 q 246 343 250 345 q 273 346 285 357 q 307 375 307 388 z m 324 433 q 324 439 316 439 q 313 439 291 432 l 274 417 q 271 414 268 408 l 294 412 q 300 412 310 420 q 324 429 324 433 z m 343 460 q 343 457 339 457 q 336 457 335 458 q 334 459 331 459 q 316 456 297 436 q 300 439 304 440 q 307 442 310 444 q 321 445 330 444 q 336 444 336 436 l 336 430 q 328 417 294 409 q 321 406 321 391 q 321 373 292 354 q 282 348 270 344 q 259 340 247 339 q 228 334 217 336 q 208 336 198 340 q 189 334 181 334 l 178 334 q 169 337 163 339 l 168 339 q 180 339 187 345 l 187 346 q 177 340 165 340 q 148 340 139 349 q 124 360 124 381 q 124 387 126 392 q 127 397 130 405 q 141 427 166 444 q 174 451 182 454 q 190 456 198 457 q 214 457 220 451 q 213 456 205 456 q 196 456 186 450 q 171 444 169 441 q 154 433 139 415 q 126 394 126 379 q 126 372 128 368 q 129 363 132 358 q 138 349 148 346 q 153 345 156 344 q 159 343 162 343 q 168 343 172 344 q 177 346 183 349 q 166 361 166 382 q 169 402 190 417 l 187 412 q 184 412 181 406 q 172 397 172 387 q 172 367 195 354 q 207 361 207 363 q 210 367 213 370 q 216 373 219 376 q 222 379 222 384 q 223 388 226 393 l 226 391 q 226 384 225 379 l 243 400 q 289 453 319 462 q 306 466 298 466 q 279 465 256 453 q 229 439 229 420 q 229 414 234 409 q 235 408 235 406 q 226 412 226 421 q 226 438 246 454 q 270 472 297 469 q 306 469 324 463 l 330 463 q 337 463 342 460 z m 346 363 q 345 357 334 346 q 324 340 316 340 q 309 340 309 349 q 309 357 318 369 l 316 369 q 315 367 310 367 q 310 367 309 369 q 313 369 324 379 l 325 379 l 330 385 q 334 390 334 393 l 339 393 q 343 393 343 391 q 343 385 334 375 l 324 364 q 315 351 315 346 q 315 342 321 342 q 328 342 339 357 q 340 358 342 359 q 343 360 346 363 z m 354 405 q 348 396 339 396 q 334 396 328 400 l 333 400 q 343 400 346 411 l 346 414 l 354 411 q 355 409 354 405 z m 406 433 q 406 426 360 370 l 358 370 q 345 354 345 345 q 345 340 349 340 q 358 340 369 355 q 370 357 372 358 q 373 358 375 361 q 375 354 363 345 q 355 339 346 339 q 337 340 337 348 q 336 355 367 394 l 385 417 l 394 426 q 399 432 402 441 q 406 438 406 433 z m 432 433 q 432 427 384 370 q 369 352 369 345 q 369 340 375 340 q 381 340 394 355 l 400 361 q 399 354 387 345 q 379 339 370 339 q 361 340 361 348 q 361 357 391 394 l 409 417 l 418 426 q 426 435 427 441 q 432 438 432 433 z m 403 333 q 379 328 366 315 q 355 301 355 298 q 355 292 361 292 q 363 291 372 294 q 375 297 378 300 q 382 304 387 309 z m 447 430 q 444 409 427 393 q 427 391 426 391 q 426 391 426 390 q 421 384 416 378 q 411 373 406 366 q 403 363 403 360 q 402 363 405 369 q 396 355 396 348 q 396 343 400 343 q 402 343 408 346 q 430 364 439 397 l 439 393 l 439 388 q 442 385 442 381 q 442 378 435 366 l 423 346 l 409 328 q 414 331 426 337 l 424 336 q 421 333 416 329 q 411 325 406 318 l 394 303 l 388 295 q 379 286 369 283 q 360 283 355 289 q 346 292 352 303 q 354 304 356 307 q 357 310 360 313 l 361 315 l 351 313 q 376 331 393 333 q 394 333 396 334 q 397 334 399 334 l 400 334 l 403 334 l 412 348 q 406 342 402 341 q 397 340 394 340 q 387 340 387 348 q 387 366 418 394 l 421 396 l 436 411 q 439 417 442 422 q 445 426 447 430 z m 618 453 q 609 456 603 456 q 588 456 575 452 q 562 448 549 441 q 543 438 539 434 q 535 430 531 427 q 549 426 579 408 q 612 441 636 450 z m 649 447 q 643 445 636 443 q 630 441 622 433 q 618 430 600 412 l 589 402 l 604 393 q 607 397 613 404 q 619 411 627 420 z m 663 472 q 663 471 661 469 q 661 459 657 448 l 658 447 l 657 447 q 649 429 637 417 l 613 388 q 616 387 618 387 q 619 387 622 385 q 622 382 621 382 q 618 382 616 383 q 615 384 612 385 q 594 366 592 349 q 589 343 589 340 q 589 334 595 334 q 607 334 621 354 l 627 363 q 642 384 646 400 l 646 405 q 646 403 648 402 l 648 400 q 645 379 633 361 l 613 322 q 613 328 618 342 q 600 328 591 328 q 577 328 580 346 q 580 355 586 366 q 592 378 601 391 l 586 399 l 573 385 q 568 379 560 370 q 552 361 540 346 q 516 322 498 322 l 493 322 q 489 322 480 327 q 480 327 483 327 q 496 324 510 337 q 498 331 481 331 q 465 331 454 339 l 456 339 q 441 349 441 370 q 441 385 447 393 q 456 417 481 433 q 490 441 498 443 q 507 445 516 447 q 531 447 537 441 l 535 441 q 532 444 522 444 q 507 444 484 430 q 468 418 456 405 q 442 384 442 367 q 442 343 465 336 q 474 333 478 333 q 510 334 547 375 l 576 405 q 553 418 525 418 l 523 418 q 520 412 520 405 q 522 405 528 396 q 517 402 517 411 q 517 415 519 418 q 504 415 499 412 q 472 402 475 381 q 475 367 484 357 l 487 354 q 469 372 469 385 q 469 405 487 418 q 502 429 525 429 q 546 453 577 457 q 585 459 601 459 q 609 459 624 456 l 642 451 l 651 451 l 652 450 q 658 460 661 475 l 663 475 z m 682 375 q 682 370 681 367 q 673 360 668 354 q 663 348 658 340 l 660 340 l 661 340 q 660 339 658 339 q 657 339 657 337 q 649 337 649 340 q 649 346 663 360 q 673 373 673 376 q 675 381 669 385 q 651 360 637 354 l 631 351 l 628 352 q 634 352 648 367 q 661 379 666 387 q 666 388 665 388 q 664 388 664 390 q 664 391 675 400 q 675 402 676 402 l 678 400 q 678 399 670 388 q 682 384 682 375 z m 726 379 q 726 388 720 385 q 714 385 711 382 q 706 379 697 367 q 688 355 688 348 q 687 345 691 345 q 700 348 706 355 q 712 367 712 372 q 712 375 711 375 q 717 375 717 367 l 715 364 q 718 367 720 371 q 723 375 726 378 z m 754 393 q 748 393 741 385 q 735 378 729 369 q 723 360 715 348 q 708 333 702 324 q 696 316 694 313 q 675 289 664 289 q 655 288 651 295 q 651 303 651 303 q 651 310 657 316 q 654 315 649 315 q 664 330 682 334 q 684 334 684 335 q 685 336 688 336 l 690 334 q 661 325 655 307 q 654 304 654 300 q 654 298 655 297 q 655 295 657 295 q 669 294 685 318 l 696 333 l 702 342 q 697 340 694 340 q 682 340 682 352 q 682 366 702 384 q 711 393 718 393 q 729 393 729 381 l 730 381 l 738 390 q 745 397 751 397 q 756 397 759 393 z m 781 382 q 781 373 765 364 q 763 363 762 363 l 760 363 q 756 363 751 370 q 754 367 759 367 q 769 373 772 384 l 772 387 l 772 388 l 772 390 q 766 390 753 376 l 753 375 q 748 369 748 365 q 747 361 747 358 q 745 360 745 367 q 742 361 741 357 q 738 351 738 346 q 738 345 739 343 q 739 340 745 340 q 760 346 771 355 q 774 358 778 361 q 775 357 772 353 q 769 349 762 345 q 750 337 741 340 q 741 339 739 340 q 730 340 730 349 q 730 364 747 379 q 756 393 771 393 q 774 393 775 391 q 781 387 781 382 z m 841 433 q 841 427 793 370 q 780 354 780 345 q 780 340 784 340 q 793 340 804 355 q 805 357 806 358 q 808 358 810 361 q 810 354 798 345 q 790 339 780 339 q 772 342 772 348 q 772 360 801 394 l 819 417 l 828 426 q 837 435 837 441 q 841 438 841 433 z m 922 387 q 897 396 895 415 q 888 411 880 407 q 873 403 868 399 q 840 372 840 349 q 840 340 844 339 l 847 339 l 850 339 q 873 339 892 354 q 898 360 906 368 q 915 375 922 387 z m 952 430 l 940 430 q 922 429 897 417 q 900 396 925 391 l 936 405 z m 979 457 q 960 457 944 454 q 928 451 916 444 q 924 451 935 456 q 946 460 960 463 q 930 465 907 445 q 903 442 897 430 q 907 433 917 434 q 927 436 939 435 q 942 435 946 435 q 951 435 958 433 q 961 438 966 444 q 972 450 979 457 z m 1074 459 q 1071 454 1067 450 q 1063 447 1056 444 q 1044 436 1033 436 l 1030 436 q 1029 436 1027 438 q 1029 439 1029 440 q 1029 442 1032 445 q 1018 456 994 456 l 988 448 l 973 430 q 985 429 996 428 q 1006 426 1015 426 q 1036 426 1044 430 q 1038 424 1021 421 q 1008 418 994 423 l 970 427 q 964 420 959 414 q 954 409 951 403 l 940 388 l 948 388 q 985 391 991 406 l 993 406 q 988 397 973 390 q 966 387 959 386 q 952 384 946 384 l 939 384 q 928 372 922 363 q 915 354 909 348 q 889 327 873 327 q 865 328 856 328 q 871 328 888 343 q 867 334 855 334 l 846 336 l 858 324 q 846 330 838 337 q 837 337 831 340 q 813 354 811 375 q 811 382 811 388 q 811 394 814 400 q 819 414 826 424 q 834 433 844 444 q 870 466 889 466 q 900 466 907 460 l 906 459 q 901 463 892 463 q 873 460 852 444 q 834 429 825 414 q 813 393 813 375 q 816 348 837 340 q 834 349 835 358 q 838 381 852 397 q 868 418 897 430 q 900 433 900 439 l 913 453 q 933 469 964 469 q 972 469 977 469 q 982 469 990 468 l 991 468 q 1002 475 1010 479 q 1018 483 1027 481 q 1033 481 1036 478 q 1020 475 1020 475 q 1017 474 1013 472 q 1009 471 1005 468 q 1011 466 1017 466 q 1023 465 1030 462 q 1045 457 1054 457 q 1068 457 1074 459 z m 982 354 q 978 358 978 364 q 978 367 978 370 q 979 372 979 375 q 964 355 966 346 q 966 343 969 343 q 972 343 982 354 z m 1002 385 q 1002 388 999 388 q 996 388 993 387 q 991 385 988 379 q 981 364 981 360 q 981 355 982 354 l 987 358 l 987 360 l 987 358 q 988 360 988 360 q 988 361 990 363 q 993 372 993 375 q 993 376 991 378 q 994 372 994 370 q 999 375 1002 385 z m 1008 381 q 1008 373 997 358 q 984 345 978 340 l 966 340 q 957 340 957 348 q 957 360 973 379 q 984 393 997 393 q 1008 393 1008 381 z m 1057 384 q 1059 381 1051 367 q 1042 355 1039 352 l 1021 336 q 1011 325 1008 313 q 1009 331 1021 345 q 1027 351 1030 356 q 1033 360 1036 366 q 1038 367 1039 372 l 1039 367 q 1039 367 1038 364 q 1041 367 1047 379 q 1047 381 1048 382 q 1048 382 1048 384 q 1048 391 1041 388 q 1041 388 1029 379 q 1026 372 1020 366 q 1015 361 1009 354 q 1002 345 1000 340 q 999 339 993 327 q 993 330 992 334 q 991 337 993 340 q 996 351 1006 361 l 1015 372 q 1023 382 1023 388 q 1023 390 1022 392 q 1021 393 1021 394 q 1030 391 1030 385 q 1039 393 1050 393 q 1056 390 1057 384 z m 1116 405 l 1093 405 q 1092 402 1084 393 q 1075 384 1063 367 q 1060 367 1057 360 q 1051 352 1051 345 q 1051 340 1054 340 q 1062 340 1075 355 l 1077 357 q 1078 358 1078 359 q 1078 360 1080 361 q 1080 354 1069 345 q 1062 339 1051 339 q 1044 342 1042 348 q 1042 351 1048 363 l 1066 384 l 1083 405 l 1057 408 q 1051 409 1042 409 l 1029 409 q 1011 409 993 402 l 991 402 q 1006 417 1038 417 q 1039 417 1050 414 q 1062 412 1083 409 l 1087 408 q 1092 415 1096 420 q 1099 426 1102 430 q 1105 429 1105 423 q 1105 418 1102 415 l 1096 406 l 1108 405 l 1117 405 l 1119 405 l 1123 405 z m 1126 385 q 1126 381 1116 376 l 1114 375 q 1119 379 1119 387 l 1119 393 l 1114 393 q 1107 393 1105 387 q 1105 384 1110 361 q 1111 340 1086 340 q 1072 340 1069 349 q 1068 351 1068 354 q 1068 366 1086 369 l 1092 367 l 1089 367 q 1083 367 1080 364 q 1075 357 1075 354 q 1075 342 1087 342 q 1099 342 1099 358 q 1099 366 1098 370 q 1096 375 1096 381 q 1096 396 1110 396 q 1113 396 1114 395 q 1116 394 1119 394 q 1125 391 1125 390 q 1126 388 1126 385 z"},"e":{"x_min":0,"x_max":267,"ha":267,"o":"m 278 369 q 283 369 294 366 q 304 363 314 358 q 325 352 333 345 q 341 338 341 331 q 339 305 319 275 q 299 245 266 216 q 232 186 188 160 q 144 135 95 117 q 87 102 81 88 q 75 75 74 64 q 72 54 76 48 q 81 42 93 42 q 107 42 124 50 q 140 57 157 68 q 164 72 172 78 q 181 84 195 95 q 209 106 230 126 q 252 145 286 176 l 374 262 q 372 257 369 249 q 366 241 360 228 q 353 216 341 200 q 329 183 309 162 l 303 157 q 226 82 168 38 q 110 -5 61 -3 q 18 -2 7 30 q -4 62 10 108 q 19 138 46 182 q 72 225 109 266 q 146 307 190 337 q 233 367 277 369 z m 127 171 q 126 168 124 166 q 122 164 121 161 q 153 181 181 202 q 209 224 232 246 q 254 267 269 286 q 284 306 289 322 q 273 314 250 296 q 226 278 202 256 q 179 234 158 212 q 138 189 127 171 z"},"b":{"x_min":0,"x_max":378,"ha":378,"o":"m 194 161 q 191 154 189 141 q 187 128 186 119 q 216 147 249 182 q 282 216 302 244 q 313 259 322 274 q 330 289 335 302 q 340 315 342 324 q 344 333 343 335 q 341 338 326 330 q 311 321 299 312 q 259 280 232 240 q 205 200 194 161 z m 147 133 q 150 156 161 182 q 148 170 139 160 q 130 151 121 141 q 112 131 103 119 q 94 107 81 92 q 70 75 70 61 q 69 47 84 50 q 93 51 110 61 q 126 71 146 88 q 144 99 144 110 q 145 122 147 133 z m 363 106 q 346 90 327 76 q 308 61 289 50 q 270 38 252 32 q 235 25 222 25 q 211 25 202 26 q 194 27 186 31 q 163 17 144 8 q 126 0 112 0 q 71 0 56 26 q 54 20 52 13 q 50 6 46 -2 q -2 1 -12 30 q -23 59 2 99 q 10 114 29 144 q 48 174 73 213 q 98 252 128 298 q 157 343 186 388 q 216 434 244 476 q 272 519 294 552 q 316 586 330 608 q 344 629 346 633 q 354 647 358 655 q 362 663 363 671 q 363 672 373 663 q 383 654 395 640 q 407 627 416 612 q 426 596 426 585 q 425 575 420 561 q 415 547 399 527 l 344 452 q 319 418 288 376 q 257 333 225 288 q 252 312 279 332 q 306 351 327 360 q 341 367 358 365 q 376 363 391 356 q 406 348 416 337 q 425 326 425 314 q 424 287 406 253 q 388 219 360 184 q 331 150 296 117 q 261 84 227 59 l 229 59 q 251 59 278 76 q 306 94 337 120 q 353 134 369 148 q 385 163 399 176 l 486 262 q 484 257 481 249 q 478 241 472 228 q 465 216 453 200 q 441 183 421 162 l 415 157 l 390 132 z"},"m":{"x_min":0,"x_max":564,"ha":564,"o":"m 304 283 q 314 297 314 302 q 314 307 309 306 q 304 304 296 298 q 287 293 280 287 q 268 278 238 254 q 209 229 174 194 q 138 160 104 118 q 69 76 48 32 l 48 31 l 48 32 l 48 31 q 46 23 46 14 q 45 6 48 -1 q 33 -1 18 2 q 3 6 -8 14 q -18 22 -22 36 q -25 50 -16 70 q -10 84 2 106 q 13 127 27 150 q 41 173 56 196 q 70 219 82 237 l 140 322 q 148 336 150 344 q 151 353 152 362 q 152 363 161 355 q 170 347 180 335 q 191 323 200 309 q 209 295 208 285 q 208 277 206 267 q 204 257 196 243 q 219 266 234 282 q 249 298 264 312 q 288 332 310 346 q 331 359 348 361 q 358 362 372 356 q 385 349 396 337 q 406 325 410 309 q 414 293 405 277 q 401 269 396 261 q 391 253 383 244 q 407 267 422 282 q 438 298 453 312 q 476 332 497 346 q 518 359 535 361 q 546 362 560 356 q 573 349 583 337 q 593 325 597 309 q 601 293 592 277 q 583 257 564 232 q 545 207 523 180 q 501 153 478 125 q 456 97 440 70 q 433 58 436 56 q 438 53 445 56 q 452 59 460 65 q 468 71 471 74 q 494 93 524 121 q 553 149 582 176 l 670 262 q 668 257 665 249 q 662 241 656 228 q 649 216 637 200 q 625 183 604 162 l 598 157 l 574 132 q 553 111 531 89 q 509 67 488 48 q 464 28 442 15 q 421 2 405 0 q 394 -1 382 4 q 371 8 363 17 q 355 26 354 40 q 352 53 360 70 q 366 84 378 106 q 390 127 404 150 q 419 173 434 196 q 448 219 460 237 q 470 251 478 262 q 486 273 492 283 q 502 297 502 302 q 503 307 498 306 q 493 304 484 298 q 476 293 468 287 q 456 278 425 252 q 394 227 358 192 q 322 156 288 114 q 253 73 235 31 q 234 23 234 14 q 233 6 235 -1 q 221 -1 206 2 q 190 6 180 14 q 169 22 166 36 q 162 50 171 70 q 177 84 189 106 q 201 127 216 150 q 230 173 244 196 q 259 219 271 237 z"},"n":{"x_min":0,"x_max":372,"ha":372,"o":"m 170 70 q 177 84 189 106 q 201 127 216 150 q 230 173 244 196 q 259 219 271 237 q 281 251 288 262 q 296 273 303 283 q 313 297 313 302 q 313 307 308 306 q 303 304 295 298 q 287 293 280 287 q 267 278 236 252 q 205 227 170 192 q 134 157 100 115 q 66 73 48 31 q 43 13 48 -1 q 33 -1 18 2 q 3 6 -8 14 q -18 22 -22 36 q -25 50 -16 70 q -10 84 2 106 q 13 127 27 150 q 41 173 56 196 q 70 219 82 237 l 140 322 q 148 336 150 344 q 151 353 152 362 q 152 363 161 355 q 170 347 180 335 q 191 323 200 309 q 209 295 208 285 q 208 277 206 268 q 204 258 196 245 q 219 268 234 283 q 249 298 263 312 q 288 332 309 346 q 330 359 347 361 q 357 362 370 356 q 384 349 394 337 q 405 325 409 309 q 413 293 404 277 q 395 257 376 232 q 357 207 334 180 q 312 153 290 125 q 268 97 252 70 q 244 58 246 56 q 249 53 256 56 q 263 59 271 65 q 279 71 282 74 q 305 93 334 121 q 364 149 393 176 l 481 262 q 479 257 476 249 q 473 241 466 228 q 460 216 448 200 q 436 183 415 162 l 410 157 l 384 132 q 364 111 342 89 q 319 67 299 48 q 275 28 254 15 q 232 2 216 0 q 205 -1 194 4 q 182 8 174 17 q 167 26 164 40 q 162 53 170 70 z"},"h":{"x_min":0,"x_max":377,"ha":377,"o":"m 176 70 q 183 84 195 106 q 207 127 221 150 q 235 173 250 196 q 264 219 276 237 q 287 251 294 262 q 302 273 309 283 q 319 297 319 302 q 319 307 314 306 q 309 304 300 298 q 292 293 285 287 q 274 279 248 258 q 222 237 190 208 q 159 178 127 142 q 95 107 73 70 q 58 42 50 24 q 42 5 44 -3 q -3 -1 -14 29 q -24 59 2 99 q 10 114 29 144 q 48 174 73 213 q 98 252 127 298 q 156 343 186 388 q 215 434 243 476 q 271 519 293 552 q 315 586 329 608 q 343 629 345 633 q 353 647 357 655 q 361 663 363 671 q 363 672 373 663 q 383 654 394 640 q 406 627 416 612 q 425 596 425 585 q 424 575 419 561 q 414 547 398 527 q 390 521 364 489 q 339 457 304 410 q 270 364 230 309 q 191 254 155 200 l 159 205 q 181 225 197 240 q 213 256 226 269 q 238 282 248 292 q 258 303 269 312 q 293 332 314 346 q 335 359 352 361 q 362 362 376 356 q 389 349 400 337 q 410 325 414 309 q 418 293 409 277 q 400 257 381 232 q 362 207 340 180 q 317 153 295 125 q 273 97 257 70 q 249 58 252 56 q 255 53 262 56 q 268 59 276 65 q 284 71 287 74 q 310 93 340 121 q 370 149 399 176 l 486 262 q 484 257 481 249 q 478 241 472 228 q 465 216 453 200 q 441 183 421 162 l 415 157 l 390 132 q 369 111 347 89 q 325 67 304 48 q 281 28 259 15 q 237 2 221 0 q 210 -1 198 4 q 187 8 180 17 q 172 26 170 40 q 168 53 176 70 z"},"z":{"x_min":0,"x_max":297,"ha":297,"o":"m -160 -256 q -183 -276 -192 -286 q -202 -297 -202 -301 q -202 -305 -195 -304 q -188 -303 -180 -300 q -171 -297 -163 -294 q -155 -290 -152 -288 q -132 -276 -104 -256 q -76 -235 -48 -210 q -19 -184 7 -156 q 33 -127 48 -98 q -2 -136 -54 -174 q -106 -211 -160 -256 z m 256 295 q 232 266 221 234 q 210 201 202 168 q 193 135 182 104 q 172 74 150 50 q 142 40 133 32 q 124 24 113 19 q 118 15 122 11 q 125 7 130 2 l 133 4 q 156 25 178 44 q 200 64 222 84 q 244 105 268 128 q 292 150 319 176 l 407 262 q 405 257 402 249 q 399 241 392 228 q 386 216 374 200 q 362 183 341 162 q 308 131 282 106 q 255 81 232 60 q 210 39 191 21 q 172 3 153 -14 q 150 -16 148 -19 q 145 -22 142 -25 q 145 -52 126 -96 q 108 -139 71 -185 q 34 -231 -19 -272 q -72 -314 -136 -337 q -146 -341 -163 -343 q -180 -345 -196 -344 q -213 -343 -226 -338 q -240 -334 -244 -324 q -248 -314 -240 -298 q -232 -282 -206 -259 q -137 -200 -68 -152 q 1 -105 66 -53 q 66 -50 66 -48 q 67 -45 67 -42 q 68 -30 58 -16 q 48 -2 14 -2 l 15 -1 l 14 -1 q -18 4 -36 21 q -53 38 -43 74 q -20 59 -6 58 q 9 56 25 59 q 49 63 67 83 q 85 103 98 132 q 112 160 122 194 q 133 227 143 258 l 48 166 l 4 126 q 5 137 4 146 q 4 154 17 171 l 29 184 l 181 334 q 211 364 237 380 q 263 397 296 402 q 305 403 318 396 q 330 389 341 379 q 352 369 358 358 q 363 348 359 344 q 347 347 332 342 q 318 338 303 330 q 288 322 276 312 q 263 302 256 295 z"},"B":{"x_min":0,"x_max":1148,"ha":1148,"o":"m 1016 904 q 1058 907 1095 907 q 1161 907 1217 894 q 1273 882 1311 856 q 1349 831 1366 792 q 1384 754 1373 703 q 1359 662 1332 625 q 1305 588 1270 557 q 1234 526 1192 502 q 1151 477 1110 462 q 1149 433 1166 384 q 1182 335 1168 274 q 1147 182 1086 108 q 1026 35 943 -16 q 860 -68 765 -96 q 670 -123 580 -122 q 532 -122 490 -110 q 447 -97 416 -76 q 351 -117 286 -138 q 222 -160 153 -161 q 108 -161 76 -144 q 45 -127 27 -96 q 9 -66 4 -23 q 0 20 9 71 q 23 132 58 202 q 93 273 152 346 q 185 386 226 425 q 267 464 314 500 q 360 537 410 570 q 460 603 510 630 q 540 690 598 738 q 657 787 728 822 q 800 857 876 878 q 952 898 1016 904 z m 602 454 q 550 454 523 478 q 496 503 492 541 q 421 490 354 432 q 286 373 229 313 q 199 280 170 242 q 142 205 118 166 q 95 128 78 90 q 62 52 55 19 q 43 -40 65 -78 q 87 -116 158 -117 q 212 -119 266 -96 q 320 -73 374 -31 q 358 -6 350 26 q 343 58 347 95 l 341 95 q 282 94 262 122 q 243 149 251 190 q 258 224 284 264 q 309 303 344 336 q 378 369 418 391 q 458 413 495 413 q 509 413 524 394 q 540 375 540 345 q 568 359 598 368 q 628 377 660 381 q 687 416 712 451 q 736 486 755 519 q 774 552 787 581 q 800 610 805 633 q 810 657 805 671 q 800 685 780 686 q 750 687 698 664 q 647 641 585 603 q 579 567 596 552 q 614 537 640 537 q 666 537 696 556 q 726 574 746 605 q 746 570 731 542 q 716 514 694 494 q 673 475 648 464 q 623 454 602 454 z m 790 724 q 834 724 847 700 q 860 675 852 633 q 841 584 803 518 q 765 451 711 382 q 720 382 730 382 q 739 381 747 379 q 808 456 869 530 q 930 603 990 663 q 1051 723 1112 764 q 1172 804 1234 816 q 1160 763 1092 678 q 1023 592 943 483 q 952 488 963 490 q 974 492 987 494 l 993 494 q 995 494 997 494 q 999 495 1000 495 q 1024 495 1044 490 q 1083 504 1119 525 q 1155 546 1185 574 q 1215 602 1238 636 q 1260 670 1272 711 q 1287 757 1272 786 q 1256 816 1223 834 q 1190 851 1146 858 q 1102 864 1060 864 q 1048 864 1037 864 q 1026 864 1015 863 q 977 859 922 846 q 866 833 809 811 q 752 789 701 757 q 650 725 619 682 q 668 702 712 713 q 756 724 790 724 z m 972 430 q 943 429 932 435 q 921 441 920 450 l 914 444 q 894 415 876 390 q 857 365 835 336 q 861 313 872 280 q 884 248 876 210 q 874 201 871 192 q 868 182 864 173 q 852 144 831 129 q 810 114 789 108 q 768 101 751 100 q 734 99 730 99 q 765 133 782 161 q 799 189 803 216 q 808 253 794 282 q 760 240 722 196 q 683 153 642 112 q 602 70 560 32 q 519 -5 478 -35 q 504 -47 534 -52 q 565 -58 600 -57 q 663 -57 736 -33 q 809 -9 875 34 q 941 78 992 138 q 1044 198 1065 271 l 1072 297 q 1076 315 1078 336 q 1080 356 1077 376 q 1074 395 1064 412 q 1055 429 1036 439 q 1024 436 1014 434 q 1004 433 991 432 q 986 431 982 430 q 977 430 972 430 z m 648 308 q 624 282 594 252 q 565 223 532 195 q 500 167 466 144 q 433 121 400 108 q 397 78 403 53 q 409 28 423 9 q 500 76 572 160 q 643 244 716 338 q 708 341 699 342 q 690 344 682 345 l 650 311 z m 357 139 q 374 200 420 253 q 465 306 530 340 q 505 354 490 354 q 462 354 430 337 q 399 320 371 295 q 343 270 323 240 q 303 211 297 187 q 292 165 304 151 q 316 137 350 137 l 356 137 q 356 137 357 139 z m 413 156 q 438 170 466 190 q 493 210 520 234 q 547 257 572 282 q 596 306 615 328 l 627 343 q 593 337 560 320 q 527 304 498 280 q 470 255 448 224 q 425 192 413 156 z"},"K":{"x_min":0,"x_max":954,"ha":954,"o":"m 715 724 q 757 727 774 700 q 790 674 787 629 q 783 598 770 559 q 756 520 735 478 q 714 436 686 393 q 658 350 626 310 q 600 278 568 242 q 535 207 498 176 q 460 146 418 124 q 377 101 333 95 q 272 90 250 116 q 227 141 232 183 q 236 218 257 258 q 278 298 309 332 q 340 367 378 390 q 415 413 452 413 q 460 413 470 407 q 479 401 488 390 q 496 380 501 366 q 506 351 505 333 q 473 354 456 354 q 427 354 396 336 q 364 317 338 290 q 312 262 294 231 q 275 200 272 175 q 270 153 284 140 q 299 128 335 132 q 357 135 390 152 q 422 168 457 194 q 492 220 526 252 q 560 285 586 319 q 620 364 648 408 q 677 452 698 492 q 719 533 731 568 q 743 603 746 630 q 750 661 739 678 q 728 694 699 690 q 674 689 638 674 q 602 659 558 632 q 515 606 468 570 q 420 534 372 492 q 325 451 280 405 q 234 359 196 313 q 169 280 145 242 q 121 205 102 166 q 83 128 70 90 q 58 53 54 19 q 48 -40 74 -78 q 100 -116 171 -117 q 216 -118 262 -98 q 307 -78 354 -42 q 400 -7 446 42 q 492 91 538 148 q 585 205 631 268 q 677 331 723 394 q 790 487 859 578 q 928 669 998 740 q 1067 812 1138 856 q 1208 899 1278 897 q 1234 874 1192 836 q 1149 798 1108 750 q 1067 703 1028 648 q 988 594 949 539 q 1003 561 1054 598 q 1104 636 1155 679 q 1202 718 1253 757 q 1304 796 1363 828 q 1422 859 1491 878 q 1560 896 1643 895 q 1584 878 1536 854 q 1488 831 1448 806 q 1407 780 1374 753 q 1341 726 1313 702 l 1271 667 q 1240 643 1206 618 q 1171 594 1134 572 q 1098 551 1059 534 q 1020 518 980 511 q 1003 497 1008 472 q 1012 448 1010 418 q 1005 383 992 345 q 978 307 964 279 l 938 227 q 909 169 884 112 q 858 56 851 3 q 846 -35 861 -74 q 876 -114 917 -156 q 864 -145 830 -124 q 796 -102 778 -76 q 759 -49 754 -20 q 749 10 752 37 q 754 58 760 78 q 766 97 774 112 q 796 154 814 184 q 831 214 848 242 q 859 259 868 276 q 878 294 891 314 q 897 324 905 340 q 913 355 920 373 q 928 391 934 410 q 939 429 941 447 q 943 465 940 480 q 938 496 927 504 l 882 443 l 853 403 q 809 342 760 278 q 712 213 659 151 q 606 89 549 34 q 492 -22 430 -64 q 369 -106 304 -132 q 239 -158 170 -161 q 126 -161 93 -144 q 60 -126 38 -96 q 17 -65 8 -22 q -1 20 2 71 q 10 132 37 202 q 64 273 115 346 q 149 395 197 442 q 245 488 300 530 q 355 571 414 606 q 473 641 528 667 q 583 693 632 708 q 680 723 715 724 z"},"R":{"x_min":0,"x_max":1005,"ha":1005,"o":"m 134 346 q 164 385 203 423 q 242 461 286 496 q 331 532 379 564 q 427 596 474 623 q 495 672 533 712 q 571 752 618 784 q 666 815 722 838 q 777 862 834 877 q 890 892 945 900 q 1000 907 1048 907 q 1114 907 1170 894 q 1227 882 1266 856 q 1306 831 1326 792 q 1345 754 1337 703 q 1329 655 1299 612 q 1269 570 1226 534 q 1184 499 1134 474 q 1083 448 1034 435 q 1032 416 1027 395 q 1022 374 1014 354 q 1006 333 997 314 q 988 294 979 279 l 950 227 q 918 169 890 112 q 861 56 852 3 q 845 -35 858 -74 q 871 -114 909 -156 q 856 -145 824 -124 q 792 -102 774 -76 q 757 -49 753 -20 q 749 10 754 37 q 757 58 764 78 q 771 97 780 112 q 804 154 823 184 q 842 214 861 242 q 873 259 884 276 q 894 294 908 314 q 919 331 935 361 q 951 391 959 423 q 954 422 948 422 q 941 422 936 422 q 907 422 882 428 q 838 364 788 296 q 737 228 681 164 q 625 99 564 42 q 502 -16 436 -60 q 371 -105 302 -132 q 233 -158 162 -161 q 118 -161 86 -144 q 54 -126 34 -96 q 14 -65 7 -22 q 0 20 6 71 q 17 132 48 202 q 79 273 134 346 z m 943 511 q 978 522 997 514 q 1016 506 1025 488 q 1061 501 1095 524 q 1129 546 1157 575 q 1185 604 1206 638 q 1226 673 1235 711 q 1247 759 1228 790 q 1210 822 1174 840 q 1137 859 1090 867 q 1044 875 1001 875 q 950 875 892 862 q 833 849 775 824 q 717 798 666 761 q 615 724 579 675 q 685 719 752 724 q 798 727 816 704 q 835 681 829 642 q 824 611 806 571 q 788 531 761 488 q 734 444 700 398 q 666 353 630 311 q 603 280 569 244 q 535 208 496 176 q 458 145 418 122 q 377 99 338 95 q 282 93 258 119 q 235 145 242 185 q 247 220 270 260 q 293 300 326 334 q 359 368 398 390 q 437 413 474 413 q 482 413 492 407 q 501 401 508 390 q 516 380 520 366 q 524 351 523 333 q 492 354 472 354 q 444 354 413 337 q 382 320 356 295 q 330 270 311 240 q 292 211 288 187 q 284 165 296 151 q 309 137 343 137 q 367 137 400 156 q 433 174 468 202 q 503 231 536 264 q 570 298 594 328 q 627 369 659 412 q 691 455 717 496 q 743 537 760 573 q 777 609 781 636 q 786 659 778 672 q 770 685 747 686 q 716 687 665 664 q 614 642 554 603 q 552 569 570 553 q 587 537 612 537 q 638 537 667 556 q 696 574 715 605 q 716 570 703 542 q 690 514 670 494 q 649 475 624 464 q 600 454 579 454 q 528 454 500 479 q 472 504 463 540 q 396 489 332 431 q 267 373 213 313 q 184 280 158 242 q 132 205 111 166 q 90 128 75 90 q 60 52 55 19 q 46 -40 70 -78 q 94 -116 165 -117 q 238 -119 310 -76 q 382 -33 452 36 q 522 106 590 194 q 659 283 725 373 q 781 449 838 524 q 896 598 954 660 q 1013 721 1072 764 q 1132 806 1192 817 q 1120 762 1053 672 q 986 583 909 470 q 913 469 918 469 q 924 469 928 469 q 947 469 967 473 q 965 498 943 511 z"},"T":{"x_min":0,"x_max":788,"ha":788,"o":"m 134 346 q 168 391 216 436 q 264 481 318 520 q 318 527 318 534 q 318 542 319 548 q 324 599 360 657 q 396 715 468 773 q 543 833 630 866 q 718 900 812 905 q 835 907 860 908 q 886 908 909 908 q 975 908 1042 905 q 1109 902 1175 898 q 1241 893 1302 890 q 1363 888 1421 888 q 1516 888 1595 900 q 1674 912 1731 947 q 1636 779 1404 779 q 1361 779 1301 784 q 1241 789 1179 794 q 1175 794 1172 795 q 1168 796 1164 796 q 1101 740 1043 660 q 985 581 917 480 l 891 444 q 848 379 798 310 q 747 240 690 174 q 633 108 570 48 q 508 -11 442 -57 q 375 -103 305 -130 q 235 -158 162 -161 q 118 -161 86 -144 q 54 -126 34 -96 q 14 -65 7 -22 q 0 20 6 71 q 16 131 48 203 q 81 275 134 346 z m 375 575 l 375 562 q 428 596 482 625 q 536 654 586 674 q 636 695 678 706 q 721 718 752 719 q 794 721 808 698 q 823 675 816 634 q 811 603 794 564 q 778 524 754 481 q 729 438 697 394 q 665 349 629 308 q 602 276 570 242 q 537 207 500 176 q 464 146 423 124 q 382 102 338 95 q 277 90 256 116 q 235 141 242 183 q 248 218 271 258 q 294 298 326 332 q 359 367 398 390 q 437 413 474 413 q 482 413 492 407 q 501 401 508 390 q 516 380 520 366 q 524 351 523 333 q 493 354 476 354 q 448 354 418 336 q 388 317 362 289 q 336 261 318 230 q 299 198 295 172 q 292 151 302 138 q 313 125 342 127 q 366 129 400 150 q 434 170 470 199 q 507 228 542 262 q 577 297 601 327 q 634 367 664 410 q 695 453 720 494 q 745 535 762 572 q 778 609 782 636 q 787 661 777 674 q 767 688 741 686 q 718 685 685 672 q 652 659 612 636 q 572 614 526 583 q 481 552 434 515 q 463 517 504 539 q 546 561 596 609 q 599 570 581 538 q 563 505 536 482 q 509 459 480 446 q 452 433 436 433 q 388 433 358 455 q 320 421 280 382 q 241 344 213 313 q 184 280 158 242 q 132 205 111 166 q 90 128 76 90 q 61 53 55 19 q 46 -40 70 -78 q 94 -116 165 -117 q 239 -118 310 -76 q 382 -34 452 36 q 521 106 590 194 q 658 283 725 375 q 774 441 823 506 q 872 570 920 626 q 969 683 1018 728 q 1066 773 1115 800 q 1040 806 957 812 q 874 818 781 820 q 751 821 712 816 q 674 810 634 799 q 594 788 556 772 q 519 755 491 734 q 432 690 405 646 q 378 601 376 566 z"},"P":{"x_min":0,"x_max":1096,"ha":1096,"o":"m 115 346 q 150 394 196 440 q 243 487 296 528 q 349 570 406 606 q 462 641 517 667 q 546 724 606 771 q 665 818 737 850 q 791 875 846 887 q 901 899 955 903 q 963 903 970 904 q 976 904 983 904 q 1056 904 1121 886 q 1186 869 1233 838 q 1280 808 1306 765 q 1331 722 1326 671 q 1321 617 1291 557 q 1261 497 1213 438 q 1165 379 1101 326 q 1037 272 964 230 q 890 188 810 162 q 729 135 648 131 q 597 71 542 18 q 486 -35 426 -74 q 367 -114 303 -137 q 239 -160 170 -161 q 125 -161 92 -144 q 58 -127 37 -96 q 16 -66 7 -23 q -2 20 2 71 q 10 132 37 202 q 64 273 115 346 z m 444 418 q 410 420 390 403 q 371 386 362 354 q 361 349 360 347 q 359 345 360 341 q 386 360 416 372 q 447 384 476 384 q 502 384 512 372 q 521 361 520 343 q 518 333 512 318 q 505 304 497 287 q 483 307 468 315 q 454 323 440 323 q 421 323 401 314 q 381 306 361 291 q 372 259 400 238 q 427 216 460 202 q 494 231 525 264 q 556 297 580 328 q 611 368 639 410 q 667 453 688 494 q 709 534 722 570 q 736 606 739 633 q 742 657 736 671 q 729 685 709 686 q 686 686 652 673 q 617 660 575 637 q 573 632 573 628 q 573 623 571 618 q 569 586 585 572 q 601 558 622 558 q 643 558 663 570 q 683 581 690 598 q 698 572 692 551 q 687 530 674 515 q 660 500 641 492 q 622 483 604 483 q 548 483 522 514 q 497 544 496 586 q 418 531 338 460 q 259 388 196 313 q 169 280 145 242 q 121 205 102 166 q 83 128 70 90 q 58 53 54 19 q 48 -40 74 -78 q 100 -116 171 -117 q 221 -118 268 -99 q 315 -80 360 -46 q 405 -12 448 35 q 492 82 535 136 q 517 139 500 143 q 483 147 466 153 q 432 127 398 111 q 364 95 332 95 q 277 95 255 117 q 233 139 236 173 q 239 203 262 239 q 285 275 314 307 q 314 318 314 331 q 314 344 316 358 q 318 375 322 390 q 325 406 336 421 q 349 439 368 450 q 387 462 404 462 q 419 462 430 452 q 442 442 444 418 z m 1224 670 q 1229 717 1207 752 q 1185 788 1142 812 q 1074 756 1014 668 q 954 581 885 469 l 867 444 q 830 383 788 318 q 745 254 697 190 q 762 203 826 231 q 889 259 946 298 q 1003 336 1052 382 q 1101 428 1138 477 q 1175 526 1198 576 q 1220 625 1224 670 z m 715 724 q 759 724 774 700 q 790 675 786 633 q 783 602 768 562 q 753 523 730 480 q 707 437 676 392 q 646 347 613 306 q 592 280 565 248 q 538 216 509 189 q 523 185 536 183 q 550 181 561 179 l 567 179 q 603 226 636 275 q 670 324 705 374 l 705 373 q 755 448 806 520 q 856 592 908 652 q 960 713 1013 758 q 1066 802 1122 822 q 1048 854 952 853 q 901 852 849 840 q 797 829 748 807 q 708 787 670 761 q 633 735 609 705 q 641 716 666 720 q 692 724 715 724 z m 335 137 q 370 137 420 173 q 391 188 368 209 q 345 230 331 262 q 311 242 298 220 q 285 197 283 178 q 280 160 292 148 q 304 137 335 137 z"},"t":{"x_min":0,"x_max":222,"ha":222,"o":"m 713 487 q 695 506 654 512 q 614 519 566 518 q 518 518 468 514 q 419 509 382 506 q 377 498 352 464 q 328 431 294 385 q 259 339 220 286 q 181 234 148 188 q 114 142 90 110 q 65 77 61 70 q 53 58 56 54 q 59 50 68 51 q 77 52 90 58 q 102 63 113 70 q 126 78 142 90 q 158 103 174 118 q 191 132 208 147 q 225 162 239 176 l 327 262 q 325 257 322 249 q 319 241 312 228 q 306 216 294 200 q 282 183 262 162 l 230 132 q 217 118 193 96 q 169 73 140 52 q 112 31 82 16 q 51 0 25 0 q -18 0 -24 19 q -31 38 -14 71 q -3 92 26 140 q 56 187 94 246 q 132 306 174 370 q 215 434 251 489 q 230 489 222 498 q 213 507 218 538 q 228 523 244 524 q 261 526 279 533 q 288 547 299 564 q 310 580 320 595 q 329 610 336 620 q 342 631 343 633 q 351 647 355 655 q 359 663 360 671 q 360 672 370 663 q 380 654 392 640 q 404 627 414 612 q 423 596 423 585 q 423 581 416 566 q 410 551 407 544 q 439 548 476 553 q 513 558 549 561 q 585 564 618 563 q 650 562 674 554 q 697 547 708 531 q 719 515 713 487 z"},"M":{"x_min":0,"x_max":1176,"ha":1176,"o":"m 1100 -154 q 1077 -157 1058 -157 q 1022 -157 1000 -146 q 977 -134 966 -114 q 955 -94 954 -66 q 953 -37 960 -2 q 969 40 992 93 q 1014 146 1045 202 q 1076 257 1112 312 q 1147 368 1182 416 q 1202 442 1228 474 q 1253 507 1284 541 q 1218 481 1149 414 q 1080 346 1014 274 q 948 202 886 128 q 825 54 773 -19 q 761 -36 747 -52 q 733 -69 715 -83 q 697 -97 674 -106 q 650 -116 618 -117 q 633 -97 650 -78 q 666 -58 683 -36 q 733 36 780 119 q 827 202 874 290 q 913 364 956 440 q 999 516 1045 585 l 1008 540 q 988 515 969 490 q 950 466 930 443 q 922 434 913 423 q 904 412 897 403 q 846 342 791 278 q 736 213 676 151 q 617 89 554 34 q 491 -22 426 -64 q 360 -106 292 -132 q 223 -158 154 -161 q 110 -161 78 -144 q 47 -126 28 -96 q 10 -65 6 -22 q 1 20 10 71 q 24 132 59 202 q 94 273 153 346 q 191 393 243 438 q 295 484 354 525 q 413 566 475 601 q 537 636 595 662 q 653 688 704 704 q 755 721 791 724 q 829 723 845 698 q 861 672 853 629 q 846 598 828 559 q 811 520 786 478 q 760 436 728 393 q 696 350 660 310 q 631 278 594 242 q 558 207 517 176 q 476 146 432 124 q 388 101 343 95 q 282 90 262 116 q 243 141 252 183 q 259 218 284 258 q 310 298 344 332 q 379 367 419 390 q 459 413 496 413 q 504 413 513 407 q 522 401 529 390 q 536 380 540 366 q 543 351 541 333 q 512 354 494 354 q 465 354 432 336 q 399 317 370 290 q 340 262 319 231 q 298 200 292 175 q 287 153 300 140 q 313 128 349 132 q 372 135 406 152 q 441 168 478 194 q 516 220 553 252 q 590 285 620 319 q 660 364 693 408 q 726 452 751 492 q 776 533 792 568 q 808 603 814 630 q 821 661 812 678 q 802 694 773 690 q 748 689 710 674 q 673 659 627 632 q 581 606 530 570 q 478 534 426 492 q 374 451 324 405 q 273 359 230 313 q 199 280 171 242 q 143 205 120 166 q 97 128 80 90 q 63 53 56 19 q 44 -40 66 -78 q 88 -116 159 -117 q 204 -118 252 -98 q 300 -78 350 -42 q 400 -7 452 42 q 503 91 555 148 q 607 205 660 268 q 713 331 765 394 q 841 487 920 578 q 999 669 1076 740 q 1154 812 1229 856 q 1304 899 1374 897 l 1354 887 q 1295 844 1242 782 q 1189 720 1140 645 q 1090 570 1044 486 q 997 401 951 314 q 942 297 938 288 q 933 279 929 271 q 925 263 920 254 q 915 244 905 226 q 979 308 1065 394 q 1151 480 1244 561 q 1337 642 1434 713 q 1532 784 1629 836 q 1680 865 1736 884 q 1791 903 1846 898 q 1779 878 1715 840 q 1651 802 1592 752 q 1532 703 1478 646 q 1424 589 1376 531 q 1329 473 1289 417 q 1249 361 1219 314 q 1199 284 1176 244 q 1152 205 1130 162 q 1108 120 1090 76 q 1073 32 1065 -7 q 1054 -53 1062 -90 q 1069 -128 1100 -154 z"},"g":{"x_min":0,"x_max":359,"ha":359,"o":"m -269 -239 q -247 -218 -212 -194 q -177 -171 -135 -147 q -93 -123 -46 -98 q 1 -74 47 -52 q 79 -13 112 31 q 146 75 179 126 q 164 108 138 84 q 112 61 86 40 q 59 19 36 6 q 13 -7 3 -3 q -17 6 -31 18 q -45 31 -39 50 q -29 82 0 130 q 30 178 77 229 q 93 246 116 268 q 138 291 164 311 q 191 331 221 345 q 251 359 282 359 q 320 360 340 340 q 359 321 356 301 q 355 292 350 284 q 345 276 336 276 q 334 286 328 299 q 323 312 298 314 q 283 314 263 301 q 243 288 223 270 q 203 251 184 232 q 166 212 156 200 q 156 200 144 186 q 132 172 116 153 q 100 134 84 115 q 68 96 59 84 q 53 76 58 74 q 62 71 73 76 q 86 83 108 100 q 130 118 154 140 q 179 162 203 184 q 227 207 243 224 l 246 228 l 257 238 q 266 249 274 260 q 283 271 291 284 q 291 285 299 278 q 307 272 316 262 q 326 253 334 241 q 341 229 341 218 q 340 208 330 196 q 320 184 303 164 q 281 136 256 102 q 231 67 199 27 q 223 43 245 60 q 267 76 288 94 q 310 112 332 132 q 354 153 378 176 l 466 262 q 464 257 461 249 q 458 241 452 228 q 445 216 433 200 q 421 183 400 162 l 394 157 q 353 119 322 92 q 291 64 264 42 q 236 20 209 3 q 182 -14 149 -31 q 120 -67 88 -104 q 57 -141 26 -174 q -6 -208 -37 -236 q -68 -265 -96 -284 q -123 -302 -154 -312 q -184 -322 -212 -325 q -239 -328 -261 -324 q -283 -320 -294 -309 q -304 -298 -300 -280 q -295 -263 -269 -239 z m -157 -253 q -135 -239 -92 -200 q -48 -162 6 -100 q -60 -134 -118 -172 q -177 -209 -215 -235 q -258 -265 -268 -280 q -277 -294 -264 -295 q -252 -296 -222 -285 q -192 -274 -157 -253 z"},"j":{"x_min":0,"x_max":191,"ha":191,"o":"m 25 144 q 59 193 77 220 q 95 246 104 262 q 114 278 120 290 q 126 301 135 320 q 142 334 146 344 q 150 353 151 362 q 151 363 160 355 q 170 347 181 335 q 192 323 202 309 q 211 295 210 285 q 210 274 204 260 q 197 247 183 226 q 151 181 114 131 q 76 81 33 27 q 57 43 79 60 q 101 76 122 94 q 143 112 165 132 q 187 153 212 176 l 299 262 q 297 257 294 249 q 291 241 284 228 q 278 216 266 200 q 254 183 234 162 l 228 157 q 187 119 156 92 q 125 64 98 42 q 70 20 44 3 q 17 -14 -16 -31 q -45 -67 -76 -104 q -108 -141 -140 -174 q -172 -208 -204 -236 q -235 -265 -263 -284 q -290 -302 -320 -312 q -351 -322 -378 -325 q -406 -328 -428 -324 q -450 -320 -460 -309 q -470 -298 -466 -280 q -461 -263 -436 -239 q -414 -218 -380 -195 q -346 -172 -304 -148 q -263 -125 -217 -101 q -171 -77 -126 -55 q -51 32 25 144 z m -324 -253 q -302 -239 -261 -202 q -220 -165 -167 -105 q -232 -137 -288 -174 q -344 -210 -382 -235 q -425 -265 -434 -280 q -443 -294 -430 -295 q -418 -296 -388 -285 q -359 -274 -324 -253 z m 252 504 q 285 489 298 474 q 311 458 310 442 q 310 427 300 412 q 290 397 277 382 q 264 368 252 354 q 241 341 237 329 q 209 342 199 356 q 189 370 190 384 q 191 399 200 414 q 210 429 221 444 q 232 459 241 474 q 250 489 252 504 z"},"i":{"x_min":0,"x_max":186,"ha":186,"o":"m -9 71 q 7 101 30 142 q 53 182 75 220 q 97 258 114 288 q 131 317 136 324 q 144 338 148 346 q 151 353 152 362 q 152 363 162 355 q 171 347 182 335 q 193 323 202 309 q 211 295 211 285 q 211 274 205 260 q 199 246 183 226 q 183 226 176 216 q 169 207 158 192 q 146 178 132 160 q 118 141 105 124 q 92 106 82 92 q 71 77 66 70 q 58 58 61 56 q 64 54 70 57 q 77 60 86 66 q 94 71 97 74 q 120 93 150 121 q 179 149 208 176 l 296 262 q 294 257 291 249 q 288 241 282 228 q 275 216 263 200 q 251 183 230 162 l 224 157 l 200 132 q 179 111 157 89 q 135 67 114 48 q 90 28 68 15 q 47 2 31 0 q 20 -1 9 4 q -2 8 -8 18 q -15 27 -16 40 q -17 54 -9 71 z m 252 504 q 285 489 298 474 q 311 458 310 442 q 310 427 300 412 q 290 397 277 382 q 264 368 252 354 q 241 341 237 329 q 209 342 199 356 q 189 370 190 384 q 191 399 200 414 q 210 429 221 444 q 232 459 241 474 q 250 489 252 504 z"},"y":{"x_min":0,"x_max":382,"ha":382,"o":"m 224 157 l 200 132 q 179 111 157 89 q 135 67 114 48 q 90 28 68 15 q 47 2 31 0 q 20 -1 9 4 q -2 8 -8 18 q -15 27 -16 40 q -17 54 -9 71 q 7 101 30 142 q 53 182 75 220 q 97 258 114 288 q 131 317 136 324 q 144 338 148 346 q 151 353 152 362 q 152 363 162 355 q 171 347 182 335 q 193 323 202 309 q 211 295 211 285 q 211 274 205 260 q 199 246 183 226 q 183 226 176 216 q 169 207 158 192 q 146 178 132 160 q 118 141 105 124 q 92 106 82 92 q 71 77 66 70 q 58 58 61 56 q 64 54 70 57 q 77 60 86 66 q 94 71 97 74 q 120 93 150 121 q 179 149 208 176 l 291 257 q 302 275 308 287 q 314 299 325 320 q 332 334 336 344 q 341 353 341 362 q 341 363 350 355 q 360 347 371 335 q 382 323 391 309 q 400 295 399 285 q 399 266 372 226 q 340 181 303 131 q 266 81 223 27 q 247 43 268 60 q 290 76 312 94 q 333 112 355 132 q 377 153 401 176 l 490 262 q 487 257 484 249 q 482 241 475 228 q 468 216 456 200 q 444 183 423 162 q 380 122 348 94 q 316 65 288 43 q 260 21 233 4 q 206 -14 173 -31 q 143 -67 112 -104 q 80 -141 48 -174 q 17 -208 -14 -236 q -45 -265 -73 -284 q -100 -302 -130 -312 q -161 -322 -188 -325 q -216 -328 -238 -324 q -260 -320 -270 -309 q -281 -298 -276 -280 q -272 -263 -247 -239 q -225 -218 -191 -195 q -157 -172 -116 -148 q -74 -125 -28 -101 q 18 -77 63 -55 q 98 -12 137 38 q 176 87 215 144 z m -134 -253 q -112 -239 -72 -202 q -31 -165 22 -105 q -43 -137 -99 -174 q -155 -210 -192 -235 q -235 -265 -244 -280 q -254 -294 -242 -295 q -229 -296 -199 -285 q -169 -274 -134 -253 z"},"p":{"x_min":0,"x_max":377,"ha":377,"o":"m 148 133 q 150 146 153 158 q 156 170 161 182 q 149 170 140 160 q 130 151 122 141 q 113 131 104 119 q 94 107 82 92 q 71 75 70 61 q 69 47 85 50 q 94 51 110 61 q 126 71 146 88 q 143 110 148 133 z m 194 161 q 191 154 189 141 q 187 128 186 119 q 216 147 249 182 q 282 216 302 244 q 324 273 333 294 q 342 314 339 319 q 337 323 322 314 q 308 305 297 296 q 255 264 230 232 q 205 200 194 161 z m 364 106 q 347 90 328 76 q 309 61 290 50 q 271 38 254 32 q 236 25 223 25 q 212 25 204 26 q 195 27 187 31 q 164 17 146 8 q 127 0 113 0 q 84 0 66 18 q 47 37 42 63 q 14 26 -16 -14 q -46 -54 -74 -94 q -103 -133 -128 -170 q -152 -207 -170 -238 q -189 -268 -198 -290 q -208 -313 -205 -323 q -209 -319 -216 -312 q -224 -304 -230 -293 q -235 -282 -236 -266 q -238 -250 -230 -227 q -226 -213 -208 -183 q -190 -153 -164 -113 q -138 -73 -106 -26 q -74 21 -41 68 q -8 115 23 159 q 54 203 79 237 q 104 270 120 293 q 136 316 140 322 q 148 336 150 344 q 151 353 152 362 q 152 363 160 356 q 169 348 180 336 q 190 324 199 310 q 208 296 209 286 q 238 315 266 336 q 294 357 315 362 q 331 365 350 362 q 370 360 387 353 q 404 346 415 336 q 426 326 426 314 q 424 287 406 253 q 388 219 360 184 q 331 150 296 117 q 262 84 228 59 l 229 59 q 251 59 279 76 q 307 94 337 120 q 354 134 370 148 q 385 163 399 176 l 487 262 q 485 257 482 249 q 479 241 472 228 q 466 216 454 200 q 442 183 422 162 l 416 157 l 390 132 z"},"X":{"x_min":0,"x_max":972,"ha":972,"o":"m 445 609 q 451 648 474 684 q 496 720 530 752 q 564 785 606 812 q 649 839 696 859 q 742 879 790 891 q 837 903 881 905 q 922 905 960 894 q 997 883 1026 862 q 1056 840 1074 807 q 1092 774 1095 729 q 1095 706 1092 682 q 1090 658 1085 633 q 1080 615 1076 596 q 1071 578 1063 559 q 1145 632 1225 696 q 1305 761 1380 809 q 1456 857 1526 885 q 1595 913 1657 913 q 1680 913 1700 909 q 1638 889 1572 851 q 1507 813 1440 762 q 1373 712 1304 652 q 1235 593 1166 530 l 1075 446 q 1049 423 1024 398 q 998 373 969 347 l 953 314 q 915 240 882 168 q 850 97 836 36 q 825 -19 836 -69 q 846 -119 891 -163 q 861 -167 834 -162 q 806 -156 784 -142 q 763 -128 749 -106 q 735 -84 731 -55 q 725 -15 736 36 q 743 69 756 106 q 770 144 786 182 q 707 114 624 52 q 542 -11 461 -58 q 380 -106 302 -134 q 224 -162 154 -161 q 109 -160 78 -142 q 46 -125 28 -94 q 10 -64 6 -22 q 1 21 11 72 q 24 134 59 204 q 94 273 153 346 q 205 411 282 472 q 358 532 440 583 q 440 589 442 596 q 443 602 445 609 z m 791 724 q 834 727 848 700 q 862 674 853 629 q 846 598 828 559 q 811 520 786 478 q 760 436 728 393 q 696 350 660 310 q 631 278 594 242 q 558 207 517 176 q 476 146 432 124 q 388 101 343 95 q 282 90 262 116 q 243 141 252 183 q 259 218 284 258 q 310 298 344 332 q 379 367 419 390 q 459 413 496 413 q 504 413 513 407 q 522 401 529 390 q 536 380 540 366 q 543 351 541 333 q 512 354 494 354 q 465 354 432 336 q 399 317 370 290 q 340 262 319 231 q 298 200 292 175 q 287 153 300 140 q 313 128 349 132 q 372 135 406 152 q 441 168 478 194 q 516 220 553 252 q 590 285 620 319 q 660 364 693 408 q 726 452 751 492 q 776 533 792 568 q 808 603 814 630 q 821 661 812 678 q 802 694 773 690 q 737 688 674 656 q 610 624 535 572 q 542 553 559 545 q 576 537 596 537 q 623 537 653 556 q 683 574 700 605 q 702 570 700 553 q 695 529 680 511 q 666 493 648 480 q 629 467 608 460 q 588 454 570 454 q 528 454 500 472 q 472 490 457 516 q 399 471 338 418 q 278 364 230 313 q 200 280 172 242 q 143 205 120 167 q 97 129 80 91 q 63 53 56 20 q 50 -9 52 -34 q 54 -59 66 -77 q 78 -95 101 -106 q 124 -116 159 -117 q 223 -119 308 -74 q 392 -29 488 45 q 584 119 686 212 q 789 305 890 399 q 927 472 956 542 q 986 611 999 671 q 1002 685 1004 700 q 1006 714 1006 728 q 1006 794 975 832 q 944 870 875 870 q 833 866 782 849 q 730 832 681 802 q 632 773 592 732 q 553 690 535 637 q 612 676 679 699 q 746 722 791 724 z"},"Y":{"x_min":0,"x_max":779,"ha":779,"o":"m 727 317 q 752 332 780 357 q 809 382 841 414 q 873 446 907 483 q 941 520 977 559 q 1030 618 1086 677 q 1141 736 1198 786 q 1255 835 1313 869 q 1371 903 1428 912 q 1380 878 1324 822 q 1267 767 1210 702 q 1153 638 1098 569 q 1043 500 997 439 q 941 365 876 284 q 811 203 740 126 q 668 48 592 -22 q 515 -91 438 -144 q 360 -196 283 -227 q 206 -258 133 -258 q 53 -258 16 -210 q -22 -163 -5 -83 q 3 -38 32 15 q 62 68 115 127 q 142 158 184 188 q 225 219 274 244 q 324 268 378 283 q 431 298 483 297 q 525 295 546 269 q 566 243 555 195 q 547 158 518 108 q 490 59 436 -2 q 420 -19 396 -40 q 372 -61 344 -80 q 315 -99 284 -112 q 252 -126 222 -128 q 195 -130 178 -124 q 160 -118 151 -107 q 142 -96 140 -80 q 138 -64 142 -46 q 148 -18 166 12 q 184 43 209 68 q 234 94 263 110 q 292 127 320 127 q 328 127 338 122 q 347 117 354 108 q 362 99 366 86 q 371 74 371 60 q 342 76 327 76 q 304 76 280 64 q 257 51 236 32 q 216 13 201 -9 q 186 -31 182 -50 q 178 -69 188 -80 q 199 -92 231 -89 q 250 -88 272 -79 q 295 -70 316 -56 q 338 -43 358 -27 q 379 -11 394 4 q 445 61 474 110 q 502 158 510 192 q 516 221 506 238 q 497 256 473 255 q 441 254 402 238 q 362 223 322 200 q 282 176 245 148 q 208 119 181 92 q 136 41 104 -14 q 72 -68 63 -111 q 52 -158 70 -188 q 88 -218 139 -218 q 183 -218 232 -197 q 281 -176 333 -139 q 385 -102 440 -52 q 494 -3 550 55 q 605 113 660 176 q 714 238 766 301 q 731 277 698 264 q 664 251 632 252 q 592 254 571 274 q 550 294 561 337 q 567 364 584 392 q 600 421 624 452 q 647 482 676 514 q 704 546 734 578 q 760 606 786 635 q 811 664 834 693 q 857 722 876 750 q 894 778 906 804 q 931 872 847 872 q 786 872 732 850 q 678 828 630 794 q 582 760 542 718 q 501 677 467 639 q 401 563 360 494 q 319 426 309 380 q 303 351 311 334 q 319 317 343 317 q 368 316 404 336 q 440 357 480 389 q 520 421 560 462 q 599 503 632 543 q 665 583 688 619 q 710 655 715 679 q 720 704 699 704 q 670 704 640 684 q 611 665 587 637 q 563 609 548 578 q 533 548 533 526 q 497 531 484 547 q 471 563 476 586 q 481 610 502 638 q 524 665 556 688 q 588 712 628 728 q 667 744 709 744 q 740 744 750 724 q 760 703 753 676 q 750 658 737 635 q 716 599 686 558 q 655 517 619 478 q 583 438 544 402 q 504 365 466 338 q 428 310 392 293 q 357 276 330 275 q 296 275 274 284 q 253 294 242 310 q 232 327 230 350 q 229 373 235 400 q 242 432 258 467 q 273 502 292 536 q 312 570 334 600 q 355 631 374 653 q 483 779 608 841 q 733 903 853 909 q 886 908 914 898 q 943 887 962 869 q 981 851 989 828 q 997 804 990 777 q 981 744 961 710 q 941 677 916 644 q 890 611 861 579 q 832 547 804 517 q 781 492 758 468 q 736 443 718 420 q 700 397 687 376 q 674 355 670 337 q 665 318 669 310 q 673 303 683 303 q 691 303 703 307 q 715 311 727 318 z"},"c":{"x_min":0,"x_max":280,"ha":280,"o":"m 318 400 q 353 387 364 367 q 376 347 372 326 q 367 304 349 282 q 331 259 306 240 q 282 222 256 208 q 229 195 206 191 q 238 216 259 246 q 280 275 305 316 q 286 312 260 296 q 234 279 208 258 q 182 236 160 212 q 137 189 127 171 q 114 151 102 128 q 90 106 84 86 q 78 67 81 54 q 84 42 102 42 q 116 42 136 50 q 155 57 172 68 q 179 72 188 78 q 196 84 210 95 q 223 106 245 126 q 267 145 301 176 l 389 262 q 387 257 384 249 q 381 241 374 228 q 368 216 356 200 q 344 183 323 162 l 318 157 q 240 82 181 40 q 122 -3 71 -3 q 44 -3 28 6 q 13 15 6 30 q -1 45 0 65 q 2 85 8 108 q 17 138 44 182 q 70 225 108 266 q 145 307 188 337 q 232 367 276 369 q 284 369 295 367 q 306 365 317 356 q 323 367 322 380 q 320 392 318 400 z"},"6":{"x_min":0,"x_max":1219,"ha":1219,"o":"m 876 781 l 739 657 l 775 471 l 615 565 l 450 471 l 489 652 l 351 781 l 537 801 l 615 972 l 690 802 z m 682 576 l 639 834 l 586 834 l 541 576 l 564 562 l 583 576 l 592 634 l 631 634 l 642 576 l 663 562 z m 628 672 l 598 672 l 612 774 z m 610 21 l 631 21 l 624 39 q 622 42 622 44 q 622 46 619 49 q 619 45 616 39 z m 352 -5 l 352 3 l 363 3 l 363 -5 z m 844 -5 l 844 58 l 852 58 l 852 1 l 883 1 l 883 -5 z m 787 -5 l 787 58 l 832 58 l 832 49 l 795 49 l 795 30 l 829 30 l 829 22 l 795 22 l 795 1 l 832 1 l 832 -5 z m 565 -5 l 565 21 l 541 58 l 552 58 l 564 39 q 567 30 570 28 q 571 30 572 33 q 574 36 577 39 l 589 58 l 598 58 l 573 21 l 573 -5 z m 376 -5 l 376 58 l 400 58 q 403 58 406 56 q 408 55 409 55 q 415 54 417 49 q 420 46 420 40 q 420 36 417 34 q 415 28 411 28 q 415 27 420 22 q 423 16 423 13 q 423 10 422 8 q 421 7 421 6 q 420 0 415 0 q 414 -3 412 -3 q 411 -3 409 -5 l 400 -5 z m 205 -5 l 187 58 l 196 58 l 205 16 q 207 12 207 9 q 207 6 208 3 q 210 10 210 15 l 222 58 l 232 58 l 241 25 q 243 18 244 14 q 246 9 246 3 q 247 6 247 9 q 247 12 249 16 l 259 58 l 267 58 l 249 -5 l 241 -5 l 229 42 q 228 46 228 49 q 226 46 226 42 l 213 -5 z m 123 -5 l 105 58 l 115 58 l 123 16 q 123 9 127 3 q 129 10 129 15 l 141 58 l 150 58 l 160 25 q 162 18 162 14 q 163 9 163 3 q 166 6 166 9 q 166 12 168 16 l 177 58 l 186 58 l 168 -5 l 160 -5 l 148 42 q 147 46 147 49 q 144 46 144 42 l 130 -5 z m 384 30 l 397 30 q 403 30 405 33 q 409 33 409 34 q 411 36 411 40 q 411 45 409 46 l 408 46 q 406 46 406 47 q 406 48 405 48 q 403 49 396 49 l 384 49 z m 285 -5 l 268 58 l 277 58 l 286 16 q 288 12 288 9 q 288 6 291 3 q 291 9 292 11 q 292 13 292 15 l 304 58 l 313 58 l 324 25 q 325 18 326 14 q 327 9 327 3 q 330 6 330 9 q 330 12 331 16 l 342 58 l 349 58 l 331 -5 l 324 -5 l 312 42 q 310 46 310 49 q 307 46 307 42 l 294 -5 z m 664 28 l 682 28 q 685 28 688 29 q 690 30 693 30 q 696 30 696 34 q 697 36 697 40 q 697 45 694 48 q 693 49 684 49 l 664 49 z m 384 1 l 400 1 q 403 1 405 3 l 409 3 q 411 6 414 7 l 414 13 q 414 16 411 19 q 411 22 408 22 l 397 22 l 384 22 z m 435 -5 l 435 58 l 442 58 l 442 -5 z m 985 25 q 985 12 990 7 q 996 1 1006 1 q 1017 1 1021 7 q 1027 12 1027 27 q 1027 34 1026 39 q 1023 46 1018 48 q 1014 49 1006 49 q 997 49 993 45 q 985 39 985 25 z m 976 25 q 976 42 985 49 q 991 58 1006 58 q 1011 58 1014 56 q 1018 55 1021 54 q 1026 52 1028 49 q 1030 46 1033 42 q 1035 39 1035 27 q 1035 13 1032 9 q 1027 1 1021 -3 q 1015 -6 1006 -6 q 1002 -6 998 -6 q 994 -5 990 -3 q 987 0 984 3 q 982 6 981 9 q 979 13 978 17 q 976 21 976 25 z m 592 -5 l 616 58 l 625 58 l 651 -5 l 642 -5 l 634 13 l 609 13 l 600 -5 z m 459 -5 l 459 58 l 466 58 l 466 1 l 495 1 l 495 -5 z m 892 -5 l 892 3 l 903 3 l 903 -5 z m 748 19 l 748 27 l 774 27 l 774 3 q 768 -3 762 -5 q 759 -5 755 -6 q 751 -6 748 -6 q 739 -6 733 -3 q 729 0 726 2 q 723 4 721 9 q 720 13 718 17 q 717 21 717 25 q 717 31 718 34 q 720 37 721 42 q 724 51 732 54 q 735 55 740 56 q 744 58 748 58 q 756 58 760 55 q 766 54 768 49 q 772 45 774 40 l 766 39 q 766 40 762 45 q 762 48 756 49 l 748 49 l 739 49 q 735 48 732 45 q 732 43 727 39 q 727 36 726 33 q 726 30 726 27 q 726 16 729 13 q 735 4 736 3 q 741 1 748 1 q 754 1 759 3 q 762 6 764 6 q 765 6 766 7 l 766 19 z m 657 -5 l 657 58 l 684 58 q 688 58 691 56 q 694 55 697 55 q 702 54 703 49 q 706 46 706 40 q 706 33 702 28 q 700 27 696 26 q 693 25 688 22 q 691 22 692 22 q 693 21 694 21 q 696 18 696 16 q 697 13 700 10 l 712 -5 l 702 -5 l 693 7 q 690 10 689 12 q 688 15 687 16 q 687 19 686 19 q 684 19 682 21 l 681 21 q 679 21 679 22 q 679 22 678 22 l 675 22 l 664 22 l 664 -5 z m 505 -5 l 505 58 l 514 58 l 514 1 l 544 1 l 544 -5 z m 961 16 l 969 15 q 966 3 960 0 q 954 -6 943 -6 q 934 -6 928 -3 q 924 0 922 3 q 921 6 918 9 q 915 21 915 27 q 915 33 918 45 q 925 52 928 54 q 933 55 936 56 q 939 58 943 58 q 948 58 952 56 q 957 55 960 54 q 963 51 965 48 q 967 45 969 40 l 960 39 q 960 45 954 48 q 951 49 943 49 q 934 49 931 48 q 928 46 928 44 q 927 42 924 39 q 924 36 923 33 q 922 30 922 27 q 922 18 927 13 q 927 10 928 8 q 930 6 931 3 q 936 1 943 1 q 951 1 955 6 q 960 10 961 16 z m 1047 -5 l 1047 58 l 1059 58 l 1074 13 q 1074 10 1076 8 q 1077 6 1077 3 q 1077 4 1080 13 l 1093 58 l 1105 58 l 1105 -5 l 1098 -5 l 1098 46 l 1080 -5 l 1072 -5 l 1054 48 l 1054 -5 z m 610 21 l 631 21 l 624 39 q 622 42 622 44 q 622 46 619 49 q 619 45 616 39 z m 352 -5 l 352 3 l 363 3 l 363 -5 z m 844 -5 l 844 58 l 852 58 l 852 1 l 883 1 l 883 -5 z m 787 -5 l 787 58 l 832 58 l 832 49 l 795 49 l 795 30 l 829 30 l 829 22 l 795 22 l 795 1 l 832 1 l 832 -5 z m 565 -5 l 565 21 l 541 58 l 552 58 l 564 39 q 567 30 570 28 q 571 30 572 33 q 574 36 577 39 l 589 58 l 598 58 l 573 21 l 573 -5 z m 376 -5 l 376 58 l 400 58 q 403 58 406 56 q 408 55 409 55 q 415 54 417 49 q 420 46 420 40 q 420 36 417 34 q 415 28 411 28 q 415 27 420 22 q 423 16 423 13 q 423 10 422 8 q 421 7 421 6 q 420 0 415 0 q 414 -3 412 -3 q 411 -3 409 -5 l 400 -5 z m 205 -5 l 187 58 l 196 58 l 205 16 q 207 12 207 9 q 207 6 208 3 q 210 10 210 15 l 222 58 l 232 58 l 241 25 q 243 18 244 14 q 246 9 246 3 q 247 6 247 9 q 247 12 249 16 l 259 58 l 267 58 l 249 -5 l 241 -5 l 229 42 q 228 46 228 49 q 226 46 226 42 l 213 -5 z m 123 -5 l 105 58 l 115 58 l 123 16 q 123 9 127 3 q 129 10 129 15 l 141 58 l 150 58 l 160 25 q 162 18 162 14 q 163 9 163 3 q 166 6 166 9 q 166 12 168 16 l 177 58 l 186 58 l 168 -5 l 160 -5 l 148 42 q 147 46 147 49 q 144 46 144 42 l 130 -5 z m 384 30 l 397 30 q 403 30 405 33 q 409 33 409 34 q 411 36 411 40 q 411 45 409 46 l 408 46 q 406 46 406 47 q 406 48 405 48 q 403 49 396 49 l 384 49 z m 285 -5 l 268 58 l 277 58 l 286 16 q 288 12 288 9 q 288 6 291 3 q 291 9 292 11 q 292 13 292 15 l 304 58 l 313 58 l 324 25 q 325 18 326 14 q 327 9 327 3 q 330 6 330 9 q 330 12 331 16 l 342 58 l 349 58 l 331 -5 l 324 -5 l 312 42 q 310 46 310 49 q 307 46 307 42 l 294 -5 z m 664 28 l 682 28 q 685 28 688 29 q 690 30 693 30 q 696 30 696 34 q 697 36 697 40 q 697 45 694 48 q 693 49 684 49 l 664 49 z m 384 1 l 400 1 q 403 1 405 3 l 409 3 q 411 6 414 7 l 414 13 q 414 16 411 19 q 411 22 408 22 l 397 22 l 384 22 z m 435 -5 l 435 58 l 442 58 l 442 -5 z m 985 25 q 985 12 990 7 q 996 1 1006 1 q 1017 1 1021 7 q 1027 12 1027 27 q 1027 34 1026 39 q 1023 46 1018 48 q 1014 49 1006 49 q 997 49 993 45 q 985 39 985 25 z m 976 25 q 976 42 985 49 q 991 58 1006 58 q 1011 58 1014 56 q 1018 55 1021 54 q 1026 52 1028 49 q 1030 46 1033 42 q 1035 39 1035 27 q 1035 13 1032 9 q 1027 1 1021 -3 q 1015 -6 1006 -6 q 1002 -6 998 -6 q 994 -5 990 -3 q 987 0 984 3 q 982 6 981 9 q 979 13 978 17 q 976 21 976 25 z m 592 -5 l 616 58 l 625 58 l 651 -5 l 642 -5 l 634 13 l 609 13 l 600 -5 z m 459 -5 l 459 58 l 466 58 l 466 1 l 495 1 l 495 -5 z m 892 -5 l 892 3 l 903 3 l 903 -5 z m 748 19 l 748 27 l 774 27 l 774 3 q 768 -3 762 -5 q 759 -5 755 -6 q 751 -6 748 -6 q 739 -6 733 -3 q 729 0 726 2 q 723 4 721 9 q 720 13 718 17 q 717 21 717 25 q 717 31 718 34 q 720 37 721 42 q 724 51 732 54 q 735 55 740 56 q 744 58 748 58 q 756 58 760 55 q 766 54 768 49 q 772 45 774 40 l 766 39 q 766 40 762 45 q 762 48 756 49 l 748 49 l 739 49 q 735 48 732 45 q 732 43 727 39 q 727 36 726 33 q 726 30 726 27 q 726 16 729 13 q 735 4 736 3 q 741 1 748 1 q 754 1 759 3 q 762 6 764 6 q 765 6 766 7 l 766 19 z m 657 -5 l 657 58 l 684 58 q 688 58 691 56 q 694 55 697 55 q 702 54 703 49 q 706 46 706 40 q 706 33 702 28 q 700 27 696 26 q 693 25 688 22 q 691 22 692 22 q 693 21 694 21 q 696 18 696 16 q 697 13 700 10 l 712 -5 l 702 -5 l 693 7 q 690 10 689 12 q 688 15 687 16 q 687 19 686 19 q 684 19 682 21 l 681 21 q 679 21 679 22 q 679 22 678 22 l 675 22 l 664 22 l 664 -5 z m 505 -5 l 505 58 l 514 58 l 514 1 l 544 1 l 544 -5 z m 961 16 l 969 15 q 966 3 960 0 q 954 -6 943 -6 q 934 -6 928 -3 q 924 0 922 3 q 921 6 918 9 q 915 21 915 27 q 915 33 918 45 q 925 52 928 54 q 933 55 936 56 q 939 58 943 58 q 948 58 952 56 q 957 55 960 54 q 963 51 965 48 q 967 45 969 40 l 960 39 q 960 45 954 48 q 951 49 943 49 q 934 49 931 48 q 928 46 928 44 q 927 42 924 39 q 924 36 923 33 q 922 30 922 27 q 922 18 927 13 q 927 10 928 8 q 930 6 931 3 q 936 1 943 1 q 951 1 955 6 q 960 10 961 16 z m 1047 -5 l 1047 58 l 1059 58 l 1074 13 q 1074 10 1076 8 q 1077 6 1077 3 q 1077 4 1080 13 l 1093 58 l 1105 58 l 1105 -5 l 1098 -5 l 1098 46 l 1080 -5 l 1072 -5 l 1054 48 l 1054 -5 z m 610 21 l 631 21 l 624 39 q 622 42 622 44 q 622 46 619 49 q 619 45 616 39 z m 352 -5 l 352 3 l 363 3 l 363 -5 z m 844 -5 l 844 58 l 852 58 l 852 1 l 883 1 l 883 -5 z m 787 -5 l 787 58 l 832 58 l 832 49 l 795 49 l 795 30 l 829 30 l 829 22 l 795 22 l 795 1 l 832 1 l 832 -5 z m 565 -5 l 565 21 l 541 58 l 552 58 l 564 39 q 567 30 570 28 q 571 30 572 33 q 574 36 577 39 l 589 58 l 598 58 l 573 21 l 573 -5 z m 376 -5 l 376 58 l 400 58 q 403 58 406 56 q 408 55 409 55 q 415 54 417 49 q 420 46 420 40 q 420 36 417 34 q 415 28 411 28 q 415 27 420 22 q 423 16 423 13 q 423 10 422 8 q 421 7 421 6 q 420 0 415 0 q 414 -3 412 -3 q 411 -3 409 -5 l 400 -5 z m 205 -5 l 187 58 l 196 58 l 205 16 q 207 12 207 9 q 207 6 208 3 q 210 10 210 15 l 222 58 l 232 58 l 241 25 q 243 18 244 14 q 246 9 246 3 q 247 6 247 9 q 247 12 249 16 l 259 58 l 267 58 l 249 -5 l 241 -5 l 229 42 q 228 46 228 49 q 226 46 226 42 l 213 -5 z m 123 -5 l 105 58 l 115 58 l 123 16 q 123 9 127 3 q 129 10 129 15 l 141 58 l 150 58 l 160 25 q 162 18 162 14 q 163 9 163 3 q 166 6 166 9 q 166 12 168 16 l 177 58 l 186 58 l 168 -5 l 160 -5 l 148 42 q 147 46 147 49 q 144 46 144 42 l 130 -5 z m 384 30 l 397 30 q 403 30 405 33 q 409 33 409 34 q 411 36 411 40 q 411 45 409 46 l 408 46 q 406 46 406 47 q 406 48 405 48 q 403 49 396 49 l 384 49 z m 285 -5 l 268 58 l 277 58 l 286 16 q 288 12 288 9 q 288 6 291 3 q 291 9 292 11 q 292 13 292 15 l 304 58 l 313 58 l 324 25 q 325 18 326 14 q 327 9 327 3 q 330 6 330 9 q 330 12 331 16 l 342 58 l 349 58 l 331 -5 l 324 -5 l 312 42 q 310 46 310 49 q 307 46 307 42 l 294 -5 z m 664 28 l 682 28 q 685 28 688 29 q 690 30 693 30 q 696 30 696 34 q 697 36 697 40 q 697 45 694 48 q 693 49 684 49 l 664 49 z m 384 1 l 400 1 q 403 1 405 3 l 409 3 q 411 6 414 7 l 414 13 q 414 16 411 19 q 411 22 408 22 l 397 22 l 384 22 z m 435 -5 l 435 58 l 442 58 l 442 -5 z m 985 25 q 985 12 990 7 q 996 1 1006 1 q 1017 1 1021 7 q 1027 12 1027 27 q 1027 34 1026 39 q 1023 46 1018 48 q 1014 49 1006 49 q 997 49 993 45 q 985 39 985 25 z m 976 25 q 976 42 985 49 q 991 58 1006 58 q 1011 58 1014 56 q 1018 55 1021 54 q 1026 52 1028 49 q 1030 46 1033 42 q 1035 39 1035 27 q 1035 13 1032 9 q 1027 1 1021 -3 q 1015 -6 1006 -6 q 1002 -6 998 -6 q 994 -5 990 -3 q 987 0 984 3 q 982 6 981 9 q 979 13 978 17 q 976 21 976 25 z m 592 -5 l 616 58 l 625 58 l 651 -5 l 642 -5 l 634 13 l 609 13 l 600 -5 z m 459 -5 l 459 58 l 466 58 l 466 1 l 495 1 l 495 -5 z m 892 -5 l 892 3 l 903 3 l 903 -5 z m 748 19 l 748 27 l 774 27 l 774 3 q 768 -3 762 -5 q 759 -5 755 -6 q 751 -6 748 -6 q 739 -6 733 -3 q 729 0 726 2 q 723 4 721 9 q 720 13 718 17 q 717 21 717 25 q 717 31 718 34 q 720 37 721 42 q 724 51 732 54 q 735 55 740 56 q 744 58 748 58 q 756 58 760 55 q 766 54 768 49 q 772 45 774 40 l 766 39 q 766 40 762 45 q 762 48 756 49 l 748 49 l 739 49 q 735 48 732 45 q 732 43 727 39 q 727 36 726 33 q 726 30 726 27 q 726 16 729 13 q 735 4 736 3 q 741 1 748 1 q 754 1 759 3 q 762 6 764 6 q 765 6 766 7 l 766 19 z m 657 -5 l 657 58 l 684 58 q 688 58 691 56 q 694 55 697 55 q 702 54 703 49 q 706 46 706 40 q 706 33 702 28 q 700 27 696 26 q 693 25 688 22 q 691 22 692 22 q 693 21 694 21 q 696 18 696 16 q 697 13 700 10 l 712 -5 l 702 -5 l 693 7 q 690 10 689 12 q 688 15 687 16 q 687 19 686 19 q 684 19 682 21 l 681 21 q 679 21 679 22 q 679 22 678 22 l 675 22 l 664 22 l 664 -5 z m 505 -5 l 505 58 l 514 58 l 514 1 l 544 1 l 544 -5 z m 961 16 l 969 15 q 966 3 960 0 q 954 -6 943 -6 q 934 -6 928 -3 q 924 0 922 3 q 921 6 918 9 q 915 21 915 27 q 915 33 918 45 q 925 52 928 54 q 933 55 936 56 q 939 58 943 58 q 948 58 952 56 q 957 55 960 54 q 963 51 965 48 q 967 45 969 40 l 960 39 q 960 45 954 48 q 951 49 943 49 q 934 49 931 48 q 928 46 928 44 q 927 42 924 39 q 924 36 923 33 q 922 30 922 27 q 922 18 927 13 q 927 10 928 8 q 930 6 931 3 q 936 1 943 1 q 951 1 955 6 q 960 10 961 16 z m 1047 -5 l 1047 58 l 1059 58 l 1074 13 q 1074 10 1076 8 q 1077 6 1077 3 q 1077 4 1080 13 l 1093 58 l 1105 58 l 1105 -5 l 1098 -5 l 1098 46 l 1080 -5 l 1072 -5 l 1054 48 l 1054 -5 z m 175 111 l 187 106 q 184 93 174 84 q 162 75 148 75 q 135 75 123 81 q 111 90 109 99 q 103 109 103 124 q 103 141 109 151 q 114 162 124 166 q 135 172 148 172 q 165 172 171 165 q 181 162 186 145 l 174 144 q 168 156 163 157 q 157 163 148 163 q 136 163 130 157 q 121 151 118 144 q 117 138 117 124 q 117 111 121 105 q 124 94 130 91 q 138 85 147 85 q 159 85 166 93 q 169 96 172 100 q 174 105 175 111 z m 199 123 q 199 135 202 144 q 205 153 213 159 q 219 166 227 169 q 235 172 244 172 q 258 172 268 166 q 277 162 285 150 q 291 135 291 124 q 291 117 290 111 q 288 105 285 99 q 277 87 267 81 q 255 75 244 75 q 237 75 232 76 q 226 78 220 81 q 210 87 205 99 q 199 109 199 123 z m 213 123 q 213 105 220 94 q 231 85 244 85 q 259 85 267 97 q 277 108 277 124 q 277 130 276 134 q 274 139 273 144 q 270 154 261 157 q 256 163 244 163 q 232 163 222 153 q 213 145 213 123 z m 306 78 l 306 171 l 324 171 l 346 105 q 351 96 351 91 q 354 94 357 106 l 381 171 l 396 171 l 396 78 l 384 78 l 384 156 l 357 78 l 345 78 l 318 157 l 318 78 z m 417 78 l 417 171 l 453 171 l 466 171 q 474 171 478 166 q 480 165 486 157 q 487 154 488 151 q 489 148 489 144 q 489 135 481 124 q 474 117 453 117 l 429 117 l 429 78 z m 429 126 l 454 126 q 468 126 469 132 q 475 133 475 144 q 475 151 474 153 q 468 159 463 159 q 462 162 453 162 l 429 162 z m 505 78 l 505 171 l 517 171 l 517 87 l 564 87 l 564 78 z m 579 78 l 579 171 l 648 171 l 648 162 l 591 162 l 591 132 l 643 132 l 643 120 l 591 120 l 591 87 l 649 87 l 649 78 z m 690 78 l 690 162 l 658 162 l 658 171 l 735 171 l 735 162 l 703 162 l 703 78 z m 748 78 l 748 171 l 817 171 l 817 162 l 760 162 l 760 132 l 813 132 l 813 120 l 760 120 l 760 87 l 819 87 l 819 78 z m 870 106 l 882 108 q 882 100 885 97 q 888 91 895 88 q 898 87 909 87 q 912 87 916 87 q 919 87 922 88 q 927 88 930 94 q 931 97 931 103 q 931 108 930 111 q 928 112 926 113 q 924 114 921 117 q 919 117 904 120 q 897 123 892 124 q 888 124 885 126 q 879 129 876 136 q 873 138 872 141 q 871 144 871 147 q 871 156 877 162 q 879 165 882 166 q 885 168 889 171 q 892 172 907 172 q 918 172 924 169 q 928 166 931 164 q 934 163 936 159 q 942 154 942 145 l 930 144 q 927 156 922 157 q 918 162 907 162 q 892 162 889 157 q 885 153 885 147 q 885 142 889 139 q 889 139 907 132 q 915 130 920 128 q 925 127 928 126 q 933 124 935 122 q 937 120 940 117 q 943 112 943 103 q 943 93 940 88 q 934 82 928 79 q 924 78 920 76 q 915 75 909 75 q 903 75 897 76 q 891 78 888 79 q 880 81 873 91 q 870 97 870 106 z m 961 78 l 961 171 l 1029 171 l 1029 162 l 975 162 l 975 132 l 1027 132 l 1027 120 l 975 120 l 975 87 l 1032 87 l 1032 78 z m 1074 78 l 1074 162 l 1044 162 l 1044 171 l 1117 171 l 1117 162 l 1086 162 l 1086 78 z m 112 190 l 112 283 l 150 283 l 163 283 q 166 283 175 280 q 177 279 179 276 q 181 273 183 270 q 186 267 186 259 q 186 246 177 237 q 172 229 150 229 l 127 229 l 127 190 z m 127 241 l 150 241 q 163 241 168 244 q 174 250 174 256 q 174 259 172 262 q 171 265 169 268 q 165 273 162 273 q 160 274 150 274 l 127 274 z m 201 190 l 201 283 l 268 283 l 268 274 l 214 274 l 214 244 l 265 244 l 265 234 l 214 234 l 214 202 l 271 202 l 271 190 z m 288 190 l 288 283 l 331 283 q 345 283 351 282 q 358 279 361 274 q 364 262 364 259 q 364 249 358 243 q 352 237 337 234 q 340 231 342 231 q 343 231 345 229 q 352 222 355 216 l 372 190 l 357 190 l 343 210 q 342 214 340 217 q 337 220 336 223 q 333 225 332 227 q 331 229 330 229 q 327 231 324 231 q 322 234 316 234 l 303 234 l 303 190 z m 303 243 l 327 243 q 339 243 342 244 q 346 249 349 250 q 351 253 351 259 q 351 265 346 270 q 342 274 331 274 l 303 274 z m 381 222 l 391 222 q 391 219 392 216 q 394 213 396 210 q 397 208 400 206 q 402 204 405 204 q 414 201 420 201 q 423 201 426 201 q 429 201 430 202 q 439 205 441 208 q 441 210 442 212 q 442 214 442 216 q 442 222 441 223 q 436 226 430 229 q 429 231 425 231 q 421 231 415 234 q 402 235 396 240 q 388 246 385 249 q 384 253 384 261 q 384 264 384 268 q 385 271 388 274 q 390 280 400 283 q 403 286 417 286 q 429 286 435 283 q 444 279 447 273 q 453 264 453 259 l 441 256 q 438 267 433 270 q 427 276 417 276 q 405 276 400 270 q 396 267 396 261 q 396 255 400 253 q 402 250 417 247 q 430 241 439 241 q 442 238 445 236 q 448 234 450 231 q 454 226 454 217 q 454 210 450 204 q 447 199 444 197 q 442 195 439 192 q 427 189 420 189 q 409 189 397 192 q 393 195 390 197 q 387 199 384 204 q 382 208 382 212 q 381 216 381 222 z m 468 237 q 468 258 480 273 q 493 286 513 286 q 519 286 524 284 q 529 283 537 280 q 543 277 546 272 q 549 268 552 262 q 558 252 558 237 q 558 223 552 211 q 546 201 537 195 q 525 189 513 189 q 499 189 489 196 q 475 204 474 214 q 468 222 468 237 z m 480 237 q 480 219 489 210 q 498 201 513 201 q 528 201 537 210 q 544 220 544 237 q 544 243 544 249 q 543 255 540 259 q 535 267 531 270 q 523 276 513 276 q 505 276 500 274 q 496 271 489 267 q 480 258 480 237 z m 573 190 l 573 283 l 586 283 l 636 211 l 636 283 l 648 283 l 648 190 l 636 190 l 585 264 l 585 190 z m 658 190 l 694 283 l 708 283 l 747 190 l 732 190 l 721 220 l 682 220 l 670 190 z m 684 229 l 717 229 l 708 255 q 705 261 704 266 q 702 271 700 274 q 700 270 698 266 q 697 261 696 256 z m 754 190 l 754 283 l 768 283 l 768 202 l 814 202 l 814 190 z m 922 283 l 934 283 l 934 231 q 934 214 931 208 q 928 199 921 195 q 913 189 898 189 q 883 189 877 195 q 873 196 870 200 q 867 204 864 208 q 862 211 862 231 l 862 283 l 873 283 l 873 231 q 873 216 876 211 q 879 205 883 204 q 886 202 889 202 q 892 201 897 201 q 909 201 916 205 q 922 211 922 231 z m 951 222 l 963 222 q 963 219 964 216 q 966 213 967 210 q 969 208 971 206 q 973 204 976 204 q 985 201 990 201 q 1000 201 1005 202 q 1008 204 1012 208 q 1014 210 1014 216 q 1014 222 1012 223 q 1009 225 1008 226 q 1008 228 1005 229 q 1002 231 998 231 q 993 231 987 234 q 981 235 976 236 q 970 237 969 240 q 961 243 960 249 q 955 253 955 261 q 955 267 960 274 q 961 280 970 283 q 976 286 988 286 q 993 286 998 286 q 1003 286 1006 283 q 1015 279 1020 273 q 1021 270 1022 266 q 1024 262 1024 259 l 1012 256 q 1009 261 1008 264 q 1008 268 1005 270 q 1000 276 988 276 q 975 276 973 270 q 967 268 967 261 q 967 256 970 253 q 973 250 988 247 q 1005 241 1009 241 q 1014 238 1017 236 q 1020 234 1021 231 q 1026 228 1026 217 q 1026 208 1021 204 q 1018 199 1016 197 q 1014 195 1009 192 q 1000 189 993 189 q 985 189 980 190 q 975 190 970 192 q 967 195 964 197 q 960 199 957 204 q 954 208 952 212 q 951 216 951 222 z m 1044 190 l 1044 283 l 1111 283 l 1111 274 l 1057 274 l 1057 244 l 1107 244 l 1107 234 l 1057 234 l 1057 202 l 1113 202 l 1113 190 z m 307 388 q 307 403 285 406 q 282 406 278 407 q 273 408 267 408 l 258 397 l 234 372 q 228 364 222 358 q 217 352 210 348 q 219 345 232 343 q 235 343 240 343 q 246 343 250 345 q 273 346 285 357 q 307 375 307 388 z m 324 433 q 324 439 316 439 q 313 439 291 432 l 274 417 q 271 414 268 408 l 294 412 q 300 412 310 420 q 324 429 324 433 z m 343 460 q 343 457 339 457 q 336 457 335 458 q 334 459 331 459 q 316 456 297 436 q 300 439 304 440 q 307 442 310 444 q 321 445 330 444 q 336 444 336 436 l 336 430 q 328 417 294 409 q 321 406 321 391 q 321 373 292 354 q 282 348 270 344 q 259 340 247 339 q 228 334 217 336 q 208 336 198 340 q 189 334 181 334 l 178 334 q 169 337 163 339 l 168 339 q 180 339 187 345 l 187 346 q 177 340 165 340 q 148 340 139 349 q 124 360 124 381 q 124 387 126 392 q 127 397 130 405 q 141 427 166 444 q 174 451 182 454 q 190 456 198 457 q 214 457 220 451 q 213 456 205 456 q 196 456 186 450 q 171 444 169 441 q 154 433 139 415 q 126 394 126 379 q 126 372 128 368 q 129 363 132 358 q 138 349 148 346 q 153 345 156 344 q 159 343 162 343 q 168 343 172 344 q 177 346 183 349 q 166 361 166 382 q 169 402 190 417 l 187 412 q 184 412 181 406 q 172 397 172 387 q 172 367 195 354 q 207 361 207 363 q 210 367 213 370 q 216 373 219 376 q 222 379 222 384 q 223 388 226 393 l 226 391 q 226 384 225 379 l 243 400 q 289 453 319 462 q 306 466 298 466 q 279 465 256 453 q 229 439 229 420 q 229 414 234 409 q 235 408 235 406 q 226 412 226 421 q 226 438 246 454 q 270 472 297 469 q 306 469 324 463 l 330 463 q 337 463 342 460 z m 346 363 q 345 357 334 346 q 324 340 316 340 q 309 340 309 349 q 309 357 318 369 l 316 369 q 315 367 310 367 q 310 367 309 369 q 313 369 324 379 l 325 379 l 330 385 q 334 390 334 393 l 339 393 q 343 393 343 391 q 343 385 334 375 l 324 364 q 315 351 315 346 q 315 342 321 342 q 328 342 339 357 q 340 358 342 359 q 343 360 346 363 z m 354 405 q 348 396 339 396 q 334 396 328 400 l 333 400 q 343 400 346 411 l 346 414 l 354 411 q 355 409 354 405 z m 406 433 q 406 426 360 370 l 358 370 q 345 354 345 345 q 345 340 349 340 q 358 340 369 355 q 370 357 372 358 q 373 358 375 361 q 375 354 363 345 q 355 339 346 339 q 337 340 337 348 q 336 355 367 394 l 385 417 l 394 426 q 399 432 402 441 q 406 438 406 433 z m 432 433 q 432 427 384 370 q 369 352 369 345 q 369 340 375 340 q 381 340 394 355 l 400 361 q 399 354 387 345 q 379 339 370 339 q 361 340 361 348 q 361 357 391 394 l 409 417 l 418 426 q 426 435 427 441 q 432 438 432 433 z m 403 333 q 379 328 366 315 q 355 301 355 298 q 355 292 361 292 q 363 291 372 294 q 375 297 378 300 q 382 304 387 309 z m 447 430 q 444 409 427 393 q 427 391 426 391 q 426 391 426 390 q 421 384 416 378 q 411 373 406 366 q 403 363 403 360 q 402 363 405 369 q 396 355 396 348 q 396 343 400 343 q 402 343 408 346 q 430 364 439 397 l 439 393 l 439 388 q 442 385 442 381 q 442 378 435 366 l 423 346 l 409 328 q 414 331 426 337 l 424 336 q 421 333 416 329 q 411 325 406 318 l 394 303 l 388 295 q 379 286 369 283 q 360 283 355 289 q 346 292 352 303 q 354 304 356 307 q 357 310 360 313 l 361 315 l 351 313 q 376 331 393 333 q 394 333 396 334 q 397 334 399 334 l 400 334 l 403 334 l 412 348 q 406 342 402 341 q 397 340 394 340 q 387 340 387 348 q 387 366 418 394 l 421 396 l 436 411 q 439 417 442 422 q 445 426 447 430 z m 618 453 q 609 456 603 456 q 588 456 575 452 q 562 448 549 441 q 543 438 539 434 q 535 430 531 427 q 549 426 579 408 q 612 441 636 450 z m 649 447 q 643 445 636 443 q 630 441 622 433 q 618 430 600 412 l 589 402 l 604 393 q 607 397 613 404 q 619 411 627 420 z m 663 472 q 663 471 661 469 q 661 459 657 448 l 658 447 l 657 447 q 649 429 637 417 l 613 388 q 616 387 618 387 q 619 387 622 385 q 622 382 621 382 q 618 382 616 383 q 615 384 612 385 q 594 366 592 349 q 589 343 589 340 q 589 334 595 334 q 607 334 621 354 l 627 363 q 642 384 646 400 l 646 405 q 646 403 648 402 l 648 400 q 645 379 633 361 l 613 322 q 613 328 618 342 q 600 328 591 328 q 577 328 580 346 q 580 355 586 366 q 592 378 601 391 l 586 399 l 573 385 q 568 379 560 370 q 552 361 540 346 q 516 322 498 322 l 493 322 q 489 322 480 327 q 480 327 483 327 q 496 324 510 337 q 498 331 481 331 q 465 331 454 339 l 456 339 q 441 349 441 370 q 441 385 447 393 q 456 417 481 433 q 490 441 498 443 q 507 445 516 447 q 531 447 537 441 l 535 441 q 532 444 522 444 q 507 444 484 430 q 468 418 456 405 q 442 384 442 367 q 442 343 465 336 q 474 333 478 333 q 510 334 547 375 l 576 405 q 553 418 525 418 l 523 418 q 520 412 520 405 q 522 405 528 396 q 517 402 517 411 q 517 415 519 418 q 504 415 499 412 q 472 402 475 381 q 475 367 484 357 l 487 354 q 469 372 469 385 q 469 405 487 418 q 502 429 525 429 q 546 453 577 457 q 585 459 601 459 q 609 459 624 456 l 642 451 l 651 451 l 652 450 q 658 460 661 475 l 663 475 z m 682 375 q 682 370 681 367 q 673 360 668 354 q 663 348 658 340 l 660 340 l 661 340 q 660 339 658 339 q 657 339 657 337 q 649 337 649 340 q 649 346 663 360 q 673 373 673 376 q 675 381 669 385 q 651 360 637 354 l 631 351 l 628 352 q 634 352 648 367 q 661 379 666 387 q 666 388 665 388 q 664 388 664 390 q 664 391 675 400 q 675 402 676 402 l 678 400 q 678 399 670 388 q 682 384 682 375 z m 726 379 q 726 388 720 385 q 714 385 711 382 q 706 379 697 367 q 688 355 688 348 q 687 345 691 345 q 700 348 706 355 q 712 367 712 372 q 712 375 711 375 q 717 375 717 367 l 715 364 q 718 367 720 371 q 723 375 726 378 z m 754 393 q 748 393 741 385 q 735 378 729 369 q 723 360 715 348 q 708 333 702 324 q 696 316 694 313 q 675 289 664 289 q 655 288 651 295 q 651 303 651 303 q 651 310 657 316 q 654 315 649 315 q 664 330 682 334 q 684 334 684 335 q 685 336 688 336 l 690 334 q 661 325 655 307 q 654 304 654 300 q 654 298 655 297 q 655 295 657 295 q 669 294 685 318 l 696 333 l 702 342 q 697 340 694 340 q 682 340 682 352 q 682 366 702 384 q 711 393 718 393 q 729 393 729 381 l 730 381 l 738 390 q 745 397 751 397 q 756 397 759 393 z m 781 382 q 781 373 765 364 q 763 363 762 363 l 760 363 q 756 363 751 370 q 754 367 759 367 q 769 373 772 384 l 772 387 l 772 388 l 772 390 q 766 390 753 376 l 753 375 q 748 369 748 365 q 747 361 747 358 q 745 360 745 367 q 742 361 741 357 q 738 351 738 346 q 738 345 739 343 q 739 340 745 340 q 760 346 771 355 q 774 358 778 361 q 775 357 772 353 q 769 349 762 345 q 750 337 741 340 q 741 339 739 340 q 730 340 730 349 q 730 364 747 379 q 756 393 771 393 q 774 393 775 391 q 781 387 781 382 z m 841 433 q 841 427 793 370 q 780 354 780 345 q 780 340 784 340 q 793 340 804 355 q 805 357 806 358 q 808 358 810 361 q 810 354 798 345 q 790 339 780 339 q 772 342 772 348 q 772 360 801 394 l 819 417 l 828 426 q 837 435 837 441 q 841 438 841 433 z m 922 387 q 897 396 895 415 q 888 411 880 407 q 873 403 868 399 q 840 372 840 349 q 840 340 844 339 l 847 339 l 850 339 q 873 339 892 354 q 898 360 906 368 q 915 375 922 387 z m 952 430 l 940 430 q 922 429 897 417 q 900 396 925 391 l 936 405 z m 979 457 q 960 457 944 454 q 928 451 916 444 q 924 451 935 456 q 946 460 960 463 q 930 465 907 445 q 903 442 897 430 q 907 433 917 434 q 927 436 939 435 q 942 435 946 435 q 951 435 958 433 q 961 438 966 444 q 972 450 979 457 z m 1074 459 q 1071 454 1067 450 q 1063 447 1056 444 q 1044 436 1033 436 l 1030 436 q 1029 436 1027 438 q 1029 439 1029 440 q 1029 442 1032 445 q 1018 456 994 456 l 988 448 l 973 430 q 985 429 996 428 q 1006 426 1015 426 q 1036 426 1044 430 q 1038 424 1021 421 q 1008 418 994 423 l 970 427 q 964 420 959 414 q 954 409 951 403 l 940 388 l 948 388 q 985 391 991 406 l 993 406 q 988 397 973 390 q 966 387 959 386 q 952 384 946 384 l 939 384 q 928 372 922 363 q 915 354 909 348 q 889 327 873 327 q 865 328 856 328 q 871 328 888 343 q 867 334 855 334 l 846 336 l 858 324 q 846 330 838 337 q 837 337 831 340 q 813 354 811 375 q 811 382 811 388 q 811 394 814 400 q 819 414 826 424 q 834 433 844 444 q 870 466 889 466 q 900 466 907 460 l 906 459 q 901 463 892 463 q 873 460 852 444 q 834 429 825 414 q 813 393 813 375 q 816 348 837 340 q 834 349 835 358 q 838 381 852 397 q 868 418 897 430 q 900 433 900 439 l 913 453 q 933 469 964 469 q 972 469 977 469 q 982 469 990 468 l 991 468 q 1002 475 1010 479 q 1018 483 1027 481 q 1033 481 1036 478 q 1020 475 1020 475 q 1017 474 1013 472 q 1009 471 1005 468 q 1011 466 1017 466 q 1023 465 1030 462 q 1045 457 1054 457 q 1068 457 1074 459 z m 982 354 q 978 358 978 364 q 978 367 978 370 q 979 372 979 375 q 964 355 966 346 q 966 343 969 343 q 972 343 982 354 z m 1002 385 q 1002 388 999 388 q 996 388 993 387 q 991 385 988 379 q 981 364 981 360 q 981 355 982 354 l 987 358 l 987 360 l 987 358 q 988 360 988 360 q 988 361 990 363 q 993 372 993 375 q 993 376 991 378 q 994 372 994 370 q 999 375 1002 385 z m 1008 381 q 1008 373 997 358 q 984 345 978 340 l 966 340 q 957 340 957 348 q 957 360 973 379 q 984 393 997 393 q 1008 393 1008 381 z m 1057 384 q 1059 381 1051 367 q 1042 355 1039 352 l 1021 336 q 1011 325 1008 313 q 1009 331 1021 345 q 1027 351 1030 356 q 1033 360 1036 366 q 1038 367 1039 372 l 1039 367 q 1039 367 1038 364 q 1041 367 1047 379 q 1047 381 1048 382 q 1048 382 1048 384 q 1048 391 1041 388 q 1041 388 1029 379 q 1026 372 1020 366 q 1015 361 1009 354 q 1002 345 1000 340 q 999 339 993 327 q 993 330 992 334 q 991 337 993 340 q 996 351 1006 361 l 1015 372 q 1023 382 1023 388 q 1023 390 1022 392 q 1021 393 1021 394 q 1030 391 1030 385 q 1039 393 1050 393 q 1056 390 1057 384 z m 1116 405 l 1093 405 q 1092 402 1084 393 q 1075 384 1063 367 q 1060 367 1057 360 q 1051 352 1051 345 q 1051 340 1054 340 q 1062 340 1075 355 l 1077 357 q 1078 358 1078 359 q 1078 360 1080 361 q 1080 354 1069 345 q 1062 339 1051 339 q 1044 342 1042 348 q 1042 351 1048 363 l 1066 384 l 1083 405 l 1057 408 q 1051 409 1042 409 l 1029 409 q 1011 409 993 402 l 991 402 q 1006 417 1038 417 q 1039 417 1050 414 q 1062 412 1083 409 l 1087 408 q 1092 415 1096 420 q 1099 426 1102 430 q 1105 429 1105 423 q 1105 418 1102 415 l 1096 406 l 1108 405 l 1117 405 l 1119 405 l 1123 405 z m 1126 385 q 1126 381 1116 376 l 1114 375 q 1119 379 1119 387 l 1119 393 l 1114 393 q 1107 393 1105 387 q 1105 384 1110 361 q 1111 340 1086 340 q 1072 340 1069 349 q 1068 351 1068 354 q 1068 366 1086 369 l 1092 367 l 1089 367 q 1083 367 1080 364 q 1075 357 1075 354 q 1075 342 1087 342 q 1099 342 1099 358 q 1099 366 1098 370 q 1096 375 1096 381 q 1096 396 1110 396 q 1113 396 1114 395 q 1116 394 1119 394 q 1125 391 1125 390 q 1126 388 1126 385 z"},"r":{"x_min":0,"x_max":287,"ha":287,"o":"m 211 469 q 251 451 258 430 q 266 409 256 388 q 245 366 224 345 q 204 324 187 306 q 195 301 203 300 q 211 299 217 299 q 233 299 254 310 q 274 320 300 354 q 314 352 326 344 q 339 336 346 325 q 354 314 355 302 q 356 291 346 282 q 319 260 288 232 q 256 203 228 174 q 199 144 177 116 q 155 89 147 71 q 144 66 142 60 q 139 54 140 51 q 142 48 151 50 q 160 53 181 67 q 196 76 230 106 q 263 135 308 176 l 397 262 q 395 257 392 249 q 389 241 382 228 q 375 216 363 200 q 351 183 330 162 q 303 138 273 110 q 243 81 213 56 q 183 32 156 16 q 128 0 106 0 q 70 1 61 26 q 52 51 68 90 q 85 128 124 175 q 164 222 225 267 q 211 267 195 266 q 179 266 159 277 l 49 166 l 6 127 q 6 137 6 146 q 7 156 18 171 l 31 184 q 113 263 137 295 q 125 308 126 322 q 126 337 134 352 q 142 367 154 382 q 167 397 179 412 q 191 427 200 442 q 209 456 211 469 z"}}}
